<svg xmlns="http://www.w3.org/2000/svg" xmlns:xlink="http://www.w3.org/1999/xlink">
  <defs/>
  <g>
    <path stroke="none" fill="#FFCC00" d="M6.1 16.8 Q6.75 14.55 6.3 12.25 5.85 9.95 4.45 8.1 3 6.25 0.95 5.25 -1.15 4.2 -3.45 4.2 L-7.75 4.2 Q-10.35 4.2 -12.6 5.45 -14.85 6.7 -16.2 8.9 -18 11.75 -20.75 13.65 -23.55 15.6 -26.9 16.15 -31.25 16.85 -33.65 20.7 -36.05 24.4 -34.75 28.8 -29.75 45.25 -29.75 53.15 -29.75 57.75 -33 61.05 -36.3 64.3 -40.9 64.3 -45.5 64.3 -48.8 61.05 -52.05 57.75 -52.05 53.15 L-51.7 48.6 Q-51.4 46.25 -52.2 44 -53 41.7 -54.75 40.1 -56.5 38.45 -58.8 37.8 L-63.5 37.6 -65.65 37.8 Q-70.25 37.8 -73.55 34.55 -76.8 31.25 -76.8 26.65 -76.8 22.8 -75.45 16.15 -74.5 11.5 -77.45 7.85 -80.45 4.2 -85.15 4.2 L-99.85 4.2 -99.85 -34.75 37.05 -34.75 Q41.15 -34.75 44.05 -37.65 46.95 -40.55 46.95 -44.7 L46.95 -64.25 99.9 -15.3 46.95 33.7 46.95 14.1 Q46.95 10 44.05 7.1 41.15 4.2 37.05 4.2 L30.35 4.2 Q28 4.2 25.95 5.25 23.85 6.25 22.45 8.1 21.05 9.95 20.6 12.25 20.15 14.55 20.8 16.8 24.6 30.5 24.6 37.1 24.6 41.7 21.35 45 18.05 48.25 13.45 48.25 8.85 48.25 5.55 45 2.3 41.7 2.3 37.1 2.3 30.5 6.1 16.8"/>
  </g>
</svg>