<svg xmlns="http://www.w3.org/2000/svg" xmlns:xlink="http://www.w3.org/1999/xlink">
  <defs/>
  <g>
    <path stroke="none" fill="#FFCC00" d="M22.7 -2.7 L52.9 -2.7 39.2 12.1 Q37.4 14.05 36.8 16.65 36.2 19.25 37 21.8 41.4 36.1 41.4 42.6 41.4 45.75 39.15 48 36.9 50.25 33.7 50.25 31.4 50.25 29.5 49 27.65 47.8 26.75 45.8 25.7 43.55 23.7 42.05 21.7 40.5 19.25 40.15 L14.5 40.55 Q12.15 41.35 10.45 43.2 L0 54.45 -52.85 -2.7 -22.65 -2.7 Q-18.55 -2.7 -15.65 -5.6 -12.75 -8.5 -12.75 -12.6 L-12.75 -54.45 12.8 -54.45 12.8 -12.6 Q12.8 -8.5 15.7 -5.6 18.6 -2.7 22.7 -2.7"/>
  </g>
</svg>