<svg xmlns="http://www.w3.org/2000/svg" xmlns:xlink="http://www.w3.org/1999/xlink">
  <defs/>
  <g>
    <path stroke="none" fill="#FFCC00" d="M-52.85 -12.9 L0.05 -70 52.9 -12.9 24.25 -12.9 Q20.15 -12.9 17.2 -10 14.3 -7.05 14.3 -2.95 L14.3 38.9 Q12.1 39 10.1 40 8.1 41 6.75 42.75 5.3 44.6 4.85 46.85 4.4 49.1 5 51.35 7.15 59.5 7.15 63.85 7.15 66.45 5.35 68.25 3.55 70.05 0.95 70.05 -1.6 70.05 -3.4 68.25 -5.25 66.45 -5.25 63.85 -5.25 59.7 -3.05 51.35 -2.5 49.1 -2.95 46.85 -3.4 44.6 -4.8 42.75 -6.2 40.9 -8.3 39.9 -10.35 38.9 -12.7 38.9 L-14.25 38.9 -14.25 -2.95 Q-14.25 -7.05 -17.15 -10 -20.05 -12.9 -24.15 -12.9 L-28.25 -12.9 Q-30.6 -12.9 -32.7 -11.85 -34.8 -10.8 -36.2 -8.9 -37.6 -7 -38.05 -4.7 -38.45 -2.4 -37.8 -0.15 -34.7 10.5 -34.7 15.7 -34.7 18.15 -36.45 19.85 -38.15 21.6 -40.6 21.6 -43.05 21.6 -44.8 19.85 -46.55 18.15 -46.55 15.7 -46.55 10.65 -43.4 -0.15 -42.75 -2.4 -43.2 -4.7 -43.6 -7 -45 -8.9 -46.4 -10.75 -48.45 -11.8 -50.5 -12.85 -52.85 -12.9"/>
  </g>
</svg>