<svg xmlns="http://www.w3.org/2000/svg" xmlns:xlink="http://www.w3.org/1999/xlink">
  <defs/>
  <g>
    <path stroke="none" fill="#FFCC00" d="M106.1 -48.65 Q106.05 -44.85 103.7 -41.95 L103.3 -41.5 Q100.55 -38.45 96.4 -37.8 93.75 -37.3 92.05 -35.3 90.4 -33.2 90.65 -30.65 L91 -23.8 Q90.95 -19.2 87.5 -16 84 -12.7 79.15 -12.75 74.3 -12.8 70.9 -16.15 67.5 -19.4 67.55 -24 L67.55 -25 Q67.6 -26.45 67 -27.85 66.4 -29.2 65.25 -30.2 64.1 -31.15 62.6 -31.65 L59.6 -31.85 57.95 -31.8 55.4 -32.05 52 -31.95 Q50.3 -31.6 49 -30.45 47.75 -29.25 47.15 -27.7 46.6 -26.2 46.85 -24.55 55.35 27.25 55.3 39 55.25 43.6 51.75 46.8 48.3 50 43.45 50 38.6 49.95 35.2 46.65 31.75 43.35 31.8 38.75 31.85 28.95 39 -11.9 39.25 -13.5 38.75 -15 38.25 -16.5 37.05 -17.65 35.9 -18.8 34.3 -19.35 L31.05 -19.6 29.25 -19.5 Q25.55 -19.5 22.45 -21.65 20.75 -22.8 18.55 -22.9 16.4 -22.95 14.55 -21.9 12.75 -20.85 11.9 -18.95 11 -17.05 11.4 -15.05 15.55 6.8 15.55 12.9 15.5 17.3 12.2 20.4 8.9 23.5 4.3 23.45 -0.3 23.4 -3.55 20.25 -6.85 17.2 -6.8 12.75 -6.7 5.1 0.2 -26.15 0.55 -27.8 0.05 -29.4 -0.45 -31 -1.75 -32.2 -2.95 -33.4 -4.65 -33.9 L-8.1 -34 -16.45 -33.25 -19.7 -33.35 Q-23.15 -33.55 -25.4 -31.2 -26.5 -30.05 -26.95 -28.6 -27.4 -27.15 -27.15 -25.6 -25.1 -13.55 -25.1 -9.25 -25.15 -4.85 -28.45 -1.8 -31.8 1.25 -36.4 1.2 -41 1.15 -44.2 -1.95 -47.5 -5.05 -47.45 -9.45 -47.4 -13.75 -45.1 -25.9 -44.8 -27.45 -45.3 -29.05 -45.8 -30.55 -47 -31.7 -48.2 -32.85 -49.8 -33.4 L-53.05 -33.65 -58.3 -33.25 Q-61.1 -33.2 -63.1 -31.3 -65.1 -29.45 -65.15 -26.75 -65.3 -22.25 -68.75 -19.1 -72.2 -15.95 -77 -16 -81.85 -16 -85.25 -19.3 -88.7 -22.6 -88.65 -27.2 L-88.1 -34.55 Q-87.85 -37.1 -89.45 -39.15 -91.05 -41.25 -93.7 -41.75 L-94.8 -41.95 Q-101.3 -43.45 -104.5 -46.35 -106.15 -47.8 -106.1 -48.8 L-105.45 -50 106.1 -50 106.1 -48.65"/>
  </g>
</svg>