<svg xmlns="http://www.w3.org/2000/svg" xmlns:xlink="http://www.w3.org/1999/xlink">
  <defs/>
  <g>
    <path stroke="none" fill="#FFCC00" d="M126.3 -49.85 Q124.1 -46.95 120.7 -45.9 118.35 -45.15 116.95 -43.1 115.55 -41.05 115.75 -38.6 L115.95 -35.5 Q115.9 -31 112.65 -27.75 109.5 -24.55 104.95 -24.45 103.4 -24.4 102 -23.75 100.6 -23.05 99.6 -21.85 97.55 -19.35 98.2 -16.05 104.55 17.15 104.5 25.2 104.5 29.8 101.2 33 97.9 36.3 93.3 36.25 88.7 36.2 85.4 32.9 82.15 29.6 82.2 25 82.25 19.15 86.15 -1.05 86.5 -2.85 85.9 -4.6 85.35 -6.3 84 -7.55 82.65 -8.8 80.9 -9.2 79.1 -9.65 77.3 -9.15 L74.2 -8.7 Q69.95 -8.75 66.8 -11.6 63.65 -14.4 63.15 -18.55 62.85 -21.6 60.35 -23.45 57.8 -25.25 54.85 -24.65 L52.6 -24.45 Q50.9 -24.45 49.15 -25 L45.6 -25.25 Q43.8 -24.9 42.35 -23.7 40.95 -22.55 40.3 -20.8 39.65 -19.1 39.95 -17.25 47.6 32.6 47.55 44.3 47.5 49.2 44.05 52.6 40.55 56 35.7 55.95 30.85 55.9 27.45 52.45 24 48.95 24.05 44.1 24.15 34.95 29.35 2.5 29.65 0.5 28.85 -1.35 28 -3.25 26.35 -4.4 24.7 -5.55 22.65 -5.6 20.6 -5.7 18.85 -4.7 16.15 -3.15 13.15 -3.2 8.55 -3.25 5.35 -6.55 2.1 -9.8 2.1 -14.45 2.1 -16.95 3.05 -23.45 3.45 -25.95 2.15 -28.1 0.85 -30.25 -1.45 -31.1 -3.85 -31.95 -6.2 -31.15 -8.55 -30.35 -9.9 -28.2 -12.15 -24.6 -16.15 -23.35 -18.7 -22.6 -20.15 -20.3 -21.5 -18 -21.05 -15.4 -16.8 8 -16.85 14.4 -16.9 19 -20.15 22.25 -23.5 25.5 -28.1 25.45 -32.7 25.45 -35.95 22.15 -39.2 18.8 -39.15 14.2 -39.15 11.6 -38.25 5.5 -38 3.85 -38.55 2.25 -39.1 0.65 -40.3 -0.55 -41.55 -1.7 -43.15 -2.2 L-46.45 -2.4 -48.4 -2.25 Q-53 -2.3 -56.3 -5.6 -59.55 -8.85 -59.5 -13.5 -59.45 -16.35 -58.5 -22.95 -58.1 -25.35 -59.3 -27.45 -60.5 -29.6 -62.75 -30.5 -63.85 -31 -64.7 -31.6 -66.4 -32.7 -68.45 -32.8 -70.5 -32.8 -72.25 -31.8 -74.05 -30.75 -74.95 -28.9 -75.9 -27.1 -75.65 -25 L-75.4 -20.4 Q-75.4 -15.75 -78.7 -12.55 -82 -9.3 -86.6 -9.35 -91.2 -9.4 -94.5 -12.7 -97.75 -15.95 -97.7 -20.6 L-97.15 -26.35 Q-96.9 -28.3 -97.7 -30.05 -98.5 -31.85 -100.1 -32.95 L-101.4 -34.1 Q-103.3 -35.95 -105.9 -36.1 -108.55 -36.3 -110.65 -34.7 -113.65 -32.4 -117.45 -32.45 -122.05 -32.5 -125.25 -35.8 -128.55 -39.1 -128.5 -43.7 -128.45 -47.5 -127.1 -55.95 L128.55 -55.95 Q128.35 -52.55 126.3 -49.85"/>
  </g>
</svg>