<svg xmlns="http://www.w3.org/2000/svg" xmlns:xlink="http://www.w3.org/1999/xlink">
  <defs/>
  <g>
    <path stroke="none" fill="#FFCC00" d="M-68.25 19.95 Q-67.95 17.15 -69.05 14.75 -75.55 0.2 -75.55 -16 -75.55 -31.35 -69.6 -45.4 -63.85 -58.95 -53.4 -69.4 -42.95 -79.85 -29.4 -85.6 -15.35 -91.55 0.05 -91.55 15.4 -91.55 29.45 -85.6 43 -79.85 53.45 -69.4 63.9 -58.95 69.65 -45.4 75.6 -31.35 75.6 -16 75.6 -1.6 70.4 11.7 65.35 24.5 56.05 34.75 53 38.1 53.55 42.65 57.1 71.4 54.65 82.3 53.55 87.05 49.4 89.7 45.25 92.3 40.45 91.25 36.65 90.35 34.15 87.45 31.65 84.55 31.3 80.75 30.95 76.95 28.1 74.35 25.25 71.75 21.45 71.75 L17.1 71.25 Q9.85 69.6 5.45 63.6 4.1 61.75 2.05 60.7 0.05 59.65 -2.25 59.55 -23.15 58.95 -40.75 47.65 -43.05 46.2 -45.8 46.1 -48.55 46 -50.95 47.35 -53.35 48.65 -54.7 51.05 -56.1 53.4 -56.05 56.15 -56 58.9 -57.85 60.95 -59.65 63 -62.4 63.3 -65.3 63.55 -67.6 61.7 -69.85 59.85 -70.15 56.95 -71.25 45.05 -68.25 19.95 M-33 -33.75 Q-34.65 -36.05 -37.3 -37.15 -39.9 -38.2 -42.7 -37.7 -45.5 -37.25 -47.65 -35.35 -49.75 -33.45 -50.55 -30.7 -52.65 -23.7 -52.65 -16 -52.65 5.85 -37.2 21.25 -21.75 36.7 0.05 36.7 11.05 36.7 21 32.35 L22.3 31.65 31.25 26.35 32.45 25.55 Q41.9 18.15 47.25 7.5 52.75 -3.55 52.75 -16 52.75 -37.8 37.3 -53.25 21.85 -68.7 0.05 -68.7 -7 -68.7 -13.8 -66.85 -17.4 -65.85 -19.45 -62.75 -21.55 -59.65 -21.05 -55.95 -19.15 -41.6 -20.4 -36.25 -21.05 -33.4 -23.55 -31.85 -26.05 -30.35 -28.9 -31.05 -31.45 -31.65 -33 -33.75"/>
  </g>
</svg>