<svg xmlns="http://www.w3.org/2000/svg" xmlns:xlink="http://www.w3.org/1999/xlink">
  <defs/>
  <g>
    <path stroke="none" fill="#FFCC00" d="M125 -78.5 Q124.95 -74.9 122.85 -72.05 120.7 -69.25 117.35 -68.2 115.05 -67.5 113.7 -65.5 112.35 -63.5 112.55 -61.1 L112.7 -58.1 Q112.7 -53.8 109.75 -50.7 106.85 -47.6 102.65 -47.35 99.7 -47.15 97.85 -44.95 95.95 -42.75 96.25 -39.85 98.95 -11.25 98.85 -3.4 98.85 -1.05 97.2 0.7 95.6 2.4 93.25 2.55 90.3 2.7 88.4 5 86.55 7.25 86.85 10.2 89.85 34.4 90 42.05 90.05 44.5 88.35 46.3 86.65 48.15 84.15 48.15 81.7 48.25 79.9 46.5 78.1 44.8 78.05 42.35 77.65 26.55 85.05 -49.3 85.2 -51.2 84.4 -52.95 83.55 -54.7 81.95 -55.75 80.3 -56.8 78.4 -56.85 76.5 -56.9 74.8 -55.95 72.3 -54.45 69.4 -54.55 L68.4 -54.55 65.45 -54.2 Q64 -53.65 62.9 -52.6 60.65 -50.2 60.95 -47.05 64.7 -9.45 64.6 0.5 64.6 3 62.8 4.75 61.05 6.5 58.6 6.45 56.1 6.4 54.4 4.65 52.65 2.9 52.65 0.4 52.7 -8.3 56.25 -39.8 56.55 -42.6 54.75 -44.85 53 -47.05 50.15 -47.4 46.1 -47.8 43.35 -50.75 41.8 -52.4 39.6 -52.8 37.35 -53.2 35.35 -52.25 33.35 -51.3 32.3 -49.3 31.2 -47.3 31.55 -45.1 39.55 9.65 39.45 22.35 39.4 26.25 36.65 29.1 33.9 31.9 29.95 32 26.85 32.1 24.9 34.35 22.9 36.65 23.3 39.7 26.5 65.6 26.65 73.6 26.75 76.05 25 77.85 23.3 79.6 20.8 79.7 18.35 79.75 16.55 78.05 14.8 76.3 14.7 73.8 14.45 61.95 18.7 14.85 18.85 12.65 17.8 10.8 16.7 8.9 14.7 8 13.1 7.3 12.2 5.8 11.25 4.3 11.25 2.5 11.35 -7.65 15.85 -46.7 16.15 -49.7 14.3 -51.95 12.45 -54.2 9.45 -54.4 L5.3 -54.85 2.2 -54.65 Q0.7 -54.2 -0.5 -53.15 -1.65 -52.1 -2.2 -50.6 -2.8 -49.15 -2.7 -47.55 -1.7 -34.8 -1.7 -29.8 -1.75 -27.3 -3.5 -25.6 -5.3 -23.85 -7.75 -23.85 -10.2 -23.9 -11.95 -25.65 -13.7 -27.4 -13.65 -29.9 L-13.25 -38.45 Q-13.05 -41.3 -14.9 -43.5 -16.8 -45.65 -19.6 -45.85 -20.8 -45.9 -22.25 -46.4 L-25.6 -46.6 Q-27.35 -46.25 -28.7 -45.2 -30.05 -44.1 -30.75 -42.5 -31.4 -40.9 -31.25 -39.15 -26.25 8.5 -26.35 20.35 -26.4 22.8 -28.15 24.55 -29.9 26.25 -32.35 26.25 -34.85 26.25 -36.55 24.5 -38.35 22.7 -38.3 20.25 -38.25 13.75 -36.5 -3.25 -36.3 -4.85 -36.9 -6.3 -37.45 -7.8 -38.6 -8.9 -41 -11.2 -44.35 -10.7 L-45.25 -10.65 Q-47.75 -10.65 -49.5 -12.45 -51.25 -14.25 -51.2 -16.7 -51.15 -23.4 -48.95 -44.9 -48.6 -48.05 -50.8 -50.35 -53 -52.65 -56.2 -52.45 L-56.95 -52.4 -60 -52.85 -63.3 -53.05 Q-64.95 -52.75 -66.25 -51.65 -67.55 -50.65 -68.25 -49.05 -68.9 -47.55 -68.8 -45.85 -68.35 -38.4 -68.35 -34.9 -68.4 -32.45 -70.15 -30.7 -71.9 -28.95 -74.4 -28.95 -76.9 -28.95 -78.6 -30.75 -80.15 -32.3 -82.3 -32.7 -84.4 -33.1 -86.45 -32.2 -88.4 -31.3 -89.45 -29.4 -90.55 -27.5 -90.35 -25.3 -87.2 6.95 -87.3 16.1 -87.3 18 -88.35 19.5 -89.4 21 -91.1 21.65 -93.25 22.5 -94.5 24.5 -95.7 26.5 -95.45 28.85 -93.55 45.55 -93.4 51.35 -93.35 53.85 -95.05 55.65 -96.8 57.4 -99.25 57.45 -101.7 57.5 -103.5 55.85 -105.3 54.1 -105.35 51.6 -105.75 34.85 -97.35 -50.65 -97.15 -52.65 -98.05 -54.4 -98.95 -56.2 -100.65 -57.2 -102.4 -58.2 -104.4 -58.2 -106.4 -58.1 -108.05 -57 -110.75 -55.1 -114.2 -55.1 -118.7 -55.15 -121.8 -58.35 -125 -61.55 -124.95 -66.05 -124.95 -70.15 -123.35 -79.65 L125 -79.65 125 -78.5"/>
  </g>
</svg>