<svg xmlns="http://www.w3.org/2000/svg" xmlns:xlink="http://www.w3.org/1999/xlink">
  <defs/>
  <g>
    <path stroke="none" fill="#FFCC00" d="M37.15 30.5 L32.3 30.35 Q29.85 30.9 27.95 32.55 26.05 34.2 25.15 36.55 24.25 38.9 24.6 41.35 25.45 48.25 25.45 52.2 25.45 56 22.75 58.65 20.1 61.3 16.3 61.3 12.5 61.3 9.85 58.65 7.15 56 7.15 52.2 7.15 41.35 12.05 19.25 12.55 17.05 12 14.85 11.5 12.65 10.05 10.9 8.65 9.15 6.65 8.15 4.6 7.2 2.35 7.2 L-6.15 7.2 Q-8.35 7.2 -10.4 8.15 -12.4 9.15 -13.8 10.85 -15.2 12.55 -15.75 14.75 -16.3 16.9 -15.85 19.1 -13.15 32.6 -13.15 39.45 -13.15 41.45 -14.55 42.85 -16 44.3 -18 44.3 -20 44.3 -21.4 42.85 -22.85 41.45 -22.85 39.45 -22.85 32.85 -20.1 19.1 -19.65 16.9 -20.2 14.75 -20.75 12.55 -22.15 10.85 -25.15 7.2 -29.85 7.2 L-37 7.2 Q-41.1 7.2 -44.05 10.1 -46.95 13.05 -46.95 17.15 L-46.95 36.7 -99.85 -12.3 -46.95 -61.25 -46.95 -41.7 Q-46.95 -37.55 -44.05 -34.65 -41.1 -31.75 -37 -31.75 L99.85 -31.75 99.85 7.2 66.9 7.2 Q62.95 7.2 60.1 9.9 57.2 12.6 56.95 16.5 56.6 22.65 52.1 26.85 47.6 31.1 41.45 31.1 L37.15 30.5"/>
  </g>
</svg>