<svg xmlns="http://www.w3.org/2000/svg" xmlns:xlink="http://www.w3.org/1999/xlink">
  <defs/>
  <g>
    <path stroke="none" fill="#FFCC00" d="M-44 39.85 Q-43.65 37.3 -44.65 34.9 -45.6 32.5 -47.6 30.9 -60.65 20.3 -67.95 5.25 -75.55 -10.35 -75.55 -27.8 -75.55 -43.15 -69.6 -57.2 -63.85 -70.75 -53.4 -81.2 -42.95 -91.65 -29.4 -97.4 -15.35 -103.35 0 -103.35 15.4 -103.35 29.45 -97.4 43 -91.65 53.45 -81.2 63.9 -70.75 69.65 -57.2 75.6 -43.15 75.6 -27.8 75.6 -10.55 68.2 4.85 61.05 19.75 48.25 30.35 45.95 32.3 45.1 35.2 44.25 38.05 45.1 40.95 50.25 57.4 50.25 65.45 50.25 70.35 46.8 73.85 43.3 77.3 38.4 77.3 34.5 77.3 31.35 75 28.9 73.15 25.9 73.05 22.85 72.9 20.25 74.5 17.65 76.1 16.4 78.85 15.15 81.6 15.65 84.6 16.35 88.65 16.35 91.55 16.35 96.45 12.9 99.95 9.4 103.4 4.5 103.4 -0.4 103.4 -3.85 99.95 -7.35 96.45 -7.35 91.55 -7.35 82.15 -0.05 60.35 1.45 55.9 -1.1 51.85 -2.3 49.95 -4.2 48.8 -6.15 47.6 -8.4 47.35 -16.4 46.5 -24.35 43.75 L-29.7 43.5 Q-32.4 44.1 -34.4 45.95 -36.4 47.85 -37.15 50.55 -37.9 53.25 -37.15 55.9 -32.9 70.7 -32.2 78.55 -31.9 81.45 -33.75 83.7 -35.6 85.95 -38.5 86.25 -41.4 86.55 -43.7 84.7 -45.95 82.85 -46.25 79.9 -47.4 67.85 -44 39.85 M11.5 -69.6 Q11.95 -73.8 9.1 -77.05 6.25 -80.3 2 -80.45 L0 -80.5 Q-21.8 -80.5 -37.25 -65.05 -52.7 -49.6 -52.7 -27.8 -52.7 -6 -37.25 9.45 -21.8 24.9 0 24.9 21.85 24.9 37.25 9.45 52.7 -5.95 52.7 -27.8 52.7 -36.3 50.05 -44.3 47.5 -52.05 42.7 -58.7 41.05 -61 38.45 -62.05 35.85 -63.1 33.05 -62.65 30.3 -62.2 28.15 -60.35 26 -58.5 25.15 -55.85 24.6 -54.1 23.3 -52.8 21.9 -51.5 20.05 -51.05 17.2 -50.4 14.7 -51.95 12.25 -53.5 11.55 -56.35 10.7 -60.1 11.5 -69.6"/>
  </g>
</svg>