<svg width="64" height="64" xmlns="http://www.w3.org/2000/svg" xmlns:xlink="http://www.w3.org/1999/xlink">
  <defs/>
  <g>
    <path stroke="none" fill="#EC2037" d="M43 0 L64 0 64 64 43 64 43 0"/>
    <path stroke="none" fill="#FCC920" d="M43 0 L43 64 21 64 21 0 43 0"/>
    <path stroke="none" fill="#392D8C" d="M21 64 L0 64 0 0 21 0 21 64"/>
    <path stroke="none" fill="#C4863B" d="M37.7 38.75 Q35.3 41 32 41 28.7 41 26.35 38.75 24 36.45 24 33.2 L24 26.55 Q24 25.9 24.5 25.45 24.9 25 25.6 25 L38.4 25 Q39.1 25 39.55 25.45 L40 26.55 40 33.2 Q40 36.45 37.7 38.75"/>
  </g>
</svg>