<svg width="64" height="64" xmlns="http://www.w3.org/2000/svg" xmlns:xlink="http://www.w3.org/1999/xlink">
  <defs/>
  <g>
    <path stroke="none" fill="#259F6C" d="M43 0 L64 0 64 64 43 64 43 0"/>
    <path stroke="none" fill="#25252A" d="M21 64 L0 64 0 0 21 0 21 64"/>
    <path stroke="none" fill="#EC2037" d="M21 64 L21 0 43 0 43 64 21 64"/>
    <path stroke="none" fill="#EEEEF7" d="M40 32 Q40 35.35 37.65 37.65 35.35 40 32 40 28.7 40 26.35 37.65 24 35.35 24 32 24 28.7 26.35 26.35 28.7 24 32 24 35.35 24 37.65 26.35 40 28.7 40 32 M32 26 Q29.55 26 27.8 27.8 26 29.55 26 32 26 34.5 27.75 36.25 L27.8 36.25 Q29.55 38 32 38 34.5 38 36.25 36.25 38 34.5 38 32 38 29.55 36.25 27.8 L36.25 27.75 Q34.5 26 32 26 M32 28 Q33.55 28 34.65 29 L34.85 29.2 Q36 30.35 36 32 36 33.65 34.85 34.8 L34.8 34.85 Q33.65 36 32 36 30.35 36 29.2 34.85 L29 34.65 Q28 33.55 28 32 28 30.35 29.2 29.2 30.35 28 32 28"/>
  </g>
</svg>