<svg width="64" height="64" xmlns="http://www.w3.org/2000/svg" xmlns:xlink="http://www.w3.org/1999/xlink">
  <defs/>
  <g>
    <path stroke="none" fill="#EC2037" d="M43.5 41 L51.5 25 64 0 64 64 32 64 43.5 41 M12.5 25 L20.5 41 32 64 0 64 0 0 12.5 25"/>
    <path stroke="none" fill="#25252A" d="M12.5 25 L0 0 64 0 51.5 25 12.5 25"/>
    <path stroke="none" fill="#EEEEF7" d="M43.5 41 L32 64 20.5 41 43.5 41"/>
    <path stroke="none" fill="#FCC920" d="M35.1 34.15 Q33.8 38 32 38 30.25 38 28.95 34.15 L28.6 33.1 27.65 33.65 Q24.05 35.45 22.75 34.25 21.55 32.95 23.35 29.35 23.55 28.9 23.9 28.4 L22.85 28.05 Q19 26.8 19 25 19 23.2 22.85 21.95 L23.8 21.6 23.3 20.7 Q21.45 17.05 22.75 15.85 24.05 14.55 27.65 16.35 L28.6 16.9 28.95 15.85 Q30.25 12 32 12 33.8 12 35.1 15.85 L35.45 16.8 36.3 16.35 Q39.95 14.55 41.15 15.85 42.45 17.15 40.65 20.7 L40.2 21.6 41.25 21.95 Q45 23.2 45 25 45 26.8 41.25 28.05 L40.1 28.4 40.65 29.35 Q42.4 32.95 41.15 34.15 39.85 35.45 36.3 33.65 L35.4 33.2 35.1 34.15"/>
    <path stroke="none" fill="#3439CB" d="M51.5 25 L43.5 41 20.5 41 12.5 25 51.5 25"/>
  </g>
</svg>