<svg width="64" height="64" xmlns="http://www.w3.org/2000/svg" xmlns:xlink="http://www.w3.org/1999/xlink">
  <defs/>
  <g>
    <path stroke="none" fill="#3439CB" d="M0 64 L0 0 64 0 64 64 0 64"/>
    <path stroke="none" fill="#EEEEF7" d="M32 5.45 L26.4 11 32 11 32 13 20 13 19.3 12.7 Q19 12.4 19 12 L19 0 21 0 21 5.6 26.6 0 29.45 0 21 8.4 21 11 23.6 11 32 2.6 32 5.45 M32 19 L32 21 26.4 21 32 26.6 32 29.45 23.6 21 21 21 21 23.6 29.45 32 26.6 32 21 26.4 21 32 19 32 19 20 Q19 19.6 19.3 19.3 19.6 19 20 19 L32 19 M13 32 L11 32 11 26.4 5.45 32 2.6 32 11 23.6 11 21 8.4 21 0 29.45 0 26.6 5.6 21 0 21 0 19 12 19 Q12.4 19 12.7 19.3 L13 20 13 32 M0 13 L0 11 5.6 11 0 5.45 0 2.6 8.4 11 11 11 11 8.4 2.6 0 5.45 0 11 5.6 11 0 13 0 13 12 12.7 12.7 12 13 0 13"/>
    <path stroke="none" fill="#EC2037" d="M0 13 L12 13 12.7 12.7 13 12 13 0 19 0 19 12 Q19 12.4 19.3 12.7 L20 13 32 13 32 19 20 19 Q19.6 19 19.3 19.3 19 19.6 19 20 L19 32 13 32 13 20 12.7 19.3 Q12.4 19 12 19 L0 19 0 13 M32 29.45 L32 32 29.45 32 21 23.6 21 21 23.6 21 32 29.45 M2.6 32 L0 32 0 29.45 8.4 21 11 21 11 23.6 2.6 32 M0 2.6 L0 0 2.6 0 11 8.4 11 11 8.4 11 0 2.6 M29.45 0 L32 0 32 2.6 23.6 11 21 11 21 8.4 29.45 0"/>
    <path stroke="none" fill="#3439CB" d="M32 5.45 L32 11 26.4 11 32 5.45 M32 21 L32 26.6 26.4 21 32 21 M26.6 32 L21 32 21 26.4 26.6 32 M11 32 L5.45 32 11 26.4 11 32 M0 26.6 L0 21 5.6 21 0 26.6 M0 11 L0 5.45 5.6 11 0 11 M5.45 0 L11 0 11 5.6 5.45 0 M21 0 L26.6 0 21 5.6 21 0"/>
    <path stroke="none" fill="#EEEEF7" d="M38.9 32 Q38.1 28.8 38.05 24.6 38.05 23.5 38.75 22.8 39.5 22.05 40.55 22.05 L55.55 22.05 Q56.6 22.05 57.35 22.8 58.05 23.5 58.05 24.6 58 28.8 57.2 32 L38.9 32"/>
    <path stroke="none" fill="#5193EE" d="M38.9 32 L57.2 32 Q55.25 39.6 49 41.9 48.05 42.25 47.1 41.9 40.8 39.6 38.9 32"/>
  </g>
</svg>