<svg width="64" height="64" xmlns="http://www.w3.org/2000/svg" xmlns:xlink="http://www.w3.org/1999/xlink">
  <defs/>
  <g>
    <path stroke="none" fill="#EC2037" d="M0 64 L0 0 64 0 64 64 0 64"/>
    <path stroke="none" fill="#25252A" d="M49.2 23.15 Q47.75 26.25 43.6 26.5 L43.6 26.55 Q45.15 29.25 48.6 28.95 L49.2 29.1 49.65 29.55 49.8 30.15 Q49.3 35.65 46.45 36.95 L46.35 37 Q43.1 38.45 36.85 34.65 L36.85 34.7 Q37.25 37.85 41.95 39.8 L46.15 39.65 46.7 40.05 46.9 40.7 46.6 41.35 Q45.9 42.1 45.35 43.35 L44.85 43.8 44.2 43.95 43.6 43.7 Q42 42.4 40.6 42.05 L40.55 42 Q35.95 40.85 33.6 37.6 33.55 41.7 37.6 43.4 L38.2 43.95 38.2 44.75 Q36.2 50.05 32.5 51.85 L32 52 31.45 51.85 Q27.8 50.05 25.75 44.75 25.6 44.35 25.8 43.95 25.95 43.55 26.35 43.4 30.45 41.7 30.35 37.6 28.05 40.85 23.45 42 L23.4 42 23.4 42.05 Q21.95 42.4 20.4 43.7 L19.8 43.95 19.15 43.8 18.65 43.35 17.4 41.35 17.1 40.7 17.3 40.05 Q17.5 39.75 17.85 39.65 L22.05 39.8 Q26.75 37.85 27.15 34.7 L27.15 34.65 Q20.9 38.45 17.65 37 L17.55 36.95 Q14.7 35.65 14.2 30.15 14.2 29.8 14.35 29.55 14.5 29.25 14.8 29.1 L15.4 28.95 Q18.85 29.25 20.4 26.55 L20.4 26.5 Q16.25 26.25 14.8 23.15 L14.75 23.1 Q13.55 20.55 14.25 16 14.3 15.6 14.6 15.35 14.85 15.1 15.25 15.05 L16 15.25 Q19.35 17.55 24.9 18.55 L25.5 18.85 25.8 19.35 Q26.2 21 27.9 21.3 28.9 18 25.95 16.85 L25.85 16.8 22.6 15.5 22.05 15.05 21.9 14.35 22.2 13.75 Q24.65 11.45 27.8 12.15 L28.35 12.5 Q28.6 12.7 28.65 13.05 29.35 17.05 32 19.05 34.65 17.05 35.35 13.05 L35.65 12.5 36.2 12.15 Q39.35 11.45 41.8 13.75 L42.1 14.35 41.95 15.05 41.4 15.5 38.15 16.8 38.05 16.85 Q35.05 18 36.05 21.3 L36.1 21.3 Q37.75 21 38.2 19.35 L38.5 18.85 Q38.75 18.6 39.05 18.55 44.65 17.55 48 15.25 L48.7 15.05 Q49.1 15.1 49.4 15.35 L49.75 16 Q50.4 20.55 49.2 23.1 L49.2 23.15"/>
  </g>
</svg>