<svg width="64" height="64" xmlns="http://www.w3.org/2000/svg" xmlns:xlink="http://www.w3.org/1999/xlink">
  <defs/>
  <g>
    <path stroke="none" fill="#EC2037" d="M0 32 L0 0 64 0 64 32 0 32"/>
    <path stroke="none" fill="#25252A" d="M0 32 L64 32 64 64 0 64 0 32"/>
    <path stroke="none" fill="#FCC920" d="M24.7 16.4 L26.35 19.2 29.35 19.95 29.85 20.25 30 20.85 29.8 21.35 27.8 23.85 28 27.05 27.9 27.65 27.45 27.95 26.9 27.95 24 26.7 21.1 27.95 20.6 27.95 20.15 27.65 20 27.05 20.2 23.85 18.2 21.35 18 20.85 18.2 20.25 Q18.35 20 18.65 19.95 L21.65 19.2 23.3 16.4 23.75 16.05 24.25 16.05 24.7 16.4"/>
    <path stroke="none" fill="#FCC920" d="M37.25 23.4 L36.85 23.25 Q35.75 22.65 34.6 22.3 L32.95 22.05 Q32.55 22 32.3 21.75 32 21.45 32 21.05 L32 13.05 Q32 12.75 32.15 12.55 L32.55 12.15 33.05 12.05 36.1 12.4 36.6 12.7 36.85 13.05 36.9 13.75 35.6 18.45 Q37.45 18.9 39.05 19.9 L41.55 15.55 42 15.15 42.6 15.1 43 15.25 Q44.65 16.35 46.15 17.85 L46.2 17.9 Q47.7 19.35 48.8 21.1 L48.95 21.65 48.65 22.35 48.45 22.55 48.4 22.55 44.2 25 Q45.1 26.6 45.6 28.4 L50.2 27.2 50.4 27.15 50.6 27.1 50.65 27.1 Q51.05 27.1 51.35 27.4 L51.65 28.05 51.65 28.1 51.65 28.15 51.35 28.85 50.8 29.1 50.7 29.15 50.8 29.15 51.3 28.9 51.65 28.35 51.7 28.25 52 32 Q52 34.1 51.65 36 L51.4 36.55 50.85 36.9 50.25 36.85 45.6 35.6 Q45.1 37.4 44.2 39.05 L48.45 41.55 48.85 41.9 48.95 42.4 48.95 42.45 48.8 43 46.15 46.15 43.05 48.75 42.4 49 41.7 48.7 41.55 48.45 39.05 44.2 Q37.45 45.1 35.7 45.55 L35.65 45.6 36.9 50.25 36.95 50.85 36.6 51.4 36.05 51.65 32 52 28.4 51.7 27.9 51.8 27.35 51.5 27.05 50.9 27.05 50.75 27.1 50.15 27.2 50 28.35 45.6 28.35 45.55 Q26.55 45.1 25 44.2 L22.6 48.4 22.55 48.45 22.1 48.9 21.5 49 21.1 48.8 18.6 46.85 18.35 46.4 Q18.25 46.15 18.3 45.9 L18.6 45.45 24.25 39.75 Q24.5 39.45 24.9 39.45 L25.6 39.7 27 40.7 27.05 40.7 27 40.7 27.25 40.8 29.25 41.7 29.4 41.7 32 42 34.6 41.7 36.95 40.8 37.05 40.7 38.85 39.3 39.1 39.15 39.3 38.85 40.7 37.05 41.7 34.75 41.75 34.5 42 32 41.7 29.45 40.7 27 40.75 27.05 40.6 26.8 39.1 25 39.1 24.95 Q38.2 24 37.25 23.4 L37.15 23.35 37.2 23.35 37.25 23.4"/>
  </g>
</svg>