<svg width="64" height="64" xmlns="http://www.w3.org/2000/svg" xmlns:xlink="http://www.w3.org/1999/xlink">
  <defs/>
  <g>
    <path stroke="none" fill="#392D8C" d="M0 32 L0 0 64 0 64 32 48.05 32 45.25 27.85 45.2 27.8 37.65 16.5 37.6 16.45 33.7 10.55 Q33.3 9.95 32.65 9.75 32 9.5 31.35 9.75 30.7 9.95 30.35 10.55 L25.6 17.6 25.55 17.65 18 28.95 17.95 29 15.95 32 0 32"/>
    <path stroke="none" fill="#EEEEF7" d="M0 32 L15.95 32 17.95 29 18 28.95 25.55 17.65 25.6 17.6 30.35 10.55 Q30.7 9.95 31.35 9.75 32 9.5 32.65 9.75 33.3 9.95 33.7 10.55 L37.6 16.45 37.65 16.5 45.2 27.8 45.25 27.85 48.05 32 64 32 64 64 0 64 0 32"/>
    <path stroke="none" fill="#392D8C" d="M23.25 34.5 L32 38.9 40.8 34.5 42.75 34.25 Q43.75 34.45 44.4 35.2 45.1 35.95 45.15 37 45.2 38 44.65 38.85 L34.5 54.05 Q33.9 54.9 32.95 55.25 32 55.55 31.05 55.25 30.05 54.9 29.5 54.05 L19.4 38.85 Q18.8 38 18.9 37 18.95 35.95 19.65 35.2 20.3 34.45 21.3 34.25 L23.25 34.5"/>
  </g>
</svg>