<svg width="64" height="64" xmlns="http://www.w3.org/2000/svg" xmlns:xlink="http://www.w3.org/1999/xlink">
  <defs/>
  <g>
    <path stroke="none" fill="#5193EE" d="M64 47 L64 64 0 64 0 47 64 47 M0 17 L0 0 64 0 64 17 0 17"/>
    <path stroke="none" fill="#EEEEF7" d="M0 17 L64 17 64 47 0 47 0 17"/>
    <path stroke="none" fill="#C4863B" d="M34.4 39.05 Q33.4 42 32 42 30.65 42 29.65 39.05 L29.4 38.25 28.65 38.65 Q25.9 40.05 24.9 39.1 23.95 38.1 25.35 35.35 L25.75 34.6 24.95 34.35 Q22 33.4 22 32 22 30.6 24.95 29.65 L25.7 29.4 25.3 28.7 Q23.9 25.9 24.9 24.95 25.9 23.95 28.65 25.35 L29.4 25.75 29.65 24.95 Q30.65 22 32 22 33.4 22 34.4 24.95 L34.65 25.7 35.3 25.35 Q38.1 23.95 39.05 24.95 40.05 25.95 38.65 28.7 L38.3 29.4 39.1 29.65 Q42 30.6 42 32 42 33.4 39.1 34.35 L38.25 34.6 38.65 35.35 Q40 38.1 39.05 39.05 38.05 40.05 35.3 38.65 L34.6 38.3 34.4 39.05"/>
  </g>
</svg>