<svg width="64" height="64" xmlns="http://www.w3.org/2000/svg" xmlns:xlink="http://www.w3.org/1999/xlink">
  <defs/>
  <g>
    <path stroke="none" fill="#FCC920" d="M13.05 1.45 L-1.35 1.45 -1.95 1.25 -2.2 0.65 -2.2 -0.6 -1.95 -1.2 -1.35 -1.45 13.05 -1.45 13.65 -1.2 13.9 -0.6 13.9 0.65 13.65 1.25 13.05 1.45"/>
    <path stroke="none" fill="#FCC920" d="M-2.9 -3 L-1.75 -3 Q-1.25 -3 -0.9 -2.6 L-0.5 -1.7 -0.5 1.75 Q-0.5 2.25 -0.9 2.6 -1.25 3 -1.75 3 L-2.9 3 Q-3.4 3 -3.8 2.6 L-4.15 1.75 -4.15 -1.7 Q-4.15 -2.2 -3.8 -2.6 -3.4 -3 -2.9 -3"/>
    <path stroke="none" fill="#FCC920" d="M3.1 -3 L4.55 -3 Q5.6 -3 6.35 -2.6 7.2 -2.2 7.2 -1.7 L7.2 1.75 Q7.2 2.25 6.35 2.6 5.6 3 4.55 3 L3.1 3 Q2.6 3 2.2 2.6 1.85 2.25 1.85 1.75 L1.85 -1.7 Q1.85 -2.2 2.2 -2.6 2.6 -3 3.1 -3"/>
    <path stroke="none" fill="#FCC920" d="M-3.6 -0.7 L-3.15 -0.3 -3.2 0.3 -3.6 0.75 Q-5.3 1.7 -6.1 3.35 L-6.4 3.7 -6.95 3.8 -7.4 3.6 Q-9.85 1.65 -13.25 0.85 L-13.7 0.55 -13.9 0 -13.7 -0.5 -13.25 -0.8 Q-9.85 -1.7 -7.4 -3.6 L-6.95 -3.8 -6.4 -3.7 -6.1 -3.35 Q-5.3 -1.7 -3.6 -0.7"/>
  </g>
</svg>