<svg width="64" height="64" xmlns="http://www.w3.org/2000/svg" xmlns:xlink="http://www.w3.org/1999/xlink">
  <defs/>
  <g>
    <path stroke="none" fill="#3439CB" d="M0 64 L0 0 64 0 64 64 0 64"/>
    <path stroke="none" fill="#EEEEF7" d="M48.65 32.05 Q48.05 33.2 47.2 33.2 46.4 33.2 45.8 32.05 L45.4 31 44.4 30.65 Q43.2 30.05 43.2 29.2 43.2 28.35 44.4 27.75 L45.45 27.4 45.8 26.35 Q46.4 25.2 47.2 25.2 48.05 25.2 48.65 26.35 L49 27.4 50.05 27.75 Q51.2 28.35 51.2 29.2 51.2 30.05 50.05 30.65 L49 31 48.65 32.05 M56.65 40.05 Q56.05 41.2 55.2 41.2 54.4 41.2 53.8 40.05 L53.4 39 52.4 38.65 Q51.2 38.05 51.2 37.2 51.2 36.35 52.4 35.75 L53.45 35.4 53.8 34.35 Q54.4 33.2 55.2 33.2 56.05 33.2 56.65 34.35 L57 35.4 58.05 35.75 Q59.2 36.35 59.2 37.2 59.2 38.05 58.05 38.65 L57 39 56.65 40.05 M51.3 46.15 Q50.85 47 50.2 47 49.6 47 49.15 46.15 L48.85 45.35 48.1 45.1 Q47.2 44.65 47.2 44 47.2 43.35 48.1 42.9 L48.9 42.65 49.15 41.85 Q49.6 41 50.2 41 50.85 41 51.3 41.85 L51.55 42.65 52.35 42.9 Q53.2 43.35 53.2 44 53.2 44.65 52.35 45.1 L51.55 45.35 51.3 46.15 M40.65 40.05 Q40.05 41.2 39.2 41.2 38.4 41.2 37.8 40.05 L37.4 39 36.4 38.65 Q35.2 38.05 35.2 37.2 35.2 36.35 36.4 35.75 L37.45 35.4 37.8 34.35 Q38.4 33.2 39.2 33.2 40.05 33.2 40.65 34.35 L41 35.4 42.05 35.75 Q43.2 36.35 43.2 37.2 43.2 38.05 42.05 38.65 L41 39 40.65 40.05 M48.65 58.05 Q48.05 59.2 47.2 59.2 46.4 59.2 45.8 58.05 L45.4 57 44.4 56.65 Q43.2 56.05 43.2 55.2 43.2 54.35 44.4 53.75 L45.45 53.4 45.8 52.35 Q46.4 51.2 47.2 51.2 48.05 51.2 48.65 52.35 L49 53.4 50.05 53.75 Q51.2 54.35 51.2 55.2 51.2 56.05 50.05 56.65 L49 57 48.65 58.05"/>
    <path stroke="none" fill="#EEEEF7" d="M32 5.45 L26.4 11 32 11 32 13 20 13 19.3 12.7 Q19 12.4 19 12 L19 0 21 0 21 5.6 26.6 0 29.45 0 21 8.4 21 11 23.6 11 32 2.6 32 5.45 M32 19 L32 21 26.4 21 32 26.6 32 29.45 23.6 21 21 21 21 23.6 29.45 32 26.6 32 21 26.4 21 32 19 32 19 20 Q19 19.6 19.3 19.3 19.6 19 20 19 L32 19 M13 32 L11 32 11 26.4 5.45 32 2.6 32 11 23.6 11 21 8.4 21 0 29.45 0 26.6 5.6 21 0 21 0 19 12 19 Q12.4 19 12.7 19.3 L13 20 13 32 M0 13 L0 11 5.6 11 0 5.45 0 2.6 8.4 11 11 11 11 8.4 2.6 0 5.45 0 11 5.6 11 0 13 0 13 12 12.7 12.7 12 13 0 13"/>
    <path stroke="none" fill="#EC2037" d="M0 13 L12 13 12.7 12.7 13 12 13 0 19 0 19 12 Q19 12.4 19.3 12.7 L20 13 32 13 32 19 20 19 Q19.6 19 19.3 19.3 19 19.6 19 20 L19 32 13 32 13 20 12.7 19.3 Q12.4 19 12 19 L0 19 0 13 M32 29.45 L32 32 29.45 32 21 23.6 21 21 23.6 21 32 29.45 M2.6 32 L0 32 0 29.45 8.4 21 11 21 11 23.6 2.6 32 M0 2.6 L0 0 2.6 0 11 8.4 11 11 8.4 11 0 2.6 M29.45 0 L32 0 32 2.6 23.6 11 21 11 21 8.4 29.45 0"/>
    <path stroke="none" fill="#3439CB" d="M32 5.45 L32 11 26.4 11 32 5.45 M32 21 L32 26.6 26.4 21 32 21 M26.6 32 L21 32 21 26.4 26.6 32 M11 32 L5.45 32 11 26.4 11 32 M0 26.6 L0 21 5.6 21 0 26.6 M0 11 L0 5.45 5.6 11 0 11 M5.45 0 L11 0 11 5.6 5.45 0 M21 0 L26.6 0 21 5.6 21 0"/>
    <path stroke="none" fill="#EEEEF7" d="M19.1 53.9 Q17.9 56.2 16.2 56.2 14.6 56.2 13.4 53.9 L12.6 51.8 10.6 51.1 Q8.2 49.9 8.2 48.2 8.2 46.5 10.6 45.3 11.6 44.9 12.7 44.6 L13.4 42.5 Q14.6 40.2 16.2 40.2 17.9 40.2 19.1 42.5 L19.8 44.6 21.9 45.3 Q24.2 46.5 24.2 48.2 24.2 49.9 21.9 51.1 L19.8 51.8 19.1 53.9"/>
  </g>
</svg>