<svg width="64" height="64" xmlns="http://www.w3.org/2000/svg" xmlns:xlink="http://www.w3.org/1999/xlink">
  <defs/>
  <g>
    <path stroke="none" fill="#5193EE" d="M0 0 L64 0 64 64 0 64 0 0"/>
    <path stroke="none" fill="#FCC920" d="M0 48 L64 48 64 56 0 56 0 48"/>
    <path stroke="none" fill="#FCC920" d="M0 32 L64 32 64 40 0 40 0 32"/>
    <path stroke="none" fill="#EC2037" d="M11.5 12.5 L13.7 8.1 Q14.05 7.4 14.8 7.15 15.5 6.85 16.25 7.15 16.95 7.4 17.3 8.1 L19.5 12.5 23.9 14.7 Q24.6 15.05 24.9 15.8 25.15 16.5 24.9 17.25 24.6 17.95 23.9 18.3 L19.5 20.5 17.3 24.9 16.25 25.9 Q15.5 26.15 14.8 25.9 14.05 25.6 13.7 24.9 L11.5 20.5 7.1 18.3 Q6.4 17.95 6.15 17.25 5.85 16.5 6.15 15.8 6.4 15.05 7.1 14.7 L11.5 12.5 11.5 12.55 11.55 12.5 11.5 12.5"/>
  </g>
</svg>