<svg width="64" height="64" xmlns="http://www.w3.org/2000/svg" xmlns:xlink="http://www.w3.org/1999/xlink">
  <defs/>
  <g>
    <path stroke="none" fill="#5193EE" d="M0 17 L0 0 64 0 64 17 0 17"/>
    <path stroke="none" fill="#EC2037" d="M0 17 L64 17 64 47 0 47 0 17"/>
    <path stroke="none" fill="#259F6C" d="M64 47 L64 64 0 64 0 47 64 47"/>
    <path stroke="none" fill="#EEEEF7" d="M48 32 Q48 32.6 46.25 33.05 L45.1 33.3 45.8 34.3 Q46.7 35.8 46.25 36.25 45.85 36.65 44.3 35.8 L43.3 35.1 43.05 36.25 Q42.6 38 42 38 41.4 38 40.95 36.25 L40.75 35.15 39.75 35.75 Q38.2 36.7 37.75 36.25 37.35 35.85 38.3 34.3 L38.95 33.3 37.75 33.05 Q36 32.6 36 32 36 31.4 37.75 30.95 L38.9 30.75 38.25 29.75 Q37.4 28.2 37.8 27.8 38.25 27.35 39.75 28.25 L40.75 28.9 40.95 27.75 Q41.4 26 42 26 42.6 26 43.05 27.75 L43.3 28.95 44.3 28.3 Q45.85 27.35 46.25 27.75 46.7 28.2 45.75 29.75 L45.15 30.75 46.25 30.95 Q48 31.4 48 32"/>
    <path stroke="none" fill="#EEEEF7" d="M34.8 23 Q31 23 28.3 25.65 L28.3 25.7 Q25.65 28.3 25.65 32 25.65 35.7 28.3 38.35 31 41 34.8 41 L34.95 41 Q35.25 41 35.55 41.25 L35.9 41.8 35.85 42.45 35.35 42.9 Q33 44 30.2 44 25.2 44 21.55 40.45 18 36.95 18 32 18 27.05 21.55 23.5 25.2 20 30.2 20 33 20 35.4 21.1 L35.9 21.55 35.95 22.25 35.6 22.8 35 23 34.8 23"/>
  </g>
</svg>