<svg width="64" height="64" xmlns="http://www.w3.org/2000/svg" xmlns:xlink="http://www.w3.org/1999/xlink">
  <defs/>
  <g>
    <path stroke="none" fill="#3439CB" d="M0 64 L0 0 64 0 64 64 0 64"/>
    <path stroke="none" fill="#FCC920" d="M50 2 L50 58.2 49.65 59.4 Q49.25 59.9 48.65 60.1 L47.45 60.15 46.45 59.45 2.55 3.25 2.5 3.2 2.5 3.15 0.05 0 48 0 Q48.85 0 49.45 0.6 50 1.15 50 2"/>
    <path stroke="none" fill="#EEEEF7" d="M1.85 20.6 Q1.1 22 0 22 L0 12 Q1.1 12 1.85 13.45 L2.25 14.75 3.6 15.2 Q5 15.95 5 17 5 18.1 3.6 18.85 L2.25 19.25 1.85 20.6 M10.85 32.6 Q10.1 34 9 34 8 34 7.25 32.6 L6.75 31.25 5.5 30.85 Q4 30.1 4 29 4 27.95 5.5 27.2 L6.85 26.75 7.25 25.45 Q8 24 9 24 10.1 24 10.85 25.45 L11.25 26.75 12.6 27.2 Q14 27.95 14 29 14 30.1 12.6 30.85 L11.25 31.25 10.85 32.6 M19.85 44.6 Q19.1 46 18 46 17 46 16.25 44.6 L15.75 43.25 14.5 42.85 Q13 42.1 13 41 13 39.95 14.5 39.2 L15.85 38.75 16.25 37.45 Q17 36 18 36 19.1 36 19.85 37.45 L20.25 38.75 21.6 39.2 Q23 39.95 23 41 23 42.1 21.6 42.85 L20.25 43.25 19.85 44.6 M28.85 56.6 Q28.1 58 27 58 26 58 25.25 56.6 L24.75 55.25 23.5 54.85 Q22 54.1 22 53 22 51.95 23.5 51.2 L24.85 50.75 25.25 49.45 Q26 48 27 48 28.1 48 28.85 49.45 L29.25 50.75 30.6 51.2 Q32 51.95 32 53 32 54.1 30.6 54.85 L29.25 55.25 28.85 56.6 M31 64 Q31 62.95 32.5 62.2 L33.85 61.75 34.25 60.45 Q35 59 36 59 37.1 59 37.85 60.45 L38.25 61.75 39.6 62.2 Q41 62.95 41 64 L31 64"/>
  </g>
</svg>