<svg width="64" height="64" xmlns="http://www.w3.org/2000/svg" xmlns:xlink="http://www.w3.org/1999/xlink">
  <defs/>
  <g>
    <path stroke="none" fill="#3439CB" d="M45 0 L64 0 64 64 45 64 45 0 M19 64 L0 64 0 0 19 0 19 64"/>
    <path stroke="none" fill="#FCC920" d="M19 64 L19 0 45 0 45 64 19 64"/>
    <path stroke="none" fill="#25252A" d="M34.65 28.45 L33.9 28.45 33.9 34.65 35.2 34.85 Q35.65 32.15 36.5 29.5 L36.15 29.25 35.75 28.7 Q35.7 28.4 35.8 28.05 L36.3 27.65 40.75 25.75 41.35 25.7 41.85 26 42 26.55 41.9 27.1 Q38.8 31.35 38.25 37.55 L38.05 38 37.7 38.35 37.25 38.4 33.9 38 33.9 41.1 33.6 41.75 33 42.05 31.05 42.05 30.4 41.75 30.15 41.1 30.15 38 26.85 38.4 26.35 38.35 25.95 38 25.8 37.55 Q25.2 31.35 22.2 27.1 L22 26.55 22.25 26 Q22.45 25.75 22.7 25.7 L23.3 25.75 27.75 27.65 28.2 28.05 28.3 28.7 27.95 29.25 27.55 29.5 Q28.4 32.15 28.85 34.85 L30.15 34.65 30.15 28.45 29.4 28.45 28.8 28.25 28.55 27.7 Q28.45 27.35 28.6 27.05 L31.25 22.5 Q31.35 22.2 31.7 22.05 L32.35 22.05 32.85 22.5 35.45 27.05 35.55 27.7 35.2 28.25 34.65 28.45"/>
  </g>
</svg>