<svg width="64" height="64" xmlns="http://www.w3.org/2000/svg" xmlns:xlink="http://www.w3.org/1999/xlink">
  <defs/>
  <g>
    <path stroke="none" fill="#EC2037" d="M0 32 L0 0 64 0 64 32 0 32"/>
    <path stroke="none" fill="#259F6C" d="M0 32 L64 32 64 64 0 64 0 32"/>
    <path stroke="none" fill="#FCC920" d="M33.1 23.65 L35.5 27.75 40.05 28.95 40.75 29.4 41 30.25 40.75 31.05 37.65 34.75 38.05 39.6 37.85 40.45 37.15 40.95 36.3 40.9 32 39.05 27.7 40.9 26.85 40.95 26.2 40.45 25.95 39.6 26.35 34.75 23.3 31.05 Q23 30.7 23 30.25 23 29.75 23.25 29.4 L23.95 28.95 28.5 27.75 30.95 23.65 Q31.2 23.25 31.6 23.1 32 22.95 32.4 23.1 L33.1 23.65"/>
  </g>
</svg>