<svg width="64" height="64" xmlns="http://www.w3.org/2000/svg" xmlns:xlink="http://www.w3.org/1999/xlink">
  <defs/>
  <g>
    <path stroke="none" fill="#EEEEF7" d="M19.4 0 L24.6 5.2 Q25.75 6.35 25.75 8 25.75 9.65 24.6 10.85 L19.4 16 24.6 21.2 Q25.75 22.35 25.75 24 25.75 25.65 24.6 26.85 L19.4 32 24.6 37.2 Q25.75 38.35 25.75 40 25.75 41.65 24.6 42.85 L19.4 48 24.6 53.2 Q25.75 54.35 25.75 56 25.75 57.65 24.6 58.85 L19.4 64 0 64 0 0 19.4 0"/>
    <path stroke="none" fill="#EC2037" d="M19.4 0 L64 0 64 64 19.4 64 24.6 58.85 Q25.75 57.65 25.75 56 25.75 54.35 24.6 53.2 L19.4 48 24.6 42.85 Q25.75 41.65 25.75 40 25.75 38.35 24.6 37.2 L19.4 32 24.6 26.85 Q25.75 25.65 25.75 24 25.75 22.35 24.6 21.2 L19.4 16 24.6 10.85 Q25.75 9.65 25.75 8 25.75 6.35 24.6 5.2 L19.4 0"/>
  </g>
</svg>