<svg width="64" height="64" xmlns="http://www.w3.org/2000/svg" xmlns:xlink="http://www.w3.org/1999/xlink">
  <defs/>
  <g>
    <path stroke="none" fill="#EEEEF7" d="M56 0 L64 0 64 8 40 32 64 56 64 64 56 64 32 40 8 64 0 64 0 56 24 32 0 8 0 0 8 0 32 24 56 0"/>
    <path stroke="none" fill="#259F6C" d="M64 8 L64 56 40 32 64 8 M0 56 L0 8 24 32 0 56"/>
    <path stroke="none" fill="#EC2037" d="M56 64 L8 64 32 40 56 64 M8 0 L56 0 32 24 8 0"/>
    <path stroke="none" fill="#EEEEF7" d="M50 32 Q50 39.45 44.7 44.75 39.4 50 32 50 24.55 50 19.2 44.75 14 39.45 14 32 14 24.6 19.2 19.25 24.55 14 32 14 39.4 14 44.7 19.25 50 24.6 50 32"/>
    <path stroke="none" fill="#EC2037" d="M33.85 28.55 Q33.1 30 32 30 31 30 30.25 28.55 L29.75 27.25 28.5 26.8 Q27 26.05 27 25 27 23.95 28.5 23.2 L29.85 22.75 30.25 21.45 Q31 20 32 20 33.1 20 33.85 21.45 L34.25 22.75 35.6 23.2 Q37 23.95 37 25 37 26.05 35.6 26.8 L34.25 27.25 33.85 28.55 M41.85 40.55 Q41.1 42 40 42 39 42 38.25 40.55 L37.75 39.25 36.5 38.8 Q35 38.05 35 37 35 35.95 36.5 35.2 L37.85 34.75 38.25 33.45 Q39 32 40 32 41.1 32 41.85 33.45 L42.25 34.75 43.6 35.2 Q45 35.95 45 37 45 38.05 43.6 38.8 L42.25 39.25 41.85 40.55 M25.85 40.55 Q25.1 42 24 42 23 42 22.25 40.55 L21.75 39.25 20.5 38.8 Q19 38.05 19 37 19 35.95 20.5 35.2 L21.85 34.75 22.25 33.45 Q23 32 24 32 25.1 32 25.85 33.45 L26.25 34.75 27.6 35.2 Q29 35.95 29 37 29 38.05 27.6 38.8 L26.25 39.25 25.85 40.55"/>
  </g>
</svg>