<svg width="64" height="64" xmlns="http://www.w3.org/2000/svg" xmlns:xlink="http://www.w3.org/1999/xlink">
  <defs/>
  <g>
    <path stroke="none" fill="#FCC920" d="M64 64 L0 64 0 43 64 64 M0 0 L64 0 64 21 0 0"/>
    <path stroke="none" fill="#EEEEF7" d="M0 0 L64 21 64 42 0 21 0 0"/>
    <path stroke="none" fill="#25252A" d="M64 42 L64 64 0 43 0 21 64 42"/>
    <path stroke="none" fill="#EC2037" d="M39.1 36.45 Q42 33.5 42 29.35 L41.8 27.25 41.9 26.55 42.4 26.1 Q42.7 25.95 43.05 26.1 L43.6 26.45 Q46 29.9 46 34.35 46 40.15 41.9 44.25 37.8 48.35 32 48.35 26.2 48.35 22.1 44.25 18 40.15 18 34.35 18 29.9 20.4 26.45 20.6 26.15 20.95 26.1 21.3 25.95 21.65 26.1 L22.1 26.55 22.2 27.25 22 29.35 Q22 33.5 24.95 36.45 27.85 39.35 32 39.35 36.15 39.35 39.1 36.45 L39.1 36.5 39.15 36.45 39.1 36.45"/>
    <path stroke="none" fill="#EC2037" d="M34 34.1 Q34 34.85 33.4 35.45 32.8 36 32 36 31.2 36 30.6 35.45 30 34.85 30 34.1 L30 23.95 Q30 23.2 30.6 22.6 31.2 22 32 22 32.8 22 33.4 22.6 34 23.2 34 23.95 L34 34.1"/>
    <path stroke="none" fill="#EC2037" d="M43.5 19.9 L40.05 23.25 Q39.55 23.7 38.85 23.7 L36.15 23.7 33.25 26.55 Q32.7 27 32 27 31.25 27 30.75 26.55 L27.8 23.7 25.1 23.7 Q24.4 23.7 23.95 23.25 L20.5 19.9 Q20 19.4 20 18.65 20 17.95 20.5 17.5 20.95 17 21.7 17 L28.55 17 Q29.3 17 29.8 17.5 L32 19.65 34.2 17.5 Q34.65 17 35.4 17 L42.25 17 Q43 17 43.5 17.5 44 17.95 44 18.65 44 19.4 43.5 19.9"/>
  </g>
</svg>