<svg width="64" height="64" xmlns="http://www.w3.org/2000/svg" xmlns:xlink="http://www.w3.org/1999/xlink">
  <defs/>
  <g>
    <path stroke="none" fill="#EC2037" d="M64 19 L0 19 0 0 64 0 64 19"/>
    <path stroke="none" fill="#FCC920" d="M64 19 L64 45 0 45 0 19 64 19"/>
    <path stroke="none" fill="#259F6C" d="M0 45 L64 45 64 64 0 64 0 45"/>
    <path stroke="none" fill="#EC2037" d="M45 28.5 L45 33.05 Q44.65 41.45 37.85 42.95 L36.95 42.9 Q36.5 42.75 36.25 42.35 L36 41.5 36 31.5 36.2 30.7 36.8 30.15 42.8 27.15 43.85 27.05 Q44.3 27.15 44.65 27.55 L45 28.5"/>
    <path stroke="none" fill="#EC2037" d="M19 28.5 Q19 28 19.35 27.55 19.7 27.15 20.15 27.05 L21.2 27.15 27.2 30.15 27.8 30.7 27.95 31.05 28 31.05 28 41.5 27.75 42.35 Q27.5 42.75 27.05 42.9 L26.15 42.95 Q19.35 41.45 19.05 33.05 L19 33.05 19 28.5"/>
    <path stroke="none" fill="#5193EE" d="M34.85 34.4 Q34.65 33.4 34.1 32.6 33.25 31.2 32 31.2 30.75 31.2 29.85 32.6 L29.15 34.4 Q29 35.15 29 36 29 38 29.85 39.4 30.75 40.8 32 40.8 33.25 40.8 34.1 39.4 35 38 35 36 L34.85 34.4 M26.25 33.7 Q26.55 32.1 27.35 30.85 L27.4 30.8 Q29.3 27.85 32 28 34.75 27.85 36.6 30.85 L36.6 30.8 Q37.4 32.1 37.8 33.7 L37.8 33.65 38 36 Q38 39.1 36.6 41.2 L36.6 41.15 Q34.75 44.15 32 44 29.3 44.15 27.4 41.2 L27.35 41.15 Q26 39.05 26 36 26 34.8 26.25 33.7"/>
    <path stroke="none" fill="#EEEEF7" d="M29.15 34.4 L29.85 32.6 Q30.75 31.2 32 31.2 33.25 31.2 34.1 32.6 34.65 33.4 34.85 34.4 L29.15 34.4"/>
    <path stroke="none" fill="#259F6C" d="M34.85 34.4 L35 36 Q35 38 34.1 39.4 33.25 40.8 32 40.8 30.75 40.8 29.85 39.4 29 38 29 36 29 35.15 29.15 34.4 L34.85 34.4"/>
    <path stroke="none" fill="#25252A" d="M43.5 23.9 L40.05 27.25 Q39.55 27.7 38.85 27.7 L36.15 27.7 33.25 30.55 Q32.7 31 32 31 31.25 31 30.75 30.55 L27.8 27.7 25.1 27.7 Q24.4 27.7 23.95 27.25 L20.5 23.9 Q20 23.4 20 22.65 20 21.95 20.5 21.5 20.95 21 21.7 21 L28.55 21 Q29.3 21 29.8 21.5 L32 23.65 34.2 21.5 Q34.65 21 35.4 21 L42.25 21 Q43 21 43.5 21.5 44 21.95 44 22.65 44 23.4 43.5 23.9"/>
  </g>
</svg>