<svg width="64" height="64" xmlns="http://www.w3.org/2000/svg" xmlns:xlink="http://www.w3.org/1999/xlink">
  <defs/>
  <g>
    <path stroke="none" fill="#259F6C" d="M0 64 L0 0 64 0 64 64 0 64"/>
    <path stroke="none" fill="#FCC920" d="M6.8 28.7 L29.7 12.7 Q30.75 11.95 32.05 11.95 33.35 11.95 34.4 12.7 L57.3 28.7 Q58.35 29.45 58.8 30.7 59.25 31.95 58.8 33.2 58.35 34.45 57.3 35.25 L34.4 51.25 Q33.35 52 32.05 52 30.75 52 29.7 51.25 L6.8 35.25 Q5.7 34.45 5.25 33.2 4.85 31.95 5.25 30.7 5.7 29.45 6.8 28.7"/>
    <path stroke="none" fill="#392D8C" d="M43 32 Q43 36.55 39.75 39.75 36.5 43 32 43 27.45 43 24.2 39.75 21 36.55 21 32 21 27.5 24.2 24.25 27.45 21 32 21 36.5 21 39.75 24.25 43 27.5 43 32"/>
    <path stroke="none" fill="#EEEEF7" d="M25.3 27 Q33.8 27 39.75 32.65 L39.8 32.65 Q41.3 34.05 42.45 35.6 41.7 37.65 40.15 39.35 39 37.15 37 35.35 L37 35.3 Q32.2 30.75 25.3 30.75 L21.05 31.25 Q21.15 29.1 22.1 27.25 L25.3 27"/>
  </g>
</svg>