<svg width="64" height="64" xmlns="http://www.w3.org/2000/svg" xmlns:xlink="http://www.w3.org/1999/xlink">
  <defs/>
  <g>
    <path stroke="none" fill="#FCC920" d="M64 0 L0 64 0 0 64 0"/>
    <path stroke="none" fill="#F36925" d="M64 0 L64 64 0 64 64 0"/>
    <path stroke="none" fill="#F7F7FB" d="M47.6 40.15 Q47.6 41.95 46.35 43.2 45.1 44.45 43.3 44.45 41.5 44.45 40.25 43.2 39.7 42.65 39.4 41.95 36.7 41.4 34.7 38.8 L34.9 40.15 Q34.9 41.95 33.65 43.2 32.4 44.45 30.6 44.45 28.8 44.45 27.55 43.2 L26.85 42.25 26.1 44.1 Q26.9 45.15 26.9 46.6 26.9 48.4 25.65 49.65 24.4 50.9 22.6 50.9 20.8 50.9 19.55 49.65 18.3 48.4 18.3 46.6 18.3 44.8 19.55 43.55 20.3 42.8 21.3 42.5 22.35 40.35 21.55 38.9 19.1 40.2 16.6 43 16.1 43.5 15.45 43.65 L14.2 43.45 Q13.55 43.15 13.3 42.55 12.9 41.75 12.1 41.3 L11.35 40.5 Q11.05 40 11.1 39.45 11.1 38.9 11.45 38.45 14.05 34.55 18.1 34.4 L18.2 34.4 Q20 32.05 19.15 29.85 18.9 29.3 19 28.75 19.05 28.2 19.45 27.75 19.85 27.3 20.4 27.15 26.15 25.3 32.6 29.4 30.55 25.4 30.55 22.3 L30.55 22.25 30.55 21.6 30.55 21.5 Q30.55 19.5 29.55 18.45 28.95 17.9 28.9 17.15 28.8 16.4 29.3 15.8 29.75 15.15 30.5 15.05 L32.4 14.85 32.55 14.7 Q32.65 14.5 35.85 13.4 39.05 12.25 43.5 15.65 L48.25 19.5 Q48.6 20 48.6 20.65 L48.6 21.15 48.3 22.2 47.5 22.95 46.4 23.15 43.45 23.45 43.3 23.5 Q41.75 24.2 41.5 26.15 43.2 26.85 44.8 26.6 L45.55 25.6 Q46.8 24.35 48.6 24.35 50.4 24.35 51.65 25.6 52.9 26.85 52.9 28.65 52.9 30.45 51.65 31.7 50.4 32.95 48.6 32.95 46.8 32.95 45.55 31.7 L45.5 31.65 Q43.15 32.05 40.7 31.25 39.9 33.7 38.35 35.2 39.3 36.5 40.55 36.85 41.7 35.85 43.3 35.85 45.1 35.85 46.35 37.1 47.6 38.35 47.6 40.15 M27 37.8 L26.85 37.8 26.9 38 27 37.8"/>
  </g>
</svg>