<svg width="64" height="64" xmlns="http://www.w3.org/2000/svg" xmlns:xlink="http://www.w3.org/1999/xlink">
  <defs/>
  <g>
    <path stroke="none" fill="#EC2037" d="M0 43 L0 0 64 0 64 43 0 43"/>
    <path stroke="none" fill="#259F6C" d="M0 43 L64 43 64 64 0 64 0 43"/>
    <path stroke="none" fill="#EEEEF7" d="M0 4 L0 0 18 0 18 4 0 4 M18 60 L18 64 0 64 0 60 18 60"/>
    <path stroke="none" fill="#C9172A" d="M0 4 L18 4 18 60 0 60 0 4"/>
    <path stroke="none" fill="#EEEEF7" d="M7.25 43.05 L0.45 33.45 Q0 32.8 0 32 0 31.2 0.45 30.55 L7.2 20.95 Q7.65 20.35 8.3 20.1 9 19.9 9.65 20.1 L10.8 20.95 17.55 30.55 Q18 31.2 18 32 L17.55 33.45 10.85 43.05 9.75 43.9 Q9.05 44.1 8.35 43.9 L7.25 43.05"/>
    <path stroke="none" fill="#EEEEF7" d="M7.25 15.05 L0.45 5.45 Q0 4.8 0 4 L18 4 17.55 5.45 10.85 15.05 9.75 15.9 Q9.05 16.1 8.35 15.9 L7.25 15.05"/>
    <path stroke="none" fill="#EEEEF7" d="M7.25 48.95 Q7.7 48.35 8.35 48.1 9.05 47.9 9.75 48.1 L10.85 48.95 17.55 58.55 Q18 59.2 18 60 L0 60 Q0 59.2 0.45 58.55 L7.25 48.95"/>
  </g>
</svg>