<svg width="64" height="64" xmlns="http://www.w3.org/2000/svg" xmlns:xlink="http://www.w3.org/1999/xlink">
  <defs/>
  <g>
    <path stroke="none" fill="#EC2037" d="M0 10 L0 0 64 0 64 10 0 10 M64 54 L64 64 0 64 0 54 64 54"/>
    <path stroke="none" fill="#3439CB" d="M64 54 L0 54 0 10 64 10 64 54"/>
    <path stroke="none" fill="#EEEEF7" d="M49 32 Q49 39.05 44 44 39.05 49 32 49 24.95 49 19.95 44 15 39.05 15 32 15 24.95 19.95 19.95 24.95 15 32 15 39.05 15 44 19.95 49 24.95 49 32"/>
    <path fill="none" stroke="#259F6C" stroke-width="4" stroke-linecap="round" stroke-linejoin="round" d="M44 32 Q44 36.95 40.5 40.5 36.95 44 32 44 27.05 44 23.5 40.5 20 36.95 20 32 20 27.05 23.5 23.5 27.05 20 32 20 36.95 20 40.5 23.5 44 27.05 44 32"/>
    <path stroke="none" fill="#C4863B" d="M36.25 37.1 Q34.45 39 32 39 29.5 39 27.75 37.1 26 35.1 26 32.3 L26 28.35 Q26 27.8 26.35 27.4 26.65 27 27.2 27 L36.8 27 Q37.3 27 37.65 27.4 38 27.8 38 28.35 L38 32.3 Q38 35.1 36.25 37.1"/>
  </g>
</svg>