<svg width="64" height="64" xmlns="http://www.w3.org/2000/svg" xmlns:xlink="http://www.w3.org/1999/xlink">
  <defs/>
  <g>
    <path stroke="none" fill="#EC2037" d="M48 0 L64 0 64 64 48 64 48 0 M16 64 L0 64 0 0 16 0 16 64"/>
    <path stroke="none" fill="#EEEEF7" d="M16 64 L16 0 48 0 48 64 16 64"/>
    <path stroke="none" fill="#EC2037" d="M20 30 L24 30 24.45 30.1 26.3 31.05 25.05 27.35 25.05 26.85 Q25.05 26.6 25.2 26.4 L31.2 18.4 Q31.4 18.15 31.7 18.05 L32.3 18.05 32.8 18.4 38.8 26.4 39 26.85 38.95 27.35 37.75 31.05 39.55 30.1 40 30 44 30 Q44.4 30 44.7 30.3 L45 31 45 35 45 35.15 Q44.4 39.45 41.4 40.6 L39.4 41.05 40.35 42.7 40.45 43.45 39.95 44.05 39.25 44.15 35 43 35 44.95 34.7 45.65 Q34.4 45.95 34 45.95 L30 45.95 29.3 45.65 Q29 45.35 29 44.95 L29 43 24.75 44.15 24.05 44.05 Q23.65 43.85 23.55 43.45 23.45 43.1 23.65 42.7 L24.6 41.05 22.65 40.6 Q19.6 39.45 19 35.15 L19 35 19 31 Q19 30.6 19.3 30.3 19.6 30 20 30"/>
  </g>
</svg>