<svg width="64" height="64" xmlns="http://www.w3.org/2000/svg" xmlns:xlink="http://www.w3.org/1999/xlink">
  <defs/>
  <g>
    <path stroke="none" fill="#259F6C" d="M0 0 L64 0 64 64 0 64 0 0"/>
    <path stroke="none" fill="#FCC920" d="M50.45 22.85 Q49.85 24 49 24 48.2 24 47.6 22.85 L47.2 21.8 46.2 21.45 Q45 20.85 45 20 45 19.15 46.2 18.55 L47.25 18.2 47.6 17.15 Q48.2 16 49 16 49.85 16 50.45 17.15 L50.8 18.2 51.85 18.55 Q53 19.15 53 20 53 20.85 51.85 21.45 L50.8 21.8 50.45 22.85 M43.45 30.85 Q42.85 32 42 32 41.2 32 40.6 30.85 L40.2 29.8 39.2 29.45 Q38 28.85 38 28 38 27.15 39.2 26.55 L40.25 26.2 40.6 25.15 Q41.2 24 42 24 42.85 24 43.45 25.15 L43.8 26.2 44.85 26.55 Q46 27.15 46 28 46 28.85 44.85 29.45 L43.8 29.8 43.45 30.85 M57.45 30.85 Q56.85 32 56 32 55.2 32 54.6 30.85 L54.2 29.8 53.2 29.45 Q52 28.85 52 28 52 27.15 53.2 26.55 L54.25 26.2 54.6 25.15 Q55.2 24 56 24 56.85 24 57.45 25.15 L57.8 26.2 58.85 26.55 Q60 27.15 60 28 60 28.85 58.85 29.45 L57.8 29.8 57.45 30.85 M52.1 36.95 Q51.65 37.8 51 37.8 50.4 37.8 49.95 36.95 L49.65 36.15 48.9 35.9 Q48 35.45 48 34.8 48 34.15 48.9 33.7 L49.7 33.45 49.95 32.65 Q50.4 31.8 51 31.8 51.65 31.8 52.1 32.65 L52.35 33.45 53.15 33.7 Q54 34.15 54 34.8 54 35.45 53.15 35.9 L52.35 36.15 52.1 36.95 M50.45 46.85 Q49.85 48 49 48 48.2 48 47.6 46.85 L47.2 45.8 46.2 45.45 Q45 44.85 45 44 45 43.15 46.2 42.55 L47.25 42.2 47.6 41.15 Q48.2 40 49 40 49.85 40 50.45 41.15 L50.8 42.2 51.85 42.55 Q53 43.15 53 44 53 44.85 51.85 45.45 L50.8 45.8 50.45 46.85"/>
    <path stroke="none" fill="#FCC920" d="M35.8 23 Q32 23 29.3 25.65 L29.3 25.7 Q26.65 28.3 26.65 32 26.65 35.7 29.3 38.35 32 41 35.8 41 L35.95 41 36.55 41.25 36.9 41.8 36.85 42.45 36.35 42.9 Q34 44 31.2 44 26.2 44 22.55 40.45 19 36.95 19 32 19 27.05 22.55 23.5 26.2 20 31.2 20 34 20 36.4 21.1 L36.9 21.55 36.95 22.25 36.6 22.8 36 23 35.8 23"/>
    <path stroke="none" fill="#FCC920" d="M22 13 Q22 16.7 19.35 19.35 16.7 22 13 22 9.3 22 6.6 19.35 4 16.7 4 13 4 9.3 6.6 6.6 9.3 4 13 4 16.7 4 19.35 6.6 22 9.3 22 13"/>
    <path stroke="none" fill="#259F6C" d="M14.35 18 L11.6 18 12.15 12.3 9.9 13.8 Q9.45 13.3 9.7 12.55 L10.5 11.55 8 11.55 Q8 10.8 8.9 10.25 9.8 9.75 11.15 9.75 L9.55 8.4 Q10.15 7.9 11.25 8.05 12.15 8.25 13 8.85 13.8 8.25 14.75 8.05 15.85 7.9 16.45 8.4 L14.85 9.75 Q16.15 9.75 17.1 10.25 18 10.8 18 11.55 L15.45 11.55 Q16.05 12 16.25 12.55 16.55 13.3 16.1 13.8 L13.85 12.3 14.35 18"/>
  </g>
</svg>