<svg width="64" height="64" xmlns="http://www.w3.org/2000/svg" xmlns:xlink="http://www.w3.org/1999/xlink">
  <defs/>
  <g>
    <path stroke="none" fill="#EC2037" d="M16 64 L0 64 0 48 48 0 64 0 64 16 16 64"/>
    <path stroke="none" fill="#FCC920" d="M16 64 L64 16 64 24 24 64 16 64 M0 48 L0 40 40 0 48 0 0 48"/>
    <path stroke="none" fill="#5193EE" d="M64 24 L64 64 24 64 64 24 M0 40 L0 0 40 0 0 40"/>
    <path stroke="none" fill="#FCC920" d="M11.85 4.5 L13.75 7.7 17.25 8.65 Q17.6 8.7 17.85 9 L18 9.65 17.8 10.25 15.4 13.15 15.7 16.9 15.55 17.6 15.05 17.95 14.35 17.95 11 16.5 7.65 17.95 7 17.95 6.5 17.6 6.3 16.9 6.6 13.15 4.25 10.25 4 9.65 4.2 9 4.75 8.65 8.3 7.7 10.2 4.5 10.7 4.1 Q11 3.95 11.3 4.1 L11.85 4.5"/>
  </g>
</svg>