<svg width="64" height="64" xmlns="http://www.w3.org/2000/svg" xmlns:xlink="http://www.w3.org/1999/xlink">
  <defs/>
  <g>
    <path stroke="none" fill="#EC2037" d="M0 0 L64 0 64 64 0 64 0 0"/>
    <path stroke="none" fill="#EEEEF7" d="M38 16 L38 26 48 26 Q48.85 26 49.45 26.6 50 27.15 50 28 L50 36 Q50 36.85 49.45 37.45 48.85 38 48 38 L38 38 38 48 Q38 48.85 37.45 49.45 36.85 50 36 50 L28 50 Q27.15 50 26.6 49.45 26 48.85 26 48 L26 38 16 38 Q15.15 38 14.6 37.45 14 36.85 14 36 L14 28 Q14 27.15 14.6 26.6 15.15 26 16 26 L26 26 26 16 Q26 15.15 26.6 14.6 27.15 14 28 14 L36 14 Q36.85 14 37.45 14.6 38 15.15 38 16"/>
  </g>
</svg>