<svg width="64" height="64" xmlns="http://www.w3.org/2000/svg" xmlns:xlink="http://www.w3.org/1999/xlink">
  <defs/>
  <g>
    <path stroke="none" fill="#3439CB" d="M0 64 L0 0 64 0 64 64 0 64"/>
    <path stroke="none" fill="#EEEEF7" d="M45.45 34.85 Q44.85 36 44 36 43.2 36 42.6 34.85 L42.2 33.8 41.2 33.45 Q40 32.85 40 32 40 31.15 41.2 30.55 L42.25 30.2 42.6 29.15 Q43.2 28 44 28 44.85 28 45.45 29.15 L45.8 30.2 46.85 30.55 Q48 31.15 48 32 48 32.85 46.85 33.45 L45.8 33.8 45.45 34.85"/>
    <path stroke="none" fill="#EEEEF7" d="M45.45 56.85 Q44.85 58 44 58 43.2 58 42.6 56.85 L42.2 55.8 41.2 55.45 Q40 54.85 40 54 40 53.15 41.2 52.55 L42.25 52.2 42.6 51.15 Q43.2 50 44 50 44.85 50 45.45 51.15 L45.8 52.2 46.85 52.55 Q48 53.15 48 54 48 54.85 46.85 55.45 L45.8 55.8 45.45 56.85"/>
    <path stroke="none" fill="#EEEEF7" d="M34.45 45.85 Q33.85 47 33 47 32.2 47 31.6 45.85 L31.2 44.8 30.2 44.45 Q29 43.85 29 43 29 42.15 30.2 41.55 L31.25 41.2 31.6 40.15 Q32.2 39 33 39 33.85 39 34.45 40.15 L34.8 41.2 35.85 41.55 Q37 42.15 37 43 37 43.85 35.85 44.45 L34.8 44.8 34.45 45.85"/>
    <path stroke="none" fill="#EEEEF7" d="M56.45 45.85 Q55.85 47 55 47 54.2 47 53.6 45.85 L53.2 44.8 52.2 44.45 Q51 43.85 51 43 51 42.15 52.2 41.55 L53.25 41.2 53.6 40.15 Q54.2 39 55 39 55.85 39 56.45 40.15 L56.8 41.2 57.85 41.55 Q59 42.15 59 43 59 43.85 57.85 44.45 L56.8 44.8 56.45 45.85"/>
    <path stroke="none" fill="#EEEEF7" d="M38.45 38.85 Q37.85 40 37 40 36.2 40 35.6 38.85 L35.2 37.8 34.2 37.45 Q33 36.85 33 36 33 35.15 34.2 34.55 L35.25 34.2 35.6 33.15 Q36.2 32 37 32 37.85 32 38.45 33.15 L38.8 34.2 39.85 34.55 Q41 35.15 41 36 41 36.85 39.85 37.45 L38.8 37.8 38.45 38.85"/>
    <path stroke="none" fill="#EEEEF7" d="M52.45 38.85 Q51.85 40 51 40 50.2 40 49.6 38.85 L49.2 37.8 48.2 37.45 Q47 36.85 47 36 47 35.15 48.2 34.55 L49.25 34.2 49.6 33.15 Q50.2 32 51 32 51.85 32 52.45 33.15 L52.8 34.2 53.85 34.55 Q55 35.15 55 36 55 36.85 53.85 37.45 L52.8 37.8 52.45 38.85"/>
    <path stroke="none" fill="#EEEEF7" d="M52.45 52.85 Q51.85 54 51 54 50.2 54 49.6 52.85 L49.2 51.8 48.2 51.45 Q47 50.85 47 50 47 49.15 48.2 48.55 L49.25 48.2 49.6 47.15 Q50.2 46 51 46 51.85 46 52.45 47.15 L52.8 48.2 53.85 48.55 Q55 49.15 55 50 55 50.85 53.85 51.45 L52.8 51.8 52.45 52.85"/>
    <path stroke="none" fill="#EEEEF7" d="M38.45 52.85 Q37.85 54 37 54 36.2 54 35.6 52.85 L35.2 51.8 34.2 51.45 Q33 50.85 33 50 33 49.15 34.2 48.55 L35.25 48.2 35.6 47.15 Q36.2 46 37 46 37.85 46 38.45 47.15 L38.8 48.2 39.85 48.55 Q41 49.15 41 50 41 50.85 39.85 51.45 L38.8 51.8 38.45 52.85"/>
    <path stroke="none" fill="#EEEEF7" d="M32 5.45 L26.4 11 32 11 32 13 20 13 19.3 12.7 Q19 12.4 19 12 L19 0 21 0 21 5.6 26.6 0 29.45 0 21 8.4 21 11 23.6 11 32 2.6 32 5.45 M32 19 L32 21 26.4 21 32 26.6 32 29.45 23.6 21 21 21 21 23.6 29.45 32 26.6 32 21 26.4 21 32 19 32 19 20 Q19 19.6 19.3 19.3 19.6 19 20 19 L32 19 M13 32 L11 32 11 26.4 5.45 32 2.6 32 11 23.6 11 21 8.4 21 0 29.45 0 26.6 5.6 21 0 21 0 19 12 19 Q12.4 19 12.7 19.3 L13 20 13 32 M0 13 L0 11 5.6 11 0 5.45 0 2.6 8.4 11 11 11 11 8.4 2.6 0 5.45 0 11 5.6 11 0 13 0 13 12 12.7 12.7 12 13 0 13"/>
    <path stroke="none" fill="#EC2037" d="M0 13 L12 13 12.7 12.7 13 12 13 0 19 0 19 12 Q19 12.4 19.3 12.7 L20 13 32 13 32 19 20 19 Q19.6 19 19.3 19.3 19 19.6 19 20 L19 32 13 32 13 20 12.7 19.3 Q12.4 19 12 19 L0 19 0 13 M32 29.45 L32 32 29.45 32 21 23.6 21 21 23.6 21 32 29.45 M2.6 32 L0 32 0 29.45 8.4 21 11 21 11 23.6 2.6 32 M0 2.6 L0 0 2.6 0 11 8.4 11 11 8.4 11 0 2.6 M29.45 0 L32 0 32 2.6 23.6 11 21 11 21 8.4 29.45 0"/>
    <path stroke="none" fill="#3439CB" d="M32 5.45 L32 11 26.4 11 32 5.45 M32 21 L32 26.6 26.4 21 32 21 M26.6 32 L21 32 21 26.4 26.6 32 M11 32 L5.45 32 11 26.4 11 32 M0 26.6 L0 21 5.6 21 0 26.6 M0 11 L0 5.45 5.6 11 0 11 M5.45 0 L11 0 11 5.6 5.45 0 M21 0 L26.6 0 21 5.6 21 0"/>
  </g>
</svg>