<svg width="64" height="64" xmlns="http://www.w3.org/2000/svg" xmlns:xlink="http://www.w3.org/1999/xlink">
  <defs/>
  <g>
    <path stroke="none" fill="#EEEEF7" d="M32 0 L64 0 64 32 32 32 32 0"/>
    <path stroke="none" fill="#3439CB" d="M32 0 L32 32 0 32 0 0 32 0"/>
    <path stroke="none" fill="#EC2037" d="M64 32 L64 64 0 64 0 32 32 32 64 32"/>
    <path stroke="none" fill="#EEEEF7" d="M17.1 7.65 L19.5 11.8 24.05 12.95 Q24.5 13.05 24.75 13.4 L25 14.25 24.75 15.05 21.65 18.75 22.05 23.6 21.85 24.45 21.15 24.95 20.3 24.9 16 23.05 11.7 24.9 10.85 24.95 10.2 24.45 Q9.9 24.05 9.95 23.6 L10.35 18.75 7.3 15.05 Q7 14.7 7 14.25 7 13.75 7.25 13.4 L7.95 12.95 12.5 11.8 14.95 7.65 15.6 7.1 Q16 6.95 16.4 7.1 16.85 7.25 17.1 7.65"/>
  </g>
</svg>