<svg width="64" height="64" xmlns="http://www.w3.org/2000/svg" xmlns:xlink="http://www.w3.org/1999/xlink">
  <defs/>
  <g>
    <path stroke="none" fill="#EC2037" d="M0 0 L64 0 64 64 0 64 0 0"/>
    <path stroke="none" fill="#FCC920" d="M19.2 14.7 L21.9 19.3 26.95 20.6 Q27.45 20.7 27.75 21.1 L28 22.05 27.7 22.95 24.3 27.05 24.7 32.45 24.5 33.4 23.75 33.95 22.8 33.9 18 31.85 13.2 33.9 12.3 33.95 11.55 33.4 Q11.25 32.95 11.3 32.45 L11.7 27.05 8.35 22.95 Q8 22.55 8 22.05 8 21.5 8.3 21.1 8.6 20.7 9.05 20.6 L14.1 19.3 16.85 14.7 17.55 14.1 Q18 13.95 18.45 14.1 L19.2 14.7"/>
    <path stroke="none" fill="#FCC920" d="M32.9 12.8 Q32.55 14 32 14 31.4 14 31 12.8 L30.7 11.25 29.15 10.9 Q28 10.55 28 10 28 9.4 29.15 9 L30.7 8.7 31 7.15 Q31.4 6 32 6 32.55 6 32.9 7.15 L33.25 8.7 34.8 9 Q36 9.4 36 10 36 10.55 34.8 10.9 L33.25 11.25 32.9 12.8 M38.9 21.8 Q38.55 23 38 23 37.4 23 37 21.8 L36.7 20.25 35.15 19.9 Q34 19.55 34 19 34 18.4 35.15 18 L36.7 17.7 37 16.15 Q37.4 15 38 15 38.55 15 38.9 16.15 L39.25 17.7 40.8 18 Q42 18.4 42 19 42 19.55 40.8 19.9 L39.25 20.25 38.9 21.8 M38.9 33.8 Q38.55 35 38 35 37.4 35 37 33.8 L36.7 32.25 35.15 31.9 Q34 31.55 34 31 34 30.4 35.15 30 L36.7 29.7 37 28.15 Q37.4 27 38 27 38.55 27 38.9 28.15 L39.25 29.7 40.8 30 Q42 30.4 42 31 42 31.55 40.8 31.9 L39.25 32.25 38.9 33.8 M32.9 42.8 Q32.55 44 32 44 31.4 44 31 42.8 L30.7 41.25 29.15 40.9 Q28 40.55 28 40 28 39.4 29.15 39 L30.7 38.7 31 37.15 Q31.4 36 32 36 32.55 36 32.9 37.15 L33.25 38.7 34.8 39 Q36 39.4 36 40 36 40.55 34.8 40.9 L33.25 41.25 32.9 42.8"/>
  </g>
</svg>