<svg width="64" height="64" xmlns="http://www.w3.org/2000/svg" xmlns:xlink="http://www.w3.org/1999/xlink">
  <defs/>
  <g>
    <path stroke="none" fill="#EEEEF7" d="M64 20 L0 20 0 10 64 10 64 20 M0 44 L64 44 64 54 0 54 0 44"/>
    <path stroke="none" fill="#3439CB" d="M64 54 L64 64 0 64 0 54 64 54 M0 10 L0 0 64 0 64 10 0 10"/>
    <path stroke="none" fill="#EC2037" d="M64 20 L64 44 0 44 0 20 64 20"/>
    <path stroke="none" fill="#EEEEF7" d="M29 32 Q29 35.75 26.35 38.35 23.7 41 20 41 16.25 41 13.6 38.35 11 35.75 11 32 11 28.3 13.6 25.65 16.25 23 20 23 23.7 23 26.35 25.65 29 28.3 29 32"/>
    <path stroke="none" fill="#5193EE" d="M23.55 35.55 Q22.05 37 20 37 17.9 37 16.45 35.55 15 34.05 15 32 L15 29.05 Q15 28.6 15.3 28.3 15.55 28 16 28 L24 28 Q24.4 28 24.7 28.3 L25 29.05 25 32 Q25 34.05 23.55 35.55"/>
  </g>
</svg>