<svg width="64" height="64" xmlns="http://www.w3.org/2000/svg" xmlns:xlink="http://www.w3.org/1999/xlink">
  <defs/>
  <g>
    <path stroke="none" fill="#392D8C" d="M64 26 L64 39 0 39 0 26 64 26 M64 52 L64 64 0 64 0 52 64 52 M0 13 L0 0 64 0 64 13 0 13"/>
    <path stroke="none" fill="#EEEEF7" d="M0 13 L64 13 64 26 0 26 0 13 M64 39 L64 52 0 52 0 39 64 39"/>
    <path stroke="none" fill="#EC2037" d="M34.85 34.85 L5.65 64 0 64 0 0 5.65 0 34.85 29.2 Q36 30.35 36 32 36 33.65 34.85 34.85"/>
    <path stroke="none" fill="#EEEEF7" d="M15.05 23.6 L17.5 27.8 22.05 28.95 22.8 29.4 23 30.25 22.7 31.05 19.7 34.75 20 39.6 19.85 40.45 19.2 40.95 18.35 40.9 14 39.05 9.65 40.9 8.9 40.95 8.2 40.45 Q7.9 40.05 8 39.6 L8.3 34.75 5.3 31.05 Q5 30.7 5 30.25 5 29.75 5.3 29.4 5.55 29 5.95 28.95 L10.5 27.8 12.95 23.6 Q13.2 23.2 13.6 23.1 14 22.95 14.4 23.1 14.85 23.2 15.05 23.6"/>
  </g>
</svg>