<svg width="64" height="64" xmlns="http://www.w3.org/2000/svg" xmlns:xlink="http://www.w3.org/1999/xlink">
  <defs/>
  <g>
    <path stroke="none" fill="#3439CB" d="M0 28 L0 0 64 0 64 28 0 28 M64 50 L64 64 0 64 0 50 64 50"/>
    <path stroke="none" fill="#EEEEF7" d="M64 50 L0 50 0 44 64 44 64 50 M64 28 L64 34 0 34 0 28 64 28"/>
    <path stroke="none" fill="#EC2037" d="M64 34 L64 44 0 44 0 34 64 34"/>
    <path stroke="none" fill="#FCC920" d="M35.9 31.8 Q35.55 33 35 33 34.4 33 34 31.8 L33.7 30.25 32.15 29.9 Q31 29.55 31 29 31 28.4 32.15 28 L33.7 27.7 34 26.15 Q34.4 25 35 25 35.55 25 35.9 26.15 L36.25 27.7 37.8 28 Q39 28.4 39 29 39 29.55 37.8 29.9 L36.25 30.25 35.9 31.8 M39.9 41.8 Q39.55 43 39 43 38.4 43 38 41.8 L37.7 40.25 36.15 39.9 Q35 39.55 35 39 35 38.4 36.15 38 L37.7 37.7 38 36.15 Q38.4 35 39 35 39.55 35 39.9 36.15 L40.25 37.7 41.8 38 Q43 38.4 43 39 43 39.55 41.8 39.9 L40.25 40.25 39.9 41.8 M35.9 51.8 Q35.55 53 35 53 34.4 53 34 51.8 L33.7 50.25 32.15 49.9 Q31 49.55 31 49 31 48.4 32.15 48 L33.7 47.7 34 46.15 Q34.4 45 35 45 35.55 45 35.9 46.15 L36.25 47.7 37.8 48 Q39 48.4 39 49 39 49.55 37.8 49.9 L36.25 50.25 35.9 51.8 M15.9 31.8 Q15.55 33 15 33 14.4 33 14 31.8 L13.7 30.25 12.15 29.9 Q11 29.55 11 29 11 28.4 12.15 28 L13.7 27.7 14 26.15 Q14.4 25 15 25 15.55 25 15.9 26.15 L16.25 27.7 17.8 28 Q19 28.4 19 29 19 29.55 17.8 29.9 L16.25 30.25 15.9 31.8 M25.9 27.8 Q25.55 29 25 29 24.4 29 24 27.8 L23.7 26.25 22.15 25.9 Q21 25.55 21 25 21 24.4 22.15 24 L23.7 23.7 24 22.15 Q24.4 21 25 21 25.55 21 25.9 22.15 L26.25 23.7 27.8 24 Q29 24.4 29 25 29 25.55 27.8 25.9 L26.25 26.25 25.9 27.8 M11.9 41.8 Q11.55 43 11 43 10.4 43 10 41.8 L9.7 40.25 8.15 39.9 Q7 39.55 7 39 7 38.4 8.15 38 L9.7 37.7 10 36.15 Q10.4 35 11 35 11.55 35 11.9 36.15 L12.25 37.7 13.8 38 Q15 38.4 15 39 15 39.55 13.8 39.9 L12.25 40.25 11.9 41.8 M15.9 51.8 Q15.55 53 15 53 14.4 53 14 51.8 L13.7 50.25 12.15 49.9 Q11 49.55 11 49 11 48.4 12.15 48 L13.7 47.7 14 46.15 Q14.4 45 15 45 15.55 45 15.9 46.15 L16.25 47.7 17.8 48 Q19 48.4 19 49 19 49.55 17.8 49.9 L16.25 50.25 15.9 51.8 M25.9 55.8 Q25.55 57 25 57 24.4 57 24 55.8 L23.7 54.25 22.15 53.9 Q21 53.55 21 53 21 52.4 22.15 52 L23.7 51.7 24 50.15 Q24.4 49 25 49 25.55 49 25.9 50.15 L26.25 51.7 27.8 52 Q29 52.4 29 53 29 53.55 27.8 53.9 L26.25 54.25 25.9 55.8"/>
  </g>
</svg>