<svg width="64" height="64" xmlns="http://www.w3.org/2000/svg" xmlns:xlink="http://www.w3.org/1999/xlink">
  <defs/>
  <g>
    <path stroke="none" fill="#392D8C" d="M0 0 L64 0 64 64 0 64 0 0"/>
    <path stroke="none" fill="#FCC920" d="M0 34 L64 34 64 42 0 42 0 34"/>
    <path stroke="none" fill="#EEEEF7" d="M11.45 14.85 Q10.85 16 10 16 9.2 16 8.6 14.85 L8.2 13.8 7.2 13.45 Q6 12.85 6 12 6 11.15 7.2 10.55 L8.25 10.2 8.6 9.15 Q9.2 8 10 8 10.85 8 11.45 9.15 L11.8 10.2 12.85 10.55 Q14 11.15 14 12 14 12.85 12.85 13.45 L11.8 13.8 11.45 14.85"/>
    <path stroke="none" fill="#EEEEF7" d="M23.2 23.3 Q22.3 25 21 25 19.8 25 18.9 23.3 L18.3 21.7 16.8 21.2 Q15 20.3 15 19 15 17.75 16.8 16.85 L18.4 16.3 18.9 14.75 Q19.8 13 21 13 22.3 13 23.2 14.75 L23.7 16.3 25.3 16.85 Q27 17.75 27 19 27 20.3 25.3 21.2 L23.7 21.7 23.2 23.3"/>
  </g>
</svg>