<svg width="64" height="64" xmlns="http://www.w3.org/2000/svg" xmlns:xlink="http://www.w3.org/1999/xlink">
  <defs/>
  <g>
    <path stroke="none" fill="#392D8C" d="M64 64 L0 64 0 0 64 64"/>
    <path stroke="none" fill="#259F6C" d="M64 64 L0 0 64 0 64 64"/>
    <path stroke="none" fill="#FCC920" d="M43 32 Q43 36.55 39.75 39.75 36.55 43 32 43 27.45 43 24.2 39.75 21 36.55 21 32 21 27.45 24.2 24.2 27.45 21 32 21 36.55 21 39.75 24.2 43 27.45 43 32"/>
    <path stroke="none" fill="#EEEEF7" d="M22.45 47.85 Q21.85 49 21 49 20.2 49 19.6 47.85 L19.2 46.8 18.2 46.45 Q17 45.85 17 45 17 44.15 18.2 43.55 L19.25 43.2 19.6 42.15 Q20.2 41 21 41 21.85 41 22.45 42.15 L22.8 43.2 23.85 43.55 Q25 44.15 25 45 25 45.85 23.85 46.45 L22.8 46.8 22.45 47.85 M15.45 38.85 Q14.85 40 14 40 13.2 40 12.6 38.85 L12.2 37.8 11.2 37.45 Q10 36.85 10 36 10 35.15 11.2 34.55 L12.25 34.2 12.6 33.15 Q13.2 32 14 32 14.85 32 15.45 33.15 L15.8 34.2 16.85 34.55 Q18 35.15 18 36 18 36.85 16.85 37.45 L15.8 37.8 15.45 38.85 M18.7 52.2 L18 52.8 Q17.6 52.8 17.3 52.2 L17.1 51.7 16.6 51.5 Q16 51.2 16 50.8 16 50.35 16.6 50.05 L17.1 49.9 17.3 49.35 Q17.6 48.8 18 48.8 18.4 48.8 18.7 49.35 L18.9 49.9 19.4 50.05 Q20 50.35 20 50.8 20 51.2 19.4 51.5 L18.9 51.7 18.7 52.2 M15.45 59.85 Q14.85 61 14 61 13.2 61 12.6 59.85 L12.2 58.8 11.2 58.45 Q10 57.85 10 57 10 56.15 11.2 55.55 L12.25 55.2 12.6 54.15 Q13.2 53 14 53 14.85 53 15.45 54.15 L15.8 55.2 16.85 55.55 Q18 56.15 18 57 18 57.85 16.85 58.45 L15.8 58.8 15.45 59.85 M8.45 47.85 Q7.85 49 7 49 6.2 49 5.6 47.85 L5.2 46.8 4.2 46.45 Q3 45.85 3 45 3 44.15 4.2 43.55 L5.25 43.2 5.6 42.15 Q6.2 41 7 41 7.85 41 8.45 42.15 L8.8 43.2 9.85 43.55 Q11 44.15 11 45 11 45.85 9.85 46.45 L8.8 46.8 8.45 47.85"/>
    <path stroke="none" fill="#259F6C" d="M35.6 26.4 L37.45 26.05 37.85 26.05 38.2 26.3 38.35 26.65 39 30.8 38.85 31.35 38.35 31.6 Q36.35 32 35.75 37.4 L35.55 37.8 35.05 38 33.15 38 32.75 37.9 32.45 37.65 32.4 37.25 Q32.55 35.05 31.4 34.6 L28.25 33.75 26.8 34.5 26.35 34.6 25.9 34.4 25.2 33.75 25 33.3 25.2 32.8 26.55 31.3 25.9 29.85 Q25.8 29.65 25.85 29.45 25.9 29.2 26.1 29.05 L26.9 28.4 27.4 28.2 27.9 28.4 Q29.7 30.15 31.45 29.85 33.3 29.4 35.1 26.7 L35.6 26.4"/>
    <path stroke="none" fill="#FCC920" d="M50.9 3.05 Q58 7.05 57.7 12.4 60 11.85 61 13.85 L61 14.15 60.85 14.35 58 15.95 Q49.25 21.7 39.35 20.9 L39.1 20.75 39 20.5 39.1 20.25 39.35 20.15 Q52.3 18.5 52.45 14.8 47.75 12.65 45.75 10 L45.7 9.7 45.8 9.45 46.05 9.35 Q49.75 9.35 53.1 11.15 51.35 7.65 50.35 3.5 50.3 3.35 50.4 3.2 L50.6 3 50.9 3.05"/>
  </g>
</svg>