<svg width="64" height="64" xmlns="http://www.w3.org/2000/svg" xmlns:xlink="http://www.w3.org/1999/xlink">
  <defs/>
  <g>
    <path stroke="none" fill="#EEEEF7" d="M64 64 L0 64 0 0 64 0 64 64"/>
    <path stroke="none" fill="#C4863B" d="M27.9 14.45 L39 14.45 51.4 9.25 53.45 9.15 Q54.45 9.45 55.05 10.45 55.6 11.35 55.5 12.45 55.4 13.55 54.65 14.35 L48.85 20.15 50 22.25 Q50.55 23.25 50.35 24.3 50.15 25.4 49.3 26.15 48.45 26.85 47.4 26.85 L43.35 26.85 39.6 31.45 Q38.85 32.4 37.7 32.55 L32.1 33.4 31.6 34.9 Q31.25 35.85 30.5 36.4 29.7 37 28.7 37 L27.55 37 Q26.6 37 25.85 36.45 25.05 35.9 24.75 34.95 L24.6 34.55 17.55 32.9 Q16.8 32.7 16.25 32.2 15.65 31.65 15.4 30.95 L13.7 26.35 Q13.3 25.25 13.65 24.2 14 23.15 14.95 22.55 L17 21.4 Q17.7 20.9 18.55 20.9 L23.6 20.9 25.1 16.5 Q25.4 15.6 26.2 15.05 26.95 14.45 27.9 14.45"/>
    <path stroke="none" fill="#259F6C" d="M46.85 52.4 L46.95 53.15 46.45 53.8 44.8 54.85 44.35 55 43.9 54.95 40.15 53.35 Q37.4 54.1 34.25 52.95 33.5 52.6 33.2 51.8 32.85 51 33.15 50.25 33.45 49.35 34.15 49.05 L35.7 49 38.7 49.35 39.45 46.35 Q39.5 45.9 39.8 45.75 L41.55 44.65 42.05 44.55 42.55 44.65 42.9 45.05 43.25 45.75 43.25 43.55 Q43.2 43.05 43.5 42.75 L44.9 41.25 45.4 41.05 45.85 41.05 46.35 41.25 46.85 41.9 46.4 39.95 Q46.35 39.5 46.45 39.15 L47.35 37.6 47.75 37.15 48.2 37 48.7 37.2 50.15 38.15 50.6 38.75 51 40.1 52.3 39.75 52.7 39.75 53.05 39.9 54.55 40.85 Q54.85 41.05 54.95 41.5 L54.9 42.25 54 43.85 53.75 44.1 53.35 44.3 51.1 44.95 50.65 45.85 51.95 47.3 52.2 48.05 51.95 48.8 50.5 50.3 50.2 50.55 49.75 50.6 46.95 50.55 Q46.65 50.55 46.45 50.3 L45.9 50.7 46.85 52.4 M16.15 52.4 L17.1 50.7 16.55 50.3 16.05 50.55 13.25 50.6 12.8 50.55 12.5 50.3 11.05 48.8 10.8 48.05 11.05 47.3 12.35 45.85 11.9 44.95 9.65 44.3 9.25 44.1 9 43.85 8.1 42.25 8.05 41.5 Q8.15 41.05 8.45 40.85 L9.95 39.9 10.3 39.75 10.7 39.75 12 40.1 12.4 38.75 Q12.5 38.3 12.85 38.15 L14.3 37.2 14.8 37 15.25 37.15 15.65 37.6 16.55 39.15 16.6 39.95 16.15 41.9 16.65 41.25 17.15 41.05 17.6 41.05 18.1 41.25 19.5 42.75 Q19.8 43.05 19.75 43.55 L19.75 45.75 20.1 45.05 20.45 44.65 20.95 44.55 21.45 44.65 23.2 45.75 23.55 46.35 24.3 49.35 Q25.75 49.65 27.3 49 L28.85 49.05 Q29.55 49.35 29.85 50.25 30.15 51 29.8 51.8 L28.75 52.95 Q25.6 54.1 22.85 53.35 L19.1 54.95 18.65 55 18.2 54.85 16.55 53.8 16.05 53.15 Q15.95 52.7 16.15 52.4"/>
  </g>
</svg>