<svg width="64" height="64" xmlns="http://www.w3.org/2000/svg" xmlns:xlink="http://www.w3.org/1999/xlink">
  <defs/>
  <g>
    <path stroke="none" fill="#259F6C" d="M0 64 L0 0 64 0 64 64 0 64"/>
    <path stroke="none" fill="#FCC920" d="M0 26 L0 20 64 20 64 26 0 26"/>
    <path stroke="none" fill="#EEEEF7" d="M64 38 L64 44 0 44 0 38 64 38"/>
    <path stroke="none" fill="#25252A" d="M64 38 L0 38 0 26 64 26 64 38"/>
    <path stroke="none" fill="#EEEEF7" d="M38 0 L44 0 44 64 38 64 38 0"/>
    <path stroke="none" fill="#25252A" d="M38 0 L38 64 26 64 26 0 38 0"/>
    <path stroke="none" fill="#FCC920" d="M26 64 L20 64 20 0 26 0 26 64"/>
    <path stroke="none" fill="#EC2037" d="M53 32 Q53 40.7 46.8 46.8 40.65 53 32 53 23.3 53 17.1 46.8 11 40.7 11 32 11 23.3 17.1 17.1 23.3 11 32 11 40.65 11 46.8 17.1 53 23.3 53 32"/>
    <path stroke="none" fill="#259F6C" d="M23.9 25.8 Q23.55 27 23 27 22.4 27 22 25.8 L21.7 24.25 20.15 23.9 Q19 23.55 19 23 19 22.4 20.15 22 L21.7 21.7 22 20.15 Q22.4 19 23 19 23.55 19 23.9 20.15 L24.25 21.7 25.8 22 Q27 22.4 27 23 27 23.55 25.8 23.9 L24.25 24.25 23.9 25.8"/>
    <path stroke="none" fill="#259F6C" d="M32.9 21.8 Q32.55 23 32 23 31.4 23 31 21.8 L30.7 20.25 29.15 19.9 Q28 19.55 28 19 28 18.4 29.15 18 L30.7 17.7 31 16.15 Q31.4 15 32 15 32.55 15 32.9 16.15 L33.25 17.7 34.8 18 Q36 18.4 36 19 36 19.55 34.8 19.9 L33.25 20.25 32.9 21.8"/>
    <path stroke="none" fill="#259F6C" d="M32.9 47.8 Q32.55 49 32 49 31.4 49 31 47.8 L30.7 46.25 29.15 45.9 Q28 45.55 28 45 28 44.4 29.15 44 L30.7 43.7 31 42.15 Q31.4 41 32 41 32.55 41 32.9 42.15 L33.25 43.7 34.8 44 Q36 44.4 36 45 36 45.55 34.8 45.9 L33.25 46.25 32.9 47.8"/>
    <path stroke="none" fill="#259F6C" d="M19.9 34.8 Q19.55 36 19 36 18.4 36 18 34.8 L17.7 33.25 16.15 32.9 Q15 32.55 15 32 15 31.4 16.15 31 L17.7 30.7 18 29.15 Q18.4 28 19 28 19.55 28 19.9 29.15 L20.25 30.7 21.8 31 Q23 31.4 23 32 23 32.55 21.8 32.9 L20.25 33.25 19.9 34.8"/>
    <path stroke="none" fill="#259F6C" d="M45.9 34.8 Q45.55 36 45 36 44.4 36 44 34.8 L43.7 33.25 42.15 32.9 Q41 32.55 41 32 41 31.4 42.15 31 L43.7 30.7 44 29.15 Q44.4 28 45 28 45.55 28 45.9 29.15 L46.25 30.7 47.8 31 Q49 31.4 49 32 49 32.55 47.8 32.9 L46.25 33.25 45.9 34.8"/>
    <path stroke="none" fill="#259F6C" d="M41.9 25.8 Q41.55 27 41 27 40.4 27 40 25.8 L39.7 24.25 38.15 23.9 Q37 23.55 37 23 37 22.4 38.15 22 L39.7 21.7 40 20.15 Q40.4 19 41 19 41.55 19 41.9 20.15 L42.25 21.7 43.8 22 Q45 22.4 45 23 45 23.55 43.8 23.9 L42.25 24.25 41.9 25.8"/>
    <path stroke="none" fill="#259F6C" d="M41.9 43.8 Q41.55 45 41 45 40.4 45 40 43.8 L39.7 42.25 38.15 41.9 Q37 41.55 37 41 37 40.4 38.15 40 L39.7 39.7 40 38.15 Q40.4 37 41 37 41.55 37 41.9 38.15 L42.25 39.7 43.8 40 Q45 40.4 45 41 45 41.55 43.8 41.9 L42.25 42.25 41.9 43.8"/>
    <path stroke="none" fill="#259F6C" d="M23.9 43.8 Q23.55 45 23 45 22.4 45 22 43.8 L21.7 42.25 20.15 41.9 Q19 41.55 19 41 19 40.4 20.15 40 L21.7 39.7 22 38.15 Q22.4 37 23 37 23.55 37 23.9 38.15 L24.25 39.7 25.8 40 Q27 40.4 27 41 27 41.55 25.8 41.9 L24.25 42.25 23.9 43.8"/>
  </g>
</svg>