<svg width="64" height="64" xmlns="http://www.w3.org/2000/svg" xmlns:xlink="http://www.w3.org/1999/xlink">
  <defs/>
  <g>
    <path stroke="none" fill="#EC2037" d="M24 64 L0 64 0 40 24 40 24 64 M40 0 L64 0 64 24 40 24 40 0"/>
    <path stroke="none" fill="#EEEEF7" d="M40 0 L40 24 64 24 64 40 40 40 40 64 24 64 24 40 0 40 0 24 24 24 24 0 40 0"/>
    <path stroke="none" fill="#392D8C" d="M64 40 L64 64 40 64 40 40 64 40 M0 24 L0 0 24 0 24 24 0 24"/>
    <path stroke="none" fill="#EC2037" d="M32 26 L36.8 26 Q37.35 26 37.65 26.4 38 26.8 38 27.35 L38 31.3 38 32 32 32 32 26 M32 38 Q29.55 38 27.75 36.1 26.2 34.35 26.05 32 L32 32 32 38"/>
    <path stroke="none" fill="#392D8C" d="M32 38 L32 32 26.05 32 26 31.3 26 27.35 Q26 26.8 26.4 26.4 26.7 26 27.2 26 L32 26 32 32 38 32 Q37.8 34.35 36.3 36.1 34.5 38 32 38"/>
  </g>
</svg>