<svg width="64" height="64" xmlns="http://www.w3.org/2000/svg" xmlns:xlink="http://www.w3.org/1999/xlink">
  <defs/>
  <g>
    <path stroke="none" fill="#259F6C" d="M32 64 L0 64 0 0 32 0 32 64"/>
    <path stroke="none" fill="#EEEEF7" d="M32 64 L32 0 64 0 64 64 32 64"/>
    <path stroke="none" fill="#EC2037" d="M35.8 23 Q32 23 29.3 25.65 L29.3 25.7 Q26.65 28.3 26.65 32 26.65 35.7 29.3 38.35 32 41 35.8 41 L35.95 41 36.55 41.25 36.9 41.8 36.85 42.45 36.35 42.9 Q34 44 31.2 44 26.2 44 22.55 40.45 19 36.95 19 32 19 27.05 22.55 23.5 26.2 20 31.2 20 34 20 36.4 21.1 L36.9 21.55 36.95 22.25 36.6 22.8 36 23 35.8 23"/>
    <path stroke="none" fill="#EC2037" d="M40 26.2 Q40.1 26 40.45 26 L40.95 26.15 41.2 26.55 42.05 29.55 44.6 31 44.95 31.45 45 32 44.65 32.4 42.25 34.25 41.7 37.3 41.4 37.8 Q41.2 38 40.9 38 L40.4 37.85 38.1 36 35.1 36.4 34.6 36.25 34.3 35.85 Q34.2 35.55 34.35 35.3 L35.3 32.35 34.05 29.55 34 29 34.3 28.5 34.85 28.35 37.8 28.4 40 26.2"/>
  </g>
</svg>