<svg width="64" height="64" xmlns="http://www.w3.org/2000/svg" xmlns:xlink="http://www.w3.org/1999/xlink">
  <defs/>
  <g>
    <path stroke="none" fill="#EC2037" d="M64 48 L64 64 0 64 0 48 64 48"/>
    <path stroke="none" fill="#3439CB" d="M64 48 L0 48 0 32 64 32 64 48"/>
    <path stroke="none" fill="#FCC920" d="M0 32 L0 0 64 0 64 32 0 32"/>
    <path stroke="none" fill="#FCC920" d="M20 33 L20 23 Q20 21.35 21.15 20.25 L21.25 20.15 Q22.35 19 24 19 L40 19 Q41.7 19 42.9 20.2 44 21.3 44 23 L44 33 Q44 37.95 40.55 41.5 L40.5 41.55 Q36.95 45 32 45 27 45 23.55 41.55 20 38 20 33 M24 23 L24 33 Q24 36.35 26.4 38.75 28.65 41 32 41 35.3 41 37.7 38.7 40 36.3 40 33 L40 23 24 23"/>
    <path stroke="none" fill="#5193EE" d="M24 23 L40 23 40 33 Q40 36.3 37.7 38.7 35.3 41 32 41 28.65 41 26.4 38.75 24 36.35 24 33 L24 23"/>
    <path stroke="none" fill="#C4863B" d="M43.25 21.9 L39.9 25.25 Q39.4 25.7 38.7 25.7 L36.05 25.7 33.2 28.6 Q32.7 29.05 32 29.05 31.25 29.05 30.8 28.6 L27.9 25.7 25.25 25.7 Q24.55 25.7 24.1 25.25 L20.75 21.9 Q20.25 21.4 20.25 20.65 20.25 19.95 20.75 19.5 21.2 19 21.9 19 L28.6 19 Q29.35 19 29.85 19.5 L32 21.65 34.15 19.5 Q34.6 19 35.35 19 L42.05 19 Q42.75 19 43.25 19.5 43.75 19.95 43.75 20.65 43.75 21.4 43.25 21.9"/>
  </g>
</svg>