<svg width="64" height="64" xmlns="http://www.w3.org/2000/svg" xmlns:xlink="http://www.w3.org/1999/xlink">
  <defs/>
  <g>
    <path stroke="none" fill="#EC2037" d="M0 17 L0 0 64 0 64 17 0 17"/>
    <path stroke="none" fill="#EEEEF7" d="M0 17 L64 17 64 47 0 47 0 17"/>
    <path stroke="none" fill="#25252A" d="M64 47 L64 64 0 64 0 47 64 47"/>
    <path stroke="none" fill="#C4863B" d="M43.15 26.95 Q43.6 36.15 41.05 41.45 L40.65 41.9 40 42 39.45 41.7 35.45 37.7 37.1 42.7 37.05 43.45 36.5 43.95 Q32.15 45.55 27.8 43.95 L27.25 43.45 Q27.05 43.05 27.2 42.7 L28.85 37.7 24.85 41.7 24.3 42 23.65 41.9 23.25 41.4 Q20.45 34.45 21.15 26.9 21.2 26.5 21.5 26.25 21.75 26 22.15 26 L27.45 26 Q31.35 25.8 27.25 23.7 26.95 23.4 26.95 23 L26.95 21 Q26.95 20.6 27.25 20.3 27.55 20 27.95 20 L28.6 20 Q34.05 19.75 36.7 26 L42.15 26 Q42.55 26 42.85 26.3 L43.15 26.95"/>
  </g>
</svg>