<svg width="64" height="64" xmlns="http://www.w3.org/2000/svg" xmlns:xlink="http://www.w3.org/1999/xlink">
  <defs/>
  <g>
    <path stroke="none" fill="#25252A" d="M0 19 L0 0 64 0 64 19 0 19"/>
    <path stroke="none" fill="#EEEEF7" d="M0 19 L64 19 64 45 0 45 0 19"/>
    <path stroke="none" fill="#259F6C" d="M64 45 L64 64 0 64 0 45 64 45"/>
    <path stroke="none" fill="#EC2037" d="M34.85 34.85 L5.65 64 0 64 0 0 5.65 0 34.85 29.2 Q36 30.35 36 32 36 33.65 34.85 34.85"/>
    <path stroke="none" fill="#EC2037" d="M53.2 24.5 Q50 24.5 47.7 26.7 L47.7 26.75 Q45.45 28.9 45.45 32 45.45 35.1 47.7 37.3 50 39.5 53.2 39.5 L53.35 39.5 53.85 39.7 54.15 40.15 54.1 40.7 53.7 41.1 Q51.7 42 49.3 42 45.1 42 42 39.05 39 36.1 39 32 39 27.9 42 24.9 45.1 22 49.3 22 51.7 22 53.7 22.9 L54.15 23.3 54.2 23.9 53.9 24.35 53.4 24.5 53.2 24.5"/>
    <path stroke="none" fill="#EC2037" d="M56.75 27.15 Q56.85 27 57.15 27 L57.55 27.15 57.8 27.45 58.5 29.95 60.65 31.15 60.95 31.55 61 32 60.7 32.35 58.65 33.85 58.2 36.4 57.95 36.85 57.55 37 57.1 36.85 55.15 35.35 52.6 35.65 52.2 35.55 51.95 35.2 52 34.75 52.8 32.3 51.75 29.95 51.7 29.5 51.95 29.1 52.4 28.95 54.9 29 56.75 27.15"/>
  </g>
</svg>