<svg width="64" height="64" xmlns="http://www.w3.org/2000/svg" xmlns:xlink="http://www.w3.org/1999/xlink">
  <defs/>
  <g>
    <path stroke="none" fill="#259F6C" d="M0 0 L64 0 64 32 0 0"/>
    <path stroke="none" fill="#5193EE" d="M64 32 L64 64 0 64 64 32"/>
    <path stroke="none" fill="#EC2037" d="M64 32 L0 64 0 0 64 32"/>
    <path stroke="none" fill="#FCC920" d="M37.2 37.15 L37.55 37.7 Q37.8 38.2 37.55 38.6 L36.6 40.3 36.3 40.65 35.95 40.8 31.85 41.3 Q29.8 43.4 26.55 43.95 25.75 44 25.1 43.45 24.35 42.95 24.2 42.15 24.1 41.2 24.45 40.6 25 39.8 25.8 39.75 27.45 39.55 28.6 38.55 L27.75 35.6 Q27.55 35.2 27.7 34.9 L28.7 33.05 29.1 32.75 Q29.4 32.6 29.6 32.6 L30.05 32.75 30.7 33.15 29.6 31.25 Q29.35 30.85 29.45 30.45 L29.95 28.5 30.25 28.05 30.65 27.85 31.2 27.75 31.9 28.05 30.55 26.6 30.2 25.85 30.2 24.05 Q30.1 23.75 30.35 23.45 L30.65 23.1 31.15 23.05 32.9 23.2 Q33.35 23.1 33.55 23.4 L34.65 24.35 35.55 23.45 35.95 23.25 36.3 23.2 38.05 23.35 Q38.4 23.3 38.7 23.65 L39.05 24.35 39.1 26.15 39 26.5 38.8 26.85 37.15 28.55 37.2 29.55 39 30.15 39.65 30.7 39.8 31.45 39.25 33.5 39.15 33.8 38.8 34.15 36.3 35.5 35.8 35.5 35.5 36.2 37.2 37.15 M6.65 37.15 L8.4 36.15 8.05 35.5 7.55 35.5 5.05 34.1 4.7 33.85 4.6 33.55 4.05 31.45 Q3.95 31.2 4.2 30.7 L4.85 30.15 6.65 29.6 6.7 28.55 5.05 26.85 4.85 26.55 4.8 26.15 4.8 24.35 Q4.85 23.95 5.15 23.6 5.45 23.3 5.8 23.35 L7.55 23.2 7.9 23.3 8.3 23.5 9.2 24.4 10.3 23.45 Q10.55 23.15 10.95 23.2 L12.7 23.05 13.2 23.1 13.5 23.5 Q13.75 23.7 13.65 24.05 L13.65 25.85 13.3 26.6 11.95 28.05 12.65 27.75 13.2 27.85 Q13.45 27.8 13.6 28.05 L13.9 28.5 14.4 30.5 14.25 31.3 13.15 33.15 13.8 32.8 14.25 32.6 14.75 32.75 15.15 33.1 16.15 34.9 16.1 35.6 15.25 38.6 Q16.4 39.6 18.05 39.75 18.85 39.85 19.4 40.6 19.75 41.2 19.65 42.15 19.5 42.95 18.8 43.45 18.1 43.95 17.3 43.95 14.05 43.35 12 41.3 L7.9 40.8 7.55 40.6 7.25 40.3 6.35 38.55 Q6.05 38.15 6.3 37.75 6.4 37.3 6.65 37.15"/>
    <path stroke="none" fill="#FCC920" d="M26 33 Q26 34.65 24.8 35.8 23.65 37 22 37 20.35 37 19.15 35.8 18 34.65 18 33 18 31.35 19.15 30.15 20.35 29 22 29 23.65 29 24.8 30.15 26 31.35 26 33"/>
    <path stroke="none" fill="#FCC920" d="M26 27 Q26 28.65 24.8 29.8 23.65 31 22 31 20.35 31 19.15 29.8 18 28.65 18 27 18 25.35 19.15 24.15 20.35 23 22 23 23.65 23 24.8 24.15 26 25.35 26 27"/>
  </g>
</svg>