<svg width="64" height="64" xmlns="http://www.w3.org/2000/svg" xmlns:xlink="http://www.w3.org/1999/xlink">
  <defs/>
  <g>
    <path stroke="none" fill="#EC2037" d="M64 48 L64 64 0 64 0 48 64 48 M0 16 L0 0 64 0 64 16 0 16"/>
    <path stroke="none" fill="#FCC920" d="M0 16 L64 16 64 48 0 48 0 16"/>
    <path stroke="none" fill="#C4863B" d="M21.65 42.45 Q19.3 45 16 45 12.65 45 10.35 42.45 8 39.85 8 36.25 L8 32.75 Q8 32 8.45 31.5 8.9 31 9.6 31 L22.4 31 Q23.05 31 23.55 31.5 24 32 24 32.75 L24 36.25 Q24 39.85 21.65 42.45"/>
    <path stroke="none" fill="#C4863B" d="M12 20 Q13.7 20 14.85 21 L15 21.15 17 21.15 17.2 21 Q18.35 20 20 20 21.65 20 22.8 21 L22.85 21 23 21.15 Q24 22.1 24 23.4 24 24.8 22.85 25.8 22.2 26.35 21.4 26.6 L21.35 26.6 21.35 27.9 21 28.7 20 29 12 29 11.1 28.7 Q10.7 28.35 10.7 27.9 L10.7 26.6 9.2 25.8 Q8 24.8 8 23.4 8 22.1 9 21.15 L9.2 21 9.25 21 Q10.4 20 12 20 M17.6 18.5 Q17.6 19.1 17.1 19.55 L16 20 Q15.35 20 14.9 19.55 14.4 19.1 14.4 18.5 14.4 17.9 14.9 17.45 15.35 17 16 17 16.65 17 17.1 17.45 17.6 17.9 17.6 18.5"/>
  </g>
</svg>