<svg width="64" height="64" xmlns="http://www.w3.org/2000/svg" xmlns:xlink="http://www.w3.org/1999/xlink">
  <defs/>
  <g>
    <path stroke="none" fill="#259F6C" d="M0 21 L0 0 64 0 64 21 0 21"/>
    <path stroke="none" fill="#EC2037" d="M64 43 L64 64 0 64 0 43 64 43"/>
    <path stroke="none" fill="#FCC920" d="M64 43 L0 43 0 21 64 21 64 43"/>
    <path stroke="none" fill="#3439CB" d="M48 32 Q48 38.6 43.3 43.3 38.6 48 32 48 25.4 48 20.65 43.3 16 38.6 16 32 16 25.4 20.65 20.65 25.4 16 32 16 38.6 16 43.3 20.65 48 25.4 48 32"/>
    <path stroke="none" fill="#FCC920" d="M33.2 21.7 L35.9 26.3 40.95 27.6 Q41.45 27.7 41.75 28.1 L42 29.05 41.7 29.95 38.3 34.05 38.7 39.45 38.5 40.4 37.75 40.95 36.8 40.9 32 38.85 27.2 40.9 26.3 40.95 25.55 40.4 Q25.25 39.95 25.3 39.45 L25.7 34.05 22.35 29.95 Q22 29.55 22 29.05 22 28.5 22.3 28.1 22.6 27.7 23.05 27.6 L28.1 26.3 30.85 21.7 Q31.1 21.25 31.55 21.1 32 20.95 32.45 21.1 L33.2 21.7"/>
    <path stroke="none" fill="#3439CB" d="M36 30.3 Q36.1 30.9 35.75 31.35 L35.8 31.3 33.45 35.25 Q33.1 35.85 32.5 35.95 L31.6 35.95 Q30.95 35.85 30.65 35.25 L28.3 31.35 Q27.9 30.9 28 30.3 L28 30.25 Q28.1 29.75 28.55 29.35 L28.65 29.3 Q29.1 29 29.6 29 L34.45 29 Q35 29 35.45 29.35 L36 30.25 36 30.3"/>
  </g>
</svg>