<svg width="64" height="64" xmlns="http://www.w3.org/2000/svg" xmlns:xlink="http://www.w3.org/1999/xlink">
  <defs/>
  <g>
    <path stroke="none" fill="#5193EE" d="M0 64 L0 0 64 0 64 64 0 64"/>
    <path stroke="none" fill="#EEEEF7" d="M34.2 18.3 Q33.3 20 32 20 30.8 20 29.9 18.3 L29.3 16.7 27.8 16.2 Q26 15.3 26 14 26 12.75 27.8 11.85 L29.4 11.3 29.9 9.75 Q30.8 8 32 8 33.3 8 34.2 9.75 L34.7 11.3 36.3 11.85 Q38 12.75 38 14 38 15.3 36.3 16.2 L34.7 16.7 34.2 18.3"/>
    <path stroke="none" fill="#EEEEF7" d="M52.2 36.3 Q51.3 38 50 38 48.8 38 47.9 36.3 L47.3 34.7 45.8 34.2 Q44 33.3 44 32 44 30.75 45.8 29.85 L47.4 29.3 47.9 27.75 Q48.8 26 50 26 51.3 26 52.2 27.75 L52.7 29.3 54.3 29.85 Q56 30.75 56 32 56 33.3 54.3 34.2 L52.7 34.7 52.2 36.3"/>
    <path stroke="none" fill="#EEEEF7" d="M16.2 36.3 Q15.3 38 14 38 12.8 38 11.9 36.3 L11.3 34.7 9.8 34.2 Q8 33.3 8 32 8 30.75 9.8 29.85 L11.4 29.3 11.9 27.75 Q12.8 26 14 26 15.3 26 16.2 27.75 L16.7 29.3 18.3 29.85 Q20 30.75 20 32 20 33.3 18.3 34.2 L16.7 34.7 16.2 36.3"/>
    <path stroke="none" fill="#EEEEF7" d="M34.2 54.3 Q33.3 56 32 56 30.8 56 29.9 54.3 L29.3 52.7 27.8 52.2 Q26 51.3 26 50 26 48.75 27.8 47.85 L29.4 47.3 29.9 45.75 Q30.8 44 32 44 33.3 44 34.2 45.75 L34.7 47.3 36.3 47.85 Q38 48.75 38 50 38 51.3 36.3 52.2 L34.7 52.7 34.2 54.3"/>
  </g>
</svg>