<svg width="64" height="64" xmlns="http://www.w3.org/2000/svg" xmlns:xlink="http://www.w3.org/1999/xlink">
  <defs/>
  <g>
    <path stroke="none" fill="#259F6C" d="M64 32 L64 64 0 64 0 32 64 32"/>
    <path stroke="none" fill="#EEEEF7" d="M64 32 L0 32 0 0 64 0 64 32"/>
    <path stroke="none" fill="#EC2037" d="M17.2 22.5 Q17.25 21 18.3 20 19.35 19 20.85 19 22.3 19.05 23.3 20.1 24.3 21.15 24.3 22.65 24.2 27.95 26.4 30.05 27.55 30.95 27.75 32.4 27.9 33.85 27 35.05 26.1 36.2 24.65 36.4 23.2 36.55 22.05 35.65 L20.7 34.55 Q17.05 30.75 17.2 22.5"/>
    <path stroke="none" fill="#EC2037" d="M30.7 30 Q37.5 25.55 43.8 29.35 45.75 30.45 46.4 32.65 47 34.85 45.85 36.8 44.75 38.75 42.55 39.4 40.4 39.95 38.4 38.85 37.55 38.55 36.6 39.2 L36.55 39.25 Q29.8 43.75 22.15 38.65 20.25 37.4 19.8 35.2 19.35 32.95 20.6 31.1 21.85 29.2 24.1 28.75 26.3 28.3 28.2 29.55 29.5 30.45 30.7 30"/>
    <path stroke="none" fill="#EC2037" d="M44.8 31.2 Q43 25.6 46.7 21.85 47.3 21.25 48.15 21.25 48.95 21.25 49.55 21.85 50.15 22.4 50.15 23.25 50.15 24.05 49.6 24.65 47.6 26.8 48.6 30 50.45 35.65 45.4 40.15 44.75 40.7 43.95 40.65 43.1 40.6 42.55 40 42 39.35 42.05 38.55 42.1 37.7 42.75 37.15 45.75 34.45 44.8 31.2"/>
    <path stroke="none" fill="#EC2037" d="M39.45 15.8 L39.7 16.9 39.7 16.95 Q39.8 17.6 40.3 17.9 L40.35 17.95 41.15 18.3 Q41.65 18.35 42.1 18.65 42.5 18.9 42.6 19.4 L42.65 19.45 42.7 20.3 42.35 21.2 41.65 21.65 Q41.2 21.75 40.1 23.5 39 25.2 39.65 28.5 L37.1 30.55 Q30.5 34.9 29 34.4 L28.9 34.4 Q26.9 33.85 25.95 32.25 24.8 30.55 25.4 28.65 25.75 26.7 27.5 25.7 31.35 23.25 31.55 20.85 L31.65 17.35 31.8 15.55 32 14.9 Q32.1 14.35 32.6 14.05 33.1 13.65 33.65 13.7 34.25 13.8 34.75 14.2 L35.3 15.15 35.5 15.65 36.25 15.8 Q36.6 15.75 36.85 15.5 37.2 15.15 37.7 15.1 L38.75 15.15 39.45 15.8"/>
    <path stroke="none" fill="#EC2037" d="M24.65 18.3 Q25.9 18.4 26.65 19.4 27.4 20.35 27.3 21.6 27.15 22.85 26.15 23.6 25.4 24.2 24.55 24.25 L15.55 27.3 Q13.3 27.75 12.75 26.35 L12.35 24.7 Q11.9 23.1 13.75 22.5 L16.85 21.45 17.75 18.6 24.65 18.3"/>
    <path stroke="none" fill="#EC2037" d="M49.8 19.35 L51.2 19.45 Q51.85 19.75 52.15 20.4 52.45 21.05 52.3 21.75 L51.2 25.95 Q50.95 26.75 50.25 27.2 L48.75 27.4 Q47.95 27.15 47.55 26.45 47.1 25.75 47.35 24.95 L47.55 24.05 46.55 24.35 45.05 24.15 Q44.3 23.75 44.1 22.95 43.85 22.15 44.25 21.45 44.65 20.7 45.45 20.5 L49.8 19.35"/>
    <path stroke="none" fill="#EC2037" d="M26 35.8 Q26.25 35.05 27.05 34.7 L28.65 34.55 Q29.45 34.8 29.85 35.55 30.2 36.25 29.95 37.05 L26.4 47.15 25.7 48.1 24.45 48.45 18.05 48.45 Q18.35 45.15 22.95 44.55 L26 35.8"/>
    <path stroke="none" fill="#EC2037" d="M34.75 48.45 L28.05 48.45 Q29 45.05 32.55 44.55 L33.65 42.85 31.7 37 Q31.45 36.2 31.85 35.5 32.3 34.8 33.15 34.55 33.7 34.35 34.3 34.55 L35.75 34.7 Q36.55 35.1 36.8 35.85 L39 42.6 39.05 43.35 38.8 44.15 36.6 47.5 35.8 48.2 34.75 48.45"/>
    <path stroke="none" fill="#EC2037" d="M39.3 48.45 Q39.15 45.15 41.85 44.6 L41.85 44.55 39.4 37.05 Q39.15 36.25 39.45 35.6 39.8 34.8 40.55 34.55 L41.65 34.5 43 34.65 Q43.65 35 43.9 35.75 L47.2 45.85 Q47.4 46.5 47.2 47.1 L46.55 48.05 Q46 48.45 45.4 48.45 L39.3 48.45"/>
    <path stroke="none" fill="#EC2037" d="M28.4 17.2 L28.45 17.25 Q29.15 17.85 29.2 18.75 29.3 19.8 28.75 20.75 27.2 23.45 24.35 25.65 23.7 26.35 22.75 26.35 21.8 26.5 21.1 25.9 L21.05 25.85 Q20.35 25.25 20.25 24.25 20.15 23.3 20.8 22.6 L25.15 17.45 Q25.75 16.75 26.7 16.65 27.7 16.6 28.4 17.2"/>
    <path stroke="none" fill="#EC2037" d="M12 38.4 L12 30.25 Q15.9 30.55 15.95 34.3 19.6 35.25 23.6 34.35 L25.1 34.55 Q25.75 35 25.95 35.75 L25.95 36.7 Q26.15 37.4 25.7 38.1 L24.55 38.9 Q20 39.95 15.85 39.05 L15.4 39.75 Q14.8 40.25 14 40.25 13.15 40.25 12.6 39.75 12 39.2 12 38.4"/>
  </g>
</svg>