<svg width="64" height="64" xmlns="http://www.w3.org/2000/svg" xmlns:xlink="http://www.w3.org/1999/xlink">
  <defs/>
  <g>
    <path stroke="none" fill="#FCC920" d="M52 12 L32 32 12 12 52 12 M12 52 L32 32 52 52 12 52"/>
    <path stroke="none" fill="#259F6C" d="M12 52 L12 12 32 32 52 12 52 52 32 32 12 52"/>
    <path stroke="none" fill="#EC2037" d="M12 52 L52 52 52 12 12 12 12 52 M0 64 L0 0 64 0 64 64 0 64"/>
    <path stroke="none" fill="#FCC920" d="M33.45 8.85 Q32.85 10 32 10 31.2 10 30.6 8.85 L30.2 7.8 29.2 7.45 Q28 6.85 28 6 28 5.1 29.2 4.5 L30.25 4.2 30.6 3.1 Q31.2 2 32 2 32.85 2 33.45 3.1 L33.8 4.2 34.85 4.5 Q36 5.1 36 6 36 6.85 34.85 7.45 L33.8 7.8 33.45 8.85"/>
    <path stroke="none" fill="#FCC920" d="M18.45 8.85 Q17.85 10 17 10 16.2 10 15.6 8.85 L15.2 7.8 14.2 7.45 Q13 6.85 13 6 13 5.1 14.2 4.5 L15.25 4.2 15.6 3.1 Q16.2 2 17 2 17.85 2 18.45 3.1 L18.8 4.2 19.85 4.5 Q21 5.1 21 6 21 6.85 19.85 7.45 L18.8 7.8 18.45 8.85"/>
    <path stroke="none" fill="#FCC920" d="M48.45 8.85 Q47.85 10 47 10 46.2 10 45.6 8.85 L45.2 7.8 44.2 7.45 Q43 6.85 43 6 43 5.1 44.2 4.5 L45.25 4.2 45.6 3.1 Q46.2 2 47 2 47.85 2 48.45 3.1 L48.8 4.2 49.85 4.5 Q51 5.1 51 6 51 6.85 49.85 7.45 L48.8 7.8 48.45 8.85"/>
    <path stroke="none" fill="#FCC920" d="M33.45 60.85 Q32.85 62 32 62 31.2 62 30.6 60.85 L30.2 59.8 29.2 59.45 Q28 58.85 28 58 28 57.1 29.2 56.5 L30.25 56.2 30.6 55.1 Q31.2 54 32 54 32.85 54 33.45 55.1 L33.8 56.2 34.85 56.5 Q36 57.1 36 58 36 58.85 34.85 59.45 L33.8 59.8 33.45 60.85"/>
    <path stroke="none" fill="#FCC920" d="M18.45 60.85 Q17.85 62 17 62 16.2 62 15.6 60.85 L15.2 59.8 14.2 59.45 Q13 58.85 13 58 13 57.1 14.2 56.5 L15.25 56.2 15.6 55.1 Q16.2 54 17 54 17.85 54 18.45 55.1 L18.8 56.2 19.85 56.5 Q21 57.1 21 58 21 58.85 19.85 59.45 L18.8 59.8 18.45 60.85"/>
    <path stroke="none" fill="#FCC920" d="M48.45 60.85 Q47.85 62 47 62 46.2 62 45.6 60.85 L45.2 59.8 44.2 59.45 Q43 58.85 43 58 43 57.1 44.2 56.5 L45.25 56.2 45.6 55.1 Q46.2 54 47 54 47.85 54 48.45 55.1 L48.8 56.2 49.85 56.5 Q51 57.1 51 58 51 58.85 49.85 59.45 L48.8 59.8 48.45 60.85"/>
    <path stroke="none" fill="#EC2037" d="M40 32 Q40 35.3 37.65 37.65 35.3 40 32 40 28.7 40 26.35 37.65 24 35.3 24 32 24 28.65 26.35 26.35 28.7 24 32 24 35.3 24 37.65 26.35 40 28.65 40 32"/>
    <path stroke="none" fill="#FCC920" d="M33.45 34.85 Q32.85 36 32 36 31.2 36 30.6 34.85 L30.2 33.8 29.2 33.45 Q28 32.85 28 32 28 31.1 29.2 30.5 L30.25 30.2 30.6 29.1 Q31.2 28 32 28 32.85 28 33.45 29.1 L33.8 30.2 34.85 30.5 Q36 31.1 36 32 36 32.85 34.85 33.45 L33.8 33.8 33.45 34.85"/>
    <path stroke="none" fill="#FCC920" d="M18 37 Q16.35 37 15.15 36 14 35.05 14 33.7 14.25 29.55 18 27 21.75 29.55 22 33.7 22 35.05 20.85 36 19.65 37 18 37"/>
    <path stroke="none" fill="#EC2037" d="M20 35 Q20 35.85 19.4 36.4 18.85 37 18 37 17.2 37 16.6 36.4 16 35.85 16 35 16 34.2 16.6 33.6 17.2 33 18 33 18.85 33 19.4 33.6 20 34.2 20 35"/>
  </g>
</svg>