<svg width="64" height="64" xmlns="http://www.w3.org/2000/svg" xmlns:xlink="http://www.w3.org/1999/xlink">
  <defs/>
  <g>
    <path stroke="none" fill="#EEEEF7" d="M64 0 L64 64 0 64 0 0 64 0"/>
    <path stroke="none" fill="#EC2037" d="M40 0 L40 64 24 64 24 0 40 0"/>
    <path stroke="none" fill="#EC2037" d="M64 40 L0 40 0 24 64 24 64 40"/>
    <path stroke="none" fill="#EC2037" d="M11 6 L13 6 Q13.45 6 13.75 6.3 L14 7 14 10 17 10 Q17.45 10 17.75 10.3 L18 11 18 13 17.75 13.75 17 14 14 14 14 17 13.75 17.75 13 18 11 18 Q10.6 18 10.3 17.75 10 17.45 10 17 L10 14 7 14 6.3 13.75 Q6 13.45 6 13 L6 11 Q6 10.6 6.3 10.3 6.6 10 7 10 L10 10 10 7 Q10 6.6 10.3 6.3 10.6 6 11 6"/>
    <path stroke="none" fill="#EC2037" d="M51 6 L53 6 Q53.45 6 53.75 6.3 L54 7 54 10 57 10 Q57.45 10 57.75 10.3 L58 11 58 13 57.75 13.75 57 14 54 14 54 17 53.75 17.75 53 18 51 18 50.3 17.75 Q50 17.45 50 17 L50 14 47 14 46.3 13.75 Q46 13.45 46 13 L46 11 Q46 10.6 46.3 10.3 46.6 10 47 10 L50 10 50 7 Q50 6.6 50.3 6.3 50.6 6 51 6"/>
    <path stroke="none" fill="#EC2037" d="M51 46 L53 46 Q53.45 46 53.75 46.3 L54 47 54 50 57 50 Q57.45 50 57.75 50.3 L58 51 58 53 57.75 53.75 57 54 54 54 54 57 53.75 57.75 53 58 51 58 50.3 57.75 Q50 57.45 50 57 L50 54 47 54 46.3 53.75 Q46 53.45 46 53 L46 51 Q46 50.6 46.3 50.3 46.6 50 47 50 L50 50 50 47 Q50 46.6 50.3 46.3 50.6 46 51 46"/>
    <path stroke="none" fill="#EC2037" d="M11 46 L13 46 Q13.45 46 13.75 46.3 L14 47 14 50 17 50 Q17.45 50 17.75 50.3 L18 51 18 53 17.75 53.75 17 54 14 54 14 57 13.75 57.75 13 58 11 58 Q10.6 58 10.3 57.75 10 57.45 10 57 L10 54 7 54 6.3 53.75 Q6 53.45 6 53 L6 51 Q6 50.6 6.3 50.3 6.6 50 7 50 L10 50 10 47 Q10 46.6 10.3 46.3 10.6 46 11 46"/>
  </g>
</svg>