<svg width="64" height="64" xmlns="http://www.w3.org/2000/svg" xmlns:xlink="http://www.w3.org/1999/xlink">
  <defs/>
  <g>
    <path stroke="none" fill="#EEEEF7" d="M0 37 L0 0 64 0 64 37 0 37"/>
    <path stroke="none" fill="#EC2037" d="M0 37 L64 37 64 64 0 64 0 37"/>
    <path stroke="none" fill="#EC2037" d="M39 6 L41 6 Q41.4 6 41.7 6.3 L42 7 42 15.6 41.7 16.3 38.05 20 41 20 Q41.4 20 41.7 20.3 L42 21 42 34 41.7 34.7 41 35 39 35 38.3 34.7 Q38 34.4 38 34 L38 30.1 Q37.95 28.05 36.25 26.55 L36.3 26.55 Q34.5 25 32 25 29.5 25 27.75 26.55 26.05 28.05 26 30.1 L26 34 25.7 34.7 25 35 23 35 Q22.6 35 22.3 34.7 22 34.4 22 34 L22 21 Q22 20.6 22.3 20.3 22.6 20 23 20 L26 20 22.3 16.3 Q22 16 22 15.6 L22 7 Q22 6.6 22.3 6.3 22.6 6 23 6 L25 6 Q25.4 6 25.7 6.3 L26 7 26 10 30 10 30 7 Q30 6.6 30.3 6.3 30.6 6 31 6 L33 6 Q33.4 6 33.7 6.3 L34 7 34 10 38 10 38 7 Q38 6.6 38.3 6.3 38.6 6 39 6 M45 13 L51 13 Q51.4 13 51.7 13.3 L52 14 52 31 51.7 31.7 Q51.4 32 51 32 L45 32 Q44.6 32 44.3 31.7 44 31.4 44 31 L44 14 Q44 13.6 44.3 13.3 44.6 13 45 13 M13 13 L19 13 Q19.4 13 19.7 13.3 L20 14 20 31 19.7 31.7 19 32 13 32 12.3 31.7 Q12 31.4 12 31 L12 14 Q12 13.6 12.3 13.3 12.6 13 13 13"/>
    <path stroke="none" fill="#FCC920" d="M31.95 40 Q32.8 39.95 33.3 39.35 L33.35 39.4 Q34 38.75 33.95 37.9 33.95 37.1 33.35 36.6 L33.35 36.5 Q32.8 35.95 31.95 36 31.15 36 30.65 36.6 L30.6 36.65 Q30 37.15 30 37.95 30 38.85 30.45 39.4 L30.55 39.4 Q31.1 39.95 31.95 40 M27.75 49.4 L27.7 49.35 27.05 49.1 Q26.75 48.8 26.75 48.4 L27.05 47.7 Q27.35 47.4 27.75 47.4 L29.75 47.3 29.8 44.3 29.9 44.3 29.9 43.65 Q28.7 43.25 27.65 42.3 L27.7 42.25 Q26 40.55 26 38 26.05 35.6 27.85 33.8 29.65 32 32.05 32 34.55 31.9 36.25 33.6 38 35.45 37.95 37.9 37.95 40.4 36.15 42.1 L36.1 42.15 Q35.2 43.15 33.85 43.6 L33.85 45.3 33.75 45.3 33.55 54.2 33.25 54.9 Q33 55.25 32.6 55.25 L27.6 55.35 Q27.2 55.35 26.9 55.05 L26.6 54.4 Q26.65 53.9 26.9 53.65 27.2 53.35 27.55 53.35 L27.6 53.4 27.75 49.4"/>
  </g>
</svg>