<svg width="64" height="64" xmlns="http://www.w3.org/2000/svg" xmlns:xlink="http://www.w3.org/1999/xlink">
  <defs/>
  <g>
    <path stroke="none" fill="#5193EE" d="M50 0 L64 0 64 64 50 64 50 0 M14 64 L0 64 0 0 14 0 14 64"/>
    <path stroke="none" fill="#EEEEF7" d="M14 64 L14 0 50 0 50 64 14 64"/>
    <path stroke="none" fill="#C4863B" d="M40 32 Q40 35.3 37.7 37.65 36.05 39.25 33.95 39.8 L32 40 30.05 39.8 Q27.95 39.25 26.35 37.65 24 35.3 24 32 24 28.7 26.35 26.35 28.7 24 32 24 35.3 24 37.7 26.35 40 28.7 40 32"/>
    <path stroke="none" fill="#259F6C" d="M23.25 24.55 L23.3 24.65 Q23.5 25.95 22.95 26.9 22.4 27.9 21.35 28.2 L20.6 28.35 20.75 28.5 20.8 28.55 Q21.55 29.45 21.5 30.45 21.55 31.5 20.8 32.3 L20.1 32.9 20.65 33.25 20.75 33.3 Q21.65 34 21.85 35 22.05 35.85 21.7 36.65 L21.85 36.65 21.95 36.7 Q23.1 36.7 23.7 37.4 24.5 38.1 24.45 39.3 L24.45 39.75 25 39.8 Q26.05 40 26.65 40.95 27.2 41.95 27 42.95 26.9 43.95 25.95 44.65 25.85 44.6 25.9 44.7 24.2 45.9 22.65 46 21.15 46.15 20.5 45.25 20 44.25 20.6 42.85 L21.15 42.05 Q19.6 41.9 18.6 41.3 17.2 40.6 17.05 39.45 17.1 38.55 18.1 37.8 L18.05 37.8 17.95 37.75 Q16.3 36.65 15.5 35.15 14.75 33.8 15.3 32.8 15.8 32.05 16.95 32.05 15.75 30.7 15.3 29.2 14.85 27.7 15.6 26.85 16.35 26.1 17.8 26.55 L18.1 26.65 17.95 26.15 17.9 26.05 Q17.35 23.85 17.75 22.1 18.05 20.4 19.25 20.05 20.35 19.75 21.45 21.05 22.65 22.35 23.25 24.55"/>
    <path stroke="none" fill="#259F6C" d="M40.85 24.55 Q41.45 22.35 42.65 21.05 43.75 19.75 44.85 20.05 46.05 20.4 46.35 22.1 46.75 23.85 46.2 26.05 L46.15 26.15 46 26.65 46.3 26.55 Q47.75 26.1 48.5 26.85 49.25 27.7 48.8 29.2 48.35 30.7 47.15 32.05 48.3 32.05 48.8 32.8 49.35 33.8 48.6 35.15 47.8 36.65 46.15 37.75 L46.05 37.8 46 37.8 Q47 38.55 47.05 39.45 46.9 40.6 45.5 41.3 L42.95 42.05 43.5 42.85 Q44.1 44.25 43.6 45.25 42.95 46.15 41.45 46 39.9 45.9 38.2 44.7 L38.15 44.65 Q37.2 43.95 37.1 42.95 36.9 41.95 37.45 40.95 38.05 40 39.1 39.8 L39.65 39.75 39.65 39.3 Q39.6 38.1 40.4 37.4 41 36.7 42.15 36.7 L42.25 36.65 42.4 36.65 Q42.05 35.85 42.25 35 42.45 34 43.35 33.3 L43.45 33.25 44 32.9 43.3 32.3 Q42.55 31.5 42.6 30.45 42.55 29.45 43.3 28.55 L43.35 28.5 43.5 28.35 42.75 28.2 Q41.7 27.9 41.15 26.9 40.6 25.95 40.8 24.65 L40.85 24.55"/>
  </g>
</svg>