<svg width="64" height="64" xmlns="http://www.w3.org/2000/svg" xmlns:xlink="http://www.w3.org/1999/xlink">
  <defs/>
  <g>
    <path stroke="none" fill="#392D8C" d="M6 58 L6 6 58 6 58 58 6 58"/>
    <path stroke="none" fill="#EC2037" d="M6 58 L58 58 58 6 6 6 6 58 M0 64 L0 0 64 0 64 64 0 64"/>
    <path stroke="none" fill="#EC2037" d="M23 46.95 Q18.5 43 16.9 38 16 35.15 16 32 16 23.25 23 17.05 27.05 13.5 32 12 36.9 13.5 41 17.05 48 23.25 48 32 48 35.15 47.1 38 45.5 43 41 46.95 36.9 50.5 32 52 27.05 50.5 23 46.95 M42.8 38 Q44 35.2 44 32 43.95 25.05 38.4 20.1 L38.35 20.05 Q35.4 17.5 32 16.25 28.55 17.5 25.65 20.05 20.05 25 20 32 20 35.2 21.2 38 22.6 41.3 25.65 43.95 28.55 46.5 32 47.8 35.4 46.5 38.35 43.95 L38.4 43.95 Q41.4 41.25 42.8 38"/>
    <path stroke="none" fill="#5193EE" d="M42.8 38 L21.2 38 Q20 35.2 20 32 20.05 25 25.65 20.05 28.55 17.5 32 16.25 35.4 17.5 38.35 20.05 L38.4 20.1 Q43.95 25.05 44 32 44 35.2 42.8 38"/>
    <path stroke="none" fill="#FCC920" d="M42.8 38 Q41.4 41.25 38.4 43.95 L38.35 43.95 Q35.4 46.5 32 47.8 28.55 46.5 25.65 43.95 22.6 41.3 21.2 38 L42.8 38"/>
    <path stroke="none" fill="#C4863B" d="M34.15 40 L29.75 40 30.65 30.9 27.05 33.3 Q26.3 32.5 26.7 31.3 27.1 30.4 28 29.7 L24 29.7 Q24 28.5 25.45 27.6 26.9 26.8 29.05 26.8 L26.5 24.65 Q27.45 23.85 29.2 24.1 30.65 24.4 32 25.35 33.3 24.4 34.8 24.1 36.55 23.85 37.5 24.65 L34.95 26.8 Q37.05 26.8 38.55 27.6 40 28.5 40 29.7 L35.9 29.7 Q36.9 30.4 37.2 31.3 37.7 32.5 36.95 33.3 L33.35 30.9 34.15 40"/>
  </g>
</svg>