<svg width="64" height="64" xmlns="http://www.w3.org/2000/svg" xmlns:xlink="http://www.w3.org/1999/xlink">
  <defs/>
  <g>
    <path stroke="none" fill="#FCC920" d="M24 0 L64 0 64 32 24 32 24 0"/>
    <path stroke="none" fill="#EC2037" d="M24 0 L24 32 24 64 0 64 0 0 24 0"/>
    <path stroke="none" fill="#259F6C" d="M64 32 L64 64 24 64 24 32 64 32"/>
    <path stroke="none" fill="#25252A" d="M12.95 24.55 L15.1 28.25 19.15 29.3 Q19.55 29.35 19.8 29.7 L20 30.45 19.75 31.15 17.05 34.45 17.35 38.75 17.2 39.5 16.6 39.95 15.85 39.9 12 38.3 8.15 39.9 7.45 39.95 Q7.05 39.85 6.85 39.5 6.6 39.15 6.65 38.75 L6.95 34.45 4.3 31.15 Q4 30.85 4 30.45 4 30 4.25 29.7 4.5 29.35 4.85 29.3 L8.9 28.25 11.1 24.55 11.65 24.1 Q12 23.95 12.35 24.1 12.75 24.2 12.95 24.55"/>
  </g>
</svg>