<svg width="64" height="64" xmlns="http://www.w3.org/2000/svg" xmlns:xlink="http://www.w3.org/1999/xlink">
  <defs/>
  <g>
    <path stroke="none" fill="#EC2037" d="M0 64 L0 0 64 0 64 64 0 64"/>
    <path stroke="none" fill="#EEEEF7" d="M25.6 22.25 Q25.4 19.35 26.85 17.15 29.35 12.9 34.25 13 34.65 13.05 34.9 13.25 L35.35 13.95 35.35 14.8 34.95 15.45 Q33.7 16.65 34.5 18.15 L34.6 18.4 Q35.2 19.5 35.3 20.9 35.45 23.3 34.2 25.1 33.2 26.45 31.8 27.2 31.35 27.65 31.8 29.35 L31.7 30.25 31.15 30.9 30.35 31 Q26.1 29.55 25.6 22.25 M40.35 22.9 Q42.85 21.6 45.4 22.05 50.1 22.85 51.95 27.55 L51.95 28.25 51.5 28.95 50.8 29.3 50.1 29.15 Q48.5 28.45 47.45 29.85 L47.35 30.05 45.35 31.65 Q43.35 32.75 41.3 32.3 39.7 31.8 38.5 30.8 37.9 30.55 36.6 31.65 36.2 31.9 35.75 31.95 35.3 32 34.95 31.65 34.55 31.35 34.55 30.9 34.15 26.25 40.35 22.9 M43.35 36.75 Q45.45 38.65 46 41.3 47.05 46.15 43.5 49.65 L42.9 50 42.15 49.8 41.55 49.2 41.4 48.45 Q41.45 46.7 39.85 46.2 L39.55 46.15 Q38.45 45.8 37.45 44.85 35.7 43.3 35.35 41.05 35.2 39.35 35.65 37.85 35.65 37.15 34.2 36.35 L33.65 35.6 Q33.4 35.15 33.6 34.75 33.7 34.25 34.05 34.1 38.1 31.95 43.35 36.75 M19.7 36.65 Q17 36.1 15.3 34.1 12.05 30.4 13.35 25.55 L13.8 24.9 14.5 24.7 15.35 24.9 15.8 25.45 Q16.55 27.05 18.25 26.6 L18.45 26.55 Q19.6 26.3 21 26.55 23.25 27 24.55 28.7 25.55 30.05 25.85 31.65 26.25 32.2 27.9 32.2 L28.7 32.55 Q29.15 32.85 29.15 33.3 29.3 33.75 29.05 34.1 26.6 38 19.7 36.65 M31.5 46.1 Q30.35 48.65 28 49.85 23.8 52.2 19.6 49.6 L19.15 49.05 19.1 48.2 19.5 47.45 Q19.8 47.15 20.15 47.1 21.8 46.7 21.85 45 L21.85 44.75 Q21.9 43.5 22.45 42.2 23.45 40.05 25.4 39.15 26.95 38.5 28.5 38.55 29.1 38.35 29.55 36.7 L30.05 36 Q30.4 35.6 30.9 35.7 31.35 35.7 31.6 36.05 34.55 39.5 31.5 46.1"/>
  </g>
</svg>