<svg width="64" height="64" xmlns="http://www.w3.org/2000/svg" xmlns:xlink="http://www.w3.org/1999/xlink">
  <defs/>
  <g>
    <path stroke="none" fill="#5193EE" d="M64 47 L64 64 0 64 0 47 64 47 M0 17 L0 0 64 0 64 17 0 17"/>
    <path stroke="none" fill="#EEEEF7" d="M0 17 L64 17 64 47 0 47 0 17"/>
    <path stroke="none" fill="#5193EE" d="M33.45 34.85 Q32.85 36 32 36 31.2 36 30.6 34.85 L30.2 33.8 29.2 33.45 Q28 32.85 28 32 28 31.15 29.2 30.55 L30.25 30.2 30.6 29.15 Q31.2 28 32 28 32.85 28 33.45 29.15 L33.8 30.2 34.85 30.55 Q36 31.15 36 32 36 32.85 34.85 33.45 L33.8 33.8 33.45 34.85 M47.45 26.85 Q46.85 28 46 28 45.2 28 44.6 26.85 L44.2 25.8 43.2 25.45 Q42 24.85 42 24 42 23.15 43.2 22.55 L44.25 22.2 44.6 21.15 Q45.2 20 46 20 46.85 20 47.45 21.15 L47.8 22.2 48.85 22.55 Q50 23.15 50 24 50 24.85 48.85 25.45 L47.8 25.8 47.45 26.85 M47.45 42.85 Q46.85 44 46 44 45.2 44 44.6 42.85 L44.2 41.8 43.2 41.45 Q42 40.85 42 40 42 39.15 43.2 38.55 L44.25 38.2 44.6 37.15 Q45.2 36 46 36 46.85 36 47.45 37.15 L47.8 38.2 48.85 38.55 Q50 39.15 50 40 50 40.85 48.85 41.45 L47.8 41.8 47.45 42.85 M19.45 26.85 Q18.85 28 18 28 17.2 28 16.6 26.85 L16.2 25.8 15.2 25.45 Q14 24.85 14 24 14 23.15 15.2 22.55 L16.25 22.2 16.6 21.15 Q17.2 20 18 20 18.85 20 19.45 21.15 L19.8 22.2 20.85 22.55 Q22 23.15 22 24 22 24.85 20.85 25.45 L19.8 25.8 19.45 26.85 M19.45 42.85 Q18.85 44 18 44 17.2 44 16.6 42.85 L16.2 41.8 15.2 41.45 Q14 40.85 14 40 14 39.15 15.2 38.55 L16.25 38.2 16.6 37.15 Q17.2 36 18 36 18.85 36 19.45 37.15 L19.8 38.2 20.85 38.55 Q22 39.15 22 40 22 40.85 20.85 41.45 L19.8 41.8 19.45 42.85"/>
  </g>
</svg>