<svg width="64" height="64" xmlns="http://www.w3.org/2000/svg" xmlns:xlink="http://www.w3.org/1999/xlink">
  <defs/>
  <g>
    <path stroke="none" fill="#EC2037" d="M0 21 L0 0 64 0 64 21 0 21"/>
    <path stroke="none" fill="#3439CB" d="M64 43 L64 64 0 64 0 43 64 43"/>
    <path stroke="none" fill="#EEEEF7" d="M64 43 L0 43 0 21 64 21 64 43"/>
    <path stroke="none" fill="#EC2037" d="M44 23 Q46.1 23 47.6 24.5 49 25.85 49 28 L49 40.15 Q49 43.3 48 46.05 46.8 49.35 44.15 52.05 L44.15 52.1 44.1 52.15 44 52.2 43.8 52.4 Q41.2 54.85 38.05 56 35.2 57 32 57 28.75 57 26 56 L25.95 55.95 Q22.7 54.75 20.05 52.15 17.3 49.4 16.05 46.05 15 43.3 15 40.15 L15 28 Q15 25.95 16.4 24.6 L16.6 24.4 Q17.95 23 20 23 L44 23"/>
    <path stroke="none" fill="#FFFFFF" d="M37 26 L44 26 Q44.85 26 45.45 26.6 46 27.15 46 28 L46 35 37 35 37 26 M45.2 45 Q44.2 47.7 42 49.95 L41.95 50 41.9 50.05 41.75 50.2 Q39.6 52.2 37 53.15 L37 45 45.2 45 M27 53.15 Q24.3 52.15 22.15 50 19.85 47.75 18.85 45 L27 45 27 35 18 35 18 28 Q18 27.15 18.6 26.6 19.15 26 20 26 L27 26 27 35 37 35 37 45 27 45 27 53.15"/>
    <path stroke="none" fill="#EC2037" d="M27 53.15 L27 45 37 45 37 35 46 35 46 40.15 Q46 42.75 45.2 45 L37 45 37 53.15 Q34.65 54 32 54 29.3 54 27 53.15 M18.85 45 Q18 42.75 18 40.15 L18 35 27 35 27 45 18.85 45 M27 26 L37 26 37 35 27 35 27 26"/>
    <path stroke="none" fill="#5193EE" d="M33.2 6.55 L36.5 10.05 Q37 10.6 37 11.3 L37 16.2 Q37 16.9 36.5 17.45 36.05 18 35.3 18 L28.6 18 Q27.95 18 27.45 17.45 27 16.9 27 16.2 L27 11.3 Q27 10.6 27.45 10.05 L30.85 6.55 Q31.25 6 32 6 32.65 6 33.2 6.55"/>
    <path stroke="none" fill="#5193EE" d="M18.75 10.3 L22.85 12.85 Q23.45 13.2 23.6 13.9 L24.9 18.6 Q25.05 19.3 24.75 20 24.45 20.6 23.75 20.8 L17.25 22.55 16 22.35 Q15.4 21.9 15.25 21.2 L13.95 16.5 Q13.8 15.8 14.1 15.2 L16.5 10.9 Q16.7 10.25 17.45 10.05 18.05 9.9 18.75 10.3"/>
    <path stroke="none" fill="#5193EE" d="M47.55 10.9 L49.85 15.15 Q50.15 15.8 50 16.5 L48.7 21.2 47.95 22.3 46.65 22.5 40.15 20.75 Q39.55 20.6 39.2 19.95 38.9 19.3 39.05 18.6 L40.35 13.9 Q40.5 13.2 41.1 12.8 L45.3 10.3 Q45.8 9.85 46.55 10.05 47.15 10.2 47.55 10.9"/>
  </g>
</svg>