<svg width="64" height="64" xmlns="http://www.w3.org/2000/svg" xmlns:xlink="http://www.w3.org/1999/xlink">
  <defs/>
  <g>
    <path stroke="none" fill="#392D8C" d="M0 32 L0 0 64 0 64 32 0 32"/>
    <path stroke="none" fill="#EC2037" d="M0 32 L64 32 64 64 0 64 0 32"/>
    <path stroke="none" fill="#EEEEF7" d="M20 14 L44 14 Q50 14 50 20 L50 44 Q50 50 44 50 L20 50 Q14 50 14 44 L14 20 Q14 14 20 14"/>
    <path stroke="none" fill="#259F6C" d="M20 50 Q16.75 50 15.25 48.25 L18.85 44.7 Q22.4 41.25 28 41 L36 41 Q41.6 41.25 45.15 44.7 L48.75 48.25 Q47.25 50 44 50 L20 50"/>
    <path stroke="none" fill="#259F6C" d="M34.7 41 L29.25 41 30.3 28.5 25.8 31.75 Q24.9 30.65 25.45 29.05 25.9 27.8 27.05 26.85 L22 26.85 Q22 25.2 23.8 24 25.65 22.9 28.3 22.9 L25.1 19.85 Q26.3 18.75 28.5 19.1 30.35 19.5 32 20.85 33.6 19.5 35.45 19.1 37.65 18.75 38.85 19.85 L35.65 22.9 Q38.3 22.9 40.15 24 42 25.2 42 26.85 L36.9 26.85 Q38.05 27.8 38.5 29.05 39.05 30.65 38.15 31.75 L33.65 28.5 34.7 41"/>
    <path stroke="none" fill="#392D8C" d="M44.45 31.75 L44.45 36.65 44.25 37.15 Q43 38.45 40.95 39.1 L37.6 39.75 37.15 39.65 36.85 39.35 36.75 39 36.75 36.3 36.8 36 37.05 35.7 43.2 31.15 43.75 31.05 44.25 31.25 44.45 31.75"/>
    <path stroke="none" fill="#FCC920" d="M47.9 28.2 Q48.3 28.9 47.5 29.9 46.95 30.9 45.55 31.7 L44.5 31.6 44.3 31.5 44.25 31.5 37.6 36.25 36.85 36.45 36.2 36.05 Q35.95 35.7 36.05 35.3 36.1 34.9 36.4 34.65 L43.05 29.9 43.3 29.8 43.2 29.35 Q43.25 28.75 43.7 28.5 45.1 27.7 46.2 27.65 47.55 27.55 47.9 28.2"/>
    <path stroke="none" fill="#392D8C" d="M19.55 31.75 L19.75 31.25 20.25 31.05 20.8 31.15 26.95 35.7 27.2 36 27.25 36.3 27.25 39 27.15 39.35 26.85 39.65 26.4 39.75 23.05 39.1 Q21 38.45 19.75 37.15 L19.55 36.65 19.55 31.75"/>
    <path stroke="none" fill="#FCC920" d="M16.1 28.2 Q16.45 27.55 17.8 27.65 18.9 27.7 20.3 28.5 20.75 28.75 20.8 29.35 L20.7 29.8 20.95 29.9 27.6 34.65 27.95 35.3 27.8 36.05 Q27.55 36.35 27.15 36.45 L26.4 36.25 19.75 31.5 19.7 31.5 19.5 31.6 18.45 31.7 Q17.05 30.9 16.5 29.9 15.7 28.9 16.1 28.2"/>
  </g>
</svg>