<svg width="64" height="64" xmlns="http://www.w3.org/2000/svg" xmlns:xlink="http://www.w3.org/1999/xlink">
  <defs/>
  <g>
    <path stroke="none" fill="#EEEEF7" d="M0 64 L0 0 64 0 64 64 0 64"/>
    <path stroke="none" fill="#3439CB" d="M0 16 L0 6 64 6 64 16 0 16"/>
    <path stroke="none" fill="#3439CB" d="M0 58 L0 48 64 48 64 58 0 58"/>
    <path stroke="none" fill="#3439CB" d="M33.5 19.85 L36.4 25 41.3 25 Q41.9 25 42.4 25.45 L43 26.45 Q43.1 27.05 42.8 27.6 L40.3 32 42.8 36.55 Q43.1 37.05 43 37.65 L42.4 38.7 Q41.9 39.1 41.3 39.1 L36.35 39.1 33.5 44.15 32.65 44.9 Q32.05 45.1 31.45 44.9 30.85 44.7 30.55 44.15 L27.75 39.1 22.7 39.1 Q22.1 39.1 21.65 38.7 21.15 38.25 21.05 37.65 20.9 37.05 21.25 36.5 L23.75 32 21.25 27.6 Q20.9 27.05 21.05 26.45 21.15 25.85 21.6 25.45 22.05 25 22.7 25 L27.75 25 30.55 19.9 Q30.85 19.35 31.45 19.15 32.05 18.9 32.65 19.15 L33.5 19.85"/>
    <path stroke="none" fill="#EEEEF7" d="M36 30.3 Q36.1 30.9 35.75 31.35 L35.8 31.3 33.45 35.25 Q33.1 35.85 32.5 35.95 L31.6 35.95 Q30.95 35.85 30.65 35.25 L28.3 31.35 Q27.9 30.9 28 30.3 L28 30.25 Q28.1 29.75 28.55 29.35 L28.65 29.3 Q29.1 29 29.6 29 L34.45 29 Q35 29 35.45 29.35 L36 30.25 36 30.3"/>
  </g>
</svg>