<svg width="64" height="64" xmlns="http://www.w3.org/2000/svg" xmlns:xlink="http://www.w3.org/1999/xlink">
  <defs/>
  <g>
    <path stroke="none" fill="#EC2037" d="M0 64 L0 0 64 0 64 64 0 64"/>
    <path stroke="none" fill="#EEEEEE" d="M29.15 12.05 L30.55 11.65 32.65 11.9 Q33.65 12.3 34.35 13.1 35.15 13.95 35.4 15.4 L37.2 26.9 40.5 29.4 42.7 31.1 42 20.7 42.1 20.3 42.4 20 47 17.9 50.55 16.35 51.05 16.45 51.4 16.65 51.45 16.65 51.9 17.2 51.95 17.35 Q52.3 17.8 49.65 20.3 L46.85 22.85 49.4 33.9 Q49.7 35.35 49.25 36.5 48.9 37.55 48.05 38.3 47.2 39.05 46.15 39.3 L46.1 39.3 43.45 39.05 32.65 34.9 26.3 37.55 35.55 42.15 35.9 42.45 36 42.85 35.25 51.2 35.2 51.3 Q35.05 52.15 34.15 52.35 33.25 52.5 32.75 51.9 32.5 51.7 31.95 48.8 L31.3 45.25 20.2 41.85 20.15 41.85 Q19.6 41.65 19 41.2 L18.15 40.35 18.1 40.35 Q17.65 39.75 17.45 38.95 L17.25 37.45 Q17.3 36.5 17.75 35.65 18.2 34.85 18.95 34.25 L28 26.9 28.6 22 28.85 20.1 20.25 25.85 19.85 26 19.45 25.85 12.55 21 12.55 21.05 Q11.8 20.55 12.05 19.6 12.25 18.65 13.05 18.5 13.45 18.35 16.25 19.35 L19.7 20.6 27.9 12.95 27.95 12.9 29.15 12.05"/>
  </g>
</svg>