<svg width="64" height="64" xmlns="http://www.w3.org/2000/svg" xmlns:xlink="http://www.w3.org/1999/xlink">
  <defs/>
  <g>
    <path stroke="none" fill="#F36925" d="M0 17 L0 0 64 0 64 17 0 17"/>
    <path stroke="none" fill="#EEEEF7" d="M0 17 L64 17 64 47 0 47 0 17"/>
    <path stroke="none" fill="#259F6C" d="M64 47 L64 64 0 64 0 47 64 47"/>
    <path stroke="none" fill="#3439CB" d="M44 32 Q44 37 40.45 40.45 37 44 32 44 27 44 23.5 40.45 20 37 20 32 20 27 23.5 23.5 27 20 32 20 37 20 40.45 23.5 44 27 44 32 M29.6 33 L24.05 33 Q24.3 35.2 25.7 36.9 L29.6 33 M31 34.45 L27.1 38.35 Q28.8 39.7 31 39.95 L31 34.45 M31 29.6 L31 24.05 Q28.8 24.3 27.1 25.7 L31 29.6 M29.6 31 L25.7 27.1 Q24.3 28.8 24.05 31 L29.6 31 M34.4 33 L38.3 36.9 Q39.7 35.2 39.95 33 L34.4 33 M33 34.4 L33 39.95 Q35.2 39.7 36.9 38.3 L33 34.4 M33 29.6 L36.9 25.7 Q35.2 24.3 33 24.05 L33 29.6 M34.45 31 L39.95 31 Q39.7 28.8 38.35 27.1 L34.45 31"/>
  </g>
</svg>