<svg width="64" height="64" xmlns="http://www.w3.org/2000/svg" xmlns:xlink="http://www.w3.org/1999/xlink">
  <defs/>
  <g>
    <path stroke="none" fill="#EC2037" d="M0 18 L0 0 64 0 64 18 0 18"/>
    <path stroke="none" fill="#EEEEF7" d="M0 18 L64 18 64 46 0 46 0 18"/>
    <path stroke="none" fill="#25252A" d="M64 46 L64 64 0 64 0 46 64 46"/>
    <path stroke="none" fill="#259F6C" d="M34 27 L34 37 33.7 37.7 33 38 31 38 Q30.6 38 30.3 37.7 30 37.4 30 37 L30 27 Q30 26.6 30.3 26.3 30.6 26 31 26 L33 26 Q33.4 26 33.7 26.3 L34 27 M42.65 26 L45 26 Q45.4 26 45.7 26.3 L46 27 46 37 45.7 37.7 45 38 39 38 38.3 37.7 Q38 37.4 38 37 L38 34.25 38.1 33.8 41.75 26.55 42.1 26.15 Q42.35 26 42.65 26 M49 26 L51 26 Q51.4 26 51.7 26.3 L52 27 52 37 51.7 37.7 Q51.4 38 51 38 L49 38 Q48.6 38 48.3 37.7 48 37.4 48 37 L48 27 Q48 26.6 48.3 26.3 48.6 26 49 26 M24.4 26 L27 26 Q27.4 26 27.7 26.3 L28 27 28 37 27.7 37.7 Q27.4 38 27 38 L13 38 12.3 37.7 Q12 37.4 12 37 L12 35 Q12 34.6 12.3 34.3 12.6 34 13 34 L16 34 23.7 26.3 Q24 26 24.4 26"/>
  </g>
</svg>