<svg width="64" height="64" xmlns="http://www.w3.org/2000/svg" xmlns:xlink="http://www.w3.org/1999/xlink">
  <defs/>
  <g>
    <path stroke="none" fill="#EC2037" d="M0 21 L0 0 64 0 64 21 0 21"/>
    <path stroke="none" fill="#FFFFFF" d="M0 21 L64 21 64 43 0 43 0 21"/>
    <path stroke="none" fill="#259F6C" d="M64 43 L64 64 0 64 0 43 64 43"/>
    <path stroke="none" fill="#FCC920" d="M36.3 44.7 Q34.5 50 32 50 29.55 50 27.75 44.7 L27.3 43.25 Q26.7 43.7 25.95 43.95 21 46.5 19.2 44.8 17.5 43 20.05 38.05 L20.75 36.7 19.3 36.25 Q14 34.5 14 32 14 29.5 19.3 27.75 L20.65 27.3 19.95 26.05 Q17.4 21 19.2 19.3 21 17.5 25.95 20.05 L27.3 20.75 27.75 19.3 Q29.55 14 32 14 34.5 14 36.3 19.3 L36.75 20.65 37.95 20.05 Q43 17.5 44.7 19.3 46.5 21.1 43.95 26.05 L43.35 27.3 44.8 27.75 Q50 29.5 50 32 50 34.5 44.8 36.25 L43.25 36.7 43.95 38.05 Q46.4 43 44.7 44.7 42.9 46.5 37.95 43.95 L36.7 43.35 36.3 44.7"/>
  </g>
</svg>