<svg width="64" height="64" xmlns="http://www.w3.org/2000/svg" xmlns:xlink="http://www.w3.org/1999/xlink">
  <defs/>
  <g>
    <path stroke="none" fill="#259F6C" d="M0 17 L0 0 64 0 64 17 0 17"/>
    <path stroke="none" fill="#EC2037" d="M64 47 L64 64 0 64 0 47 64 47"/>
    <path stroke="none" fill="#EEEEF7" d="M64 47 L0 47 0 17 64 17 64 47"/>
    <path stroke="none" fill="#EC2037" d="M36 24.45 Q35.2 25 34 25 32.85 25 32 24.5 31.1 25 30 25 28.8 25 27.95 24.45 26.95 23.75 27 22.8 L27 22.75 27.2 22.25 27.65 22 28.15 22.2 28.3 22.3 29.55 22.65 Q30.25 22.65 30.75 22.3 L31.1 21.8 31.3 21.3 31.4 21.2 32 21 32.55 21.2 32.65 21.3 32.85 21.8 33.2 22.3 34.4 22.65 Q35.15 22.65 35.7 22.3 L35.8 22.2 36.3 22 Q36.6 22 36.8 22.25 L37 22.75 37 22.8 Q37.05 23.75 36 24.45 M35 27.6 L34.05 40.25 33.85 40.7 32.6 41.8 32 42 Q31.65 42 31.45 41.8 L30.2 40.7 30 40.25 29 27.6 29.1 27.15 Q29.25 26.95 29.5 26.9 L31.65 26.1 Q32 25.95 32.3 26.1 L34.5 26.9 Q34.75 26.95 34.85 27.15 L35 27.6 M36.4 40.7 Q39.4 37.55 37.9 32.85 37.7 32.35 37.9 31.9 38.05 31.45 38.45 31.2 L39.25 31.05 Q39.7 31.15 40 31.55 42.5 35 41.85 37.85 41.4 40.7 37.85 42.85 L37 42.95 36.25 42.45 36 41.55 Q36.05 41.05 36.4 40.7 M27.6 40.7 L28 41.55 27.75 42.45 27 42.95 26.15 42.85 Q22.6 40.7 22.15 37.85 21.5 35 24 31.55 24.3 31.15 24.75 31.05 L25.55 31.2 26.1 31.9 Q26.3 32.35 26.1 32.85 24.6 37.55 27.6 40.7"/>
  </g>
</svg>