<svg width="64" height="64" xmlns="http://www.w3.org/2000/svg" xmlns:xlink="http://www.w3.org/1999/xlink">
  <defs/>
  <g>
    <path stroke="none" fill="#25252A" d="M0 21 L0 0 64 0 64 21 0 21"/>
    <path stroke="none" fill="#EEEEF7" d="M0 21 L64 21 64 43 0 43 0 21"/>
    <path stroke="none" fill="#259F6C" d="M64 43 L64 64 0 64 0 43 64 43"/>
    <path stroke="none" fill="#EC2037" d="M34.85 34.85 L5.65 64 0 64 0 0 5.65 0 34.85 29.2 Q36 30.35 36 32 36 33.65 34.85 34.85"/>
    <path stroke="none" fill="#EEEEF7" d="M14.7 36.95 Q14 39 13 39 12.05 39 11.35 36.95 L11.2 36.35 10.65 36.65 Q8.75 37.65 8.05 36.95 7.35 36.25 8.35 34.35 L8.65 33.8 8.05 33.65 Q6 33 6 32 6 31 8.05 30.35 L8.6 30.2 8.3 29.7 Q7.35 27.75 8.05 27.05 8.75 26.35 10.65 27.35 L11.2 27.65 11.35 27.05 Q12.05 25 13 25 14 25 14.7 27.05 L14.85 27.6 15.3 27.35 Q17.25 26.35 17.95 27.05 18.65 27.75 17.65 29.7 L17.4 30.2 17.95 30.35 Q20 31 20 32 20 33 17.95 33.65 L17.4 33.8 17.65 34.35 Q18.6 36.25 17.95 36.95 17.25 37.65 15.3 36.65 L14.8 36.4 14.7 36.95"/>
  </g>
</svg>