<svg width="64" height="64" xmlns="http://www.w3.org/2000/svg" xmlns:xlink="http://www.w3.org/1999/xlink">
  <defs/>
  <g>
    <path stroke="none" fill="#EC2037" d="M22.95 21.3 Q25.1 11 32 11 38.9 11 41.1 21.3 38.1 24.3 38.1 32 38.1 39.7 41.1 42.75 38.9 53 32 53 25.1 53 22.95 42.75 25.9 39.7 25.9 32 25.9 24.3 22.95 21.3"/>
    <path stroke="none" fill="#25252A" d="M22.95 21.3 Q25.9 24.3 25.9 32 25.9 39.7 22.95 42.75 22 38.25 22 32 22 25.75 22.95 21.3 M41.1 21.3 Q42 25.75 42 32 42 38.25 41.1 42.75 38.1 39.7 38.1 32 38.1 24.3 41.1 21.3"/>
    <path stroke="none" fill="#FFFFFF" d="M36 32 Q36 33.65 34.8 34.8 33.65 36 32 36 30.35 36 29.15 34.8 28 33.65 28 32 28 30.35 29.15 29.15 30.35 28 32 28 33.65 28 34.8 29.15 36 30.35 36 32"/>
  </g>
</svg>