<svg width="64" height="64" xmlns="http://www.w3.org/2000/svg" xmlns:xlink="http://www.w3.org/1999/xlink">
  <defs/>
  <g>
    <path stroke="none" fill="#EC2037" d="M24 32 Q24 33.8 24.7 35.3 26.5 32.6 29.3 30.35 27 29.15 24.7 28.7 24 30.25 24 32 M32 24 Q28.9 24 26.6 26.05 29.35 26.75 32 28.4 34.65 26.75 37.4 26.05 35.1 24 32 24 M32 40 Q35.15 40 37.45 37.9 35.55 34.75 32.3 32.25 L32 32.05 31.7 32.25 Q28.4 34.75 26.6 37.9 28.9 40 32 40 M40 32 Q40 30.25 39.35 28.75 37 29.15 34.75 30.35 37.5 32.55 39.35 35.3 40 33.75 40 32 M0 0 L64 0 64 64 0 64 0 0"/>
    <path stroke="none" fill="#FCC920" d="M46.35 18.2 Q48.75 20.65 46.7 26 51.95 28.4 52 32.05 52.05 35.8 46.6 38.2 48.6 43.6 46.1 46.1 43.45 48.8 38.15 46.75 L38.1 46.85 Q35.6 51.95 32 52 28.4 51.95 25.9 46.85 L25.85 46.75 Q20.55 48.8 17.9 46.1 15.4 43.6 17.4 38.2 11.95 35.8 12 32.05 12.05 28.4 17.3 26 15.25 20.65 17.65 18.2 20.4 15.4 25.85 17.4 28.3 12 32 12 35.7 12 38.15 17.4 43.6 15.4 46.35 18.2"/>
    <path stroke="none" fill="#EC2037" d="M44 32 Q44 36.95 40.45 40.45 36.9 44 32 44 27.05 44 23.5 40.45 20 36.95 20 32 20 27.1 23.5 23.55 27.05 20 32 20 36.9 20 40.45 23.55 44 27.1 44 32"/>
    <path stroke="none" fill="#FCC920" d="M32 24 Q35.1 24 37.4 26.05 34.65 26.75 32 28.4 29.35 26.75 26.6 26.05 28.9 24 32 24 M40 32 Q40 33.75 39.35 35.3 37.5 32.55 34.75 30.35 37 29.15 39.35 28.75 40 30.25 40 32 M32 40 Q28.9 40 26.6 37.9 28.4 34.75 31.7 32.25 L32 32.05 32.3 32.25 Q35.55 34.75 37.45 37.9 35.15 40 32 40 M24 32 Q24 30.25 24.7 28.7 27 29.15 29.3 30.35 26.5 32.6 24.7 35.3 24 33.8 24 32"/>
  </g>
</svg>