<svg width="64" height="64" xmlns="http://www.w3.org/2000/svg" xmlns:xlink="http://www.w3.org/1999/xlink">
  <defs/>
  <g>
    <path stroke="none" fill="#3439CB" d="M64 47 L64 64 0 64 0 47 64 47 M0 17 L0 0 64 0 64 17 0 17"/>
    <path stroke="none" fill="#EC2037" d="M0 17 L64 17 64 47 0 47 0 17"/>
    <path stroke="none" fill="#EEEEF7" d="M36 25.15 L36 27 Q36.85 27 37.45 27.6 38 28.15 38 29 L40 29 Q40.2 26.8 41.8 25.7 42.35 25.3 43 25.3 L44.2 25.7 Q45.8 26.8 46 29.05 L46 29.2 46 35 49.25 39.9 Q49.65 40.55 49.55 41.3 L48.9 42.5 Q48.35 43 47.6 43 L16.45 43 Q15.65 43 15.1 42.5 14.55 42 14.45 41.3 14.35 40.55 14.75 39.9 L18 35 18 29.2 18 29.05 Q18.2 26.8 19.8 25.7 20.35 25.3 21 25.3 21.65 25.3 22.2 25.7 23.8 26.8 24 29 L26 29 Q26 28.15 26.6 27.6 27.15 27 28 27 L28 25.2 28 24.95 Q28.35 22 30.7 19.95 31.25 19.45 32 19.45 32.75 19.45 33.3 19.95 35.7 22 36 24.95 L36 25.15"/>
  </g>
</svg>