<svg width="64" height="64" xmlns="http://www.w3.org/2000/svg" xmlns:xlink="http://www.w3.org/1999/xlink">
  <defs/>
  <g>
    <path stroke="none" fill="#EC2037" d="M64 0 L64 64 0 64 0 0 64 0"/>
    <path stroke="none" fill="#FCC920" d="M35.4 42.85 Q34 47 32 47 30.15 47 28.75 42.85 L28.4 41.75 27.35 42.3 Q23.5 44.25 22.1 42.9 20.75 41.5 22.7 37.65 L23.25 36.6 22.15 36.25 Q18 34.95 18 33 18 31 22.15 29.7 L23.2 29.35 22.65 28.35 Q20.7 24.45 22.1 23.1 23.5 21.7 27.35 23.65 27.8 23.95 28.4 24.25 28.5 23.6 28.75 23.1 30.15 19 32 19 34 19 35.4 23.1 L35.75 24.15 36.65 23.65 Q40.55 21.7 41.9 23.1 43.3 24.5 41.35 28.35 L40.85 29.35 41.95 29.7 Q46 31 46 33 46 34.95 41.95 36.25 L40.75 36.6 41.35 37.65 Q43.2 41.5 41.9 42.85 40.5 44.25 36.65 42.3 L35.65 41.8 35.4 42.85"/>
    <path stroke="none" fill="#FCC920" d="M43.5 9.85 L40.1 13.2 Q39.6 13.65 38.85 13.65 L36.15 13.65 33.25 16.55 Q32.75 17 32 17 31.25 17 30.8 16.55 L27.85 13.65 25.15 13.65 Q24.4 13.65 23.95 13.2 L20.55 9.85 Q20 9.35 20 8.6 20 7.95 20.55 7.5 21 7 21.7 7 L28.55 7 Q29.3 7 29.85 7.5 L32 9.6 34.2 7.5 Q34.7 7 35.45 7 L42.3 7 Q43 7 43.5 7.5 44 7.95 44 8.6 44 9.35 43.5 9.85"/>
    <path stroke="none" fill="#EEEEF7" d="M0 43.9 L0 35.9 Q3.2 37.85 6.4 37.9 9.6 37.85 12.8 35.9 16 33.9 19.2 33.9 22.4 33.9 25.6 35.9 28.8 37.85 32 37.9 35.2 37.85 38.4 35.9 41.6 33.9 44.8 33.9 48 33.9 51.2 35.9 54.4 37.85 57.6 37.9 60.8 37.85 64 35.9 L64 43.9 Q60.8 45.85 57.6 45.9 54.4 45.85 51.2 43.9 48 41.9 44.8 41.9 41.6 41.9 38.4 43.9 35.2 45.85 32 45.9 28.8 45.85 25.6 43.9 22.4 41.9 19.2 41.9 16 41.9 12.8 43.9 9.6 45.85 6.4 45.9 3.2 45.85 0 43.9 M64 55.9 L64 63.9 63.85 64 0.2 64 0 63.9 0 55.9 Q3.2 57.85 6.4 57.9 9.6 57.85 12.8 55.9 16 53.9 19.2 53.9 22.4 53.9 25.6 55.9 28.8 57.85 32 57.9 35.2 57.85 38.4 55.9 41.6 53.9 44.8 53.9 48 53.9 51.2 55.9 54.4 57.85 57.6 57.9 60.8 57.85 64 55.9"/>
    <path stroke="none" fill="#3439CB" d="M64 55.9 Q60.8 57.85 57.6 57.9 54.4 57.85 51.2 55.9 48 53.9 44.8 53.9 41.6 53.9 38.4 55.9 35.2 57.85 32 57.9 28.8 57.85 25.6 55.9 22.4 53.9 19.2 53.9 16 53.9 12.8 55.9 9.6 57.85 6.4 57.9 3.2 57.85 0 55.9 L0 43.9 Q3.2 45.85 6.4 45.9 9.6 45.85 12.8 43.9 16 41.9 19.2 41.9 22.4 41.9 25.6 43.9 28.8 45.85 32 45.9 35.2 45.85 38.4 43.9 41.6 41.9 44.8 41.9 48 41.9 51.2 43.9 54.4 45.85 57.6 45.9 60.8 45.85 64 43.9 L64 55.9"/>
  </g>
</svg>