<svg width="64" height="64" xmlns="http://www.w3.org/2000/svg" xmlns:xlink="http://www.w3.org/1999/xlink">
  <defs/>
  <g>
    <path stroke="none" fill="#FCC920" d="M0 16 L0 0 64 0 64 16 0 16"/>
    <path stroke="none" fill="#EC2037" d="M64 32 L64 48 0 48 0 32 64 32"/>
    <path stroke="none" fill="#EEEEF7" d="M64 32 L0 32 0 16 64 16 64 32"/>
    <path stroke="none" fill="#3439CB" d="M64 48 L64 64 0 64 0 48 64 48"/>
    <path stroke="none" fill="#259F6C" d="M34.85 34.85 L5.65 64 0 64 0 0 5.65 0 34.85 29.2 Q36 30.35 36 32 36 33.65 34.85 34.85"/>
    <path stroke="none" fill="#EEEEF7" d="M22.1 30.15 Q21.65 31 21 31 20.4 31 19.95 30.15 L19.65 29.35 18.9 29.1 Q18 28.65 18 28 18 27.4 18.9 26.95 L19.7 26.65 19.95 25.9 Q20.4 25 21 25 21.65 25 22.1 25.9 L22.35 26.65 23.15 26.95 Q24 27.4 24 28 24 28.65 23.15 29.1 L22.35 29.35 22.1 30.15 M22.1 38.15 Q21.65 39 21 39 20.4 39 19.95 38.15 L19.65 37.35 18.9 37.1 Q18 36.65 18 36 18 35.4 18.9 34.95 L19.7 34.65 19.95 33.9 Q20.4 33 21 33 21.65 33 22.1 33.9 L22.35 34.65 23.15 34.95 Q24 35.4 24 36 24 36.65 23.15 37.1 L22.35 37.35 22.1 38.15"/>
    <path stroke="none" fill="#EEEEF7" d="M19.8 23 Q16 23 13.3 25.65 L13.3 25.7 Q10.65 28.3 10.65 32 10.65 35.7 13.3 38.35 16 41 19.8 41 L19.95 41 Q20.25 41 20.55 41.25 L20.9 41.8 20.85 42.45 20.35 42.9 Q18 44 15.2 44 10.2 44 6.55 40.45 3 36.95 3 32 3 27.05 6.55 23.5 10.2 20 15.2 20 18 20 20.4 21.1 L20.9 21.55 20.95 22.25 20.6 22.8 20 23 19.8 23"/>
  </g>
</svg>