<svg width="64" height="64" xmlns="http://www.w3.org/2000/svg" xmlns:xlink="http://www.w3.org/1999/xlink">
  <defs/>
  <g>
    <path stroke="none" fill="#25252A" d="M16 64 L0 64 0 48 48 0 64 0 64 16 16 64"/>
    <path stroke="none" fill="#FCC920" d="M16 64 L64 16 64 24 24 64 16 64 M0 48 L0 40 40 0 48 0 0 48"/>
    <path stroke="none" fill="#259F6C" d="M0 40 L0 0 40 0 0 40"/>
    <path stroke="none" fill="#EC2037" d="M64 24 L64 64 24 64 64 24"/>
    <path stroke="none" fill="#EEEEF7" d="M38 16.8 L41.6 17.7 44.75 15.95 Q45 15.7 45.45 15.75 L46 16.1 46.25 16.65 46.6 20.4 49.45 22.85 49.85 23.45 49.75 24.05 49.25 24.55 45.9 25.9 44.55 29.25 44.05 29.75 43.45 29.85 42.85 29.45 40.4 26.6 36.7 26.2 Q36.35 26.25 36.1 26 35.8 25.7 35.8 25.4 35.7 25 35.95 24.75 L37.75 21.55 36.85 17.95 Q36.8 17.6 36.9 17.3 L37.3 16.9 38 16.8"/>
    <path stroke="none" fill="#EEEEF7" d="M18 36.9 L21.6 37.8 24.75 35.95 25.4 35.8 25.95 36.15 26.3 36.7 26.65 40.45 29.5 42.9 29.9 43.5 29.8 44.1 29.3 44.6 25.85 45.95 24.55 49.35 24.1 49.8 23.5 49.9 Q23.1 49.8 22.85 49.55 L20.4 46.7 16.7 46.3 16.05 46.05 15.75 45.45 Q15.75 45.05 15.9 44.8 L17.75 41.65 16.85 38.05 Q16.75 37.65 16.9 37.4 17 37.1 17.35 36.95 L18 36.9"/>
  </g>
</svg>