<svg width="64" height="64" xmlns="http://www.w3.org/2000/svg" xmlns:xlink="http://www.w3.org/1999/xlink">
  <defs/>
  <g>
    <path stroke="none" fill="#3439CB" d="M64 50 L64 64 0 64 0 50 64 50 M0 14 L0 0 64 0 64 14 0 14"/>
    <path stroke="none" fill="#EEEEF7" d="M0 14 L64 14 64 20 0 20 0 14 M64 44 L64 50 0 50 0 44 64 44"/>
    <path stroke="none" fill="#EC2037" d="M64 44 L0 44 0 20 64 20 64 44"/>
    <path stroke="none" fill="#EEEEF7" d="M42 32 Q42 36.15 39.1 39.1 36.15 42 32 42 27.85 42 24.9 39.1 22 36.15 22 32 22 27.85 24.9 24.9 27.85 22 32 22 36.15 22 39.1 24.9 42 27.85 42 32"/>
    <path stroke="none" fill="#EC2037" d="M32.75 26.4 L34.35 29.15 37.4 29.95 37.85 30.25 38 30.8 37.85 31.35 35.8 33.8 36.05 37.05 35.9 37.6 35.45 37.95 34.9 37.9 32 36.7 29.15 37.9 28.6 37.95 28.15 37.6 28 37.05 28.25 33.8 26.2 31.35 26 30.8 26.2 30.25 Q26.35 30 26.65 29.95 L29.65 29.15 31.3 26.4 31.75 26.05 32.3 26.05 32.75 26.4"/>
  </g>
</svg>