<svg width="64" height="64" xmlns="http://www.w3.org/2000/svg" xmlns:xlink="http://www.w3.org/1999/xlink">
  <defs/>
  <g>
    <path stroke="none" fill="#EEEEF7" d="M0 64 L0 0 64 0 64 64 0 64"/>
    <path stroke="none" fill="#EC2037" d="M20.3 24.25 L20.25 24.25 20.55 23.85 Q23.75 19.4 29.2 18.3 34.9 17.15 39.75 20.35 44.55 23.6 45.7 29.35 46.85 34.9 43.75 39.65 45.2 37.3 44.65 34.6 44.1 31.75 41.65 30.1 39.25 28.45 36.4 29.05 33.8 29.55 32.2 31.65 30.6 34.1 27.75 34.65 24.9 35.25 22.45 33.65 20 31.95 19.5 29.15 18.95 26.5 20.3 24.25"/>
    <path stroke="none" fill="#392D8C" d="M20.3 24.25 Q18.95 26.5 19.5 29.15 20 31.95 22.45 33.65 24.9 35.25 27.75 34.65 30.6 34.1 32.2 31.65 33.8 29.55 36.4 29.05 39.25 28.45 41.65 30.1 44.1 31.75 44.65 34.6 45.2 37.3 43.75 39.65 40.55 44.55 34.85 45.7 29.1 46.8 24.25 43.55 19.45 40.35 18.3 34.65 17.15 29.05 20.3 24.25"/>
    <path stroke="none" fill="#25252A" d="M52.3 42.95 L56.1 46.75 Q56.65 47.3 56.65 48.15 56.65 48.85 56.3 49.35 L49.35 56.3 Q48.85 56.65 48.15 56.65 47.3 56.65 46.75 56.1 L42.95 52.3 Q42.35 51.7 42.35 50.85 42.35 50.1 42.85 49.6 L49.6 42.85 Q50.1 42.35 50.85 42.35 51.7 42.35 52.3 42.95"/>
    <path stroke="none" fill="#25252A" d="M17.3 7.95 L21.1 11.75 Q21.65 12.3 21.65 13.15 21.65 14 21.1 14.6 L14.6 21.1 Q14 21.65 13.15 21.65 12.3 21.65 11.75 21.1 L7.95 17.3 Q7.35 16.7 7.35 15.85 7.35 15 7.9 14.45 L14.45 7.9 Q15 7.35 15.85 7.35 16.7 7.35 17.3 7.95"/>
    <path stroke="none" fill="#25252A" d="M11.7 42.95 Q12.3 42.35 13.15 42.35 13.9 42.35 14.4 42.85 L21.15 49.6 Q21.65 50.1 21.65 50.85 21.65 51.7 21.05 52.3 L17.25 56.1 Q16.7 56.65 15.85 56.65 L14.65 56.3 7.7 49.35 Q7.35 48.85 7.35 48.15 7.35 47.3 7.9 46.75 L11.7 42.95"/>
    <path stroke="none" fill="#25252A" d="M46.7 7.95 Q47.3 7.35 48.15 7.35 49 7.35 49.55 7.9 L56.1 14.45 Q56.65 15 56.65 15.85 56.65 16.7 56.05 17.3 L52.25 21.1 Q51.7 21.65 50.85 21.65 50 21.65 49.4 21.1 L42.9 14.6 Q42.35 14 42.35 13.15 42.35 12.3 42.9 11.75 L46.7 7.95"/>
  </g>
</svg>