<svg width="64" height="64" xmlns="http://www.w3.org/2000/svg" xmlns:xlink="http://www.w3.org/1999/xlink">
  <defs/>
  <g>
    <path stroke="none" fill="#5193EE" d="M0 0 L64 0 64 64 0 64 0 0"/>
    <path stroke="none" fill="#FCC920" d="M6 4 L12 4 Q12.85 4 13.45 4.6 14 5.15 14 6 L14 58 Q14 58.85 13.45 59.45 12.85 60 12 60 L6 60 Q5.15 60 4.6 59.45 4 58.85 4 58 L4 6 Q4 5.15 4.6 4.6 5.15 4 6 4"/>
    <path stroke="none" fill="#FCC920" d="M34.4 33.05 Q33.4 36 32 36 30.65 36 29.65 33.05 L29.4 32.25 28.65 32.65 Q25.9 34.05 24.9 33.1 23.95 32.1 25.35 29.35 L25.75 28.6 24.95 28.35 Q22 27.4 22 26 22 24.6 24.95 23.65 L25.7 23.4 25.3 22.7 Q23.9 19.9 24.9 18.95 25.9 17.95 28.65 19.35 L29.4 19.75 29.65 18.95 Q30.65 16 32 16 33.4 16 34.4 18.95 L34.65 19.7 35.3 19.35 Q38.1 17.95 39.05 18.95 40.05 19.95 38.65 22.7 L38.3 23.4 39.1 23.65 Q42 24.6 42 26 42 27.4 39.1 28.35 L38.25 28.6 38.65 29.35 Q40 32.1 39.05 33.05 38.05 34.05 35.3 32.65 L34.6 32.3 34.4 33.05"/>
    <path stroke="none" fill="#FCC920" d="M43.5 40.9 L40.05 44.25 Q39.55 44.7 38.85 44.7 L36.15 44.7 33.25 47.55 Q32.7 48 32 48 31.25 48 30.75 47.55 L27.8 44.7 25.1 44.7 Q24.4 44.7 23.95 44.25 L20.5 40.9 Q20 40.4 20 39.65 20 38.95 20.5 38.5 20.95 38 21.7 38 L28.55 38 Q29.3 38 29.8 38.5 L32 40.65 34.2 38.5 Q34.65 38 35.4 38 L42.25 38 Q43 38 43.5 38.5 44 38.95 44 39.65 44 40.4 43.5 40.9"/>
  </g>
</svg>