<svg width="64" height="64" xmlns="http://www.w3.org/2000/svg" xmlns:xlink="http://www.w3.org/1999/xlink">
  <defs/>
  <g>
    <path stroke="none" fill="#EC2037" d="M64 47 L64 64 0 64 0 47 64 47 M0 17 L0 0 64 0 64 17 0 17"/>
    <path stroke="none" fill="#002069" d="M0 17 L64 17 64 47 0 47 0 17"/>
    <path stroke="none" fill="#EEEEF7" d="M42 32 Q42 36.15 39.05 39.1 36.15 42 32 42 27.85 42 24.95 39.1 22 36.15 22 32 22 27.9 24.95 24.95 27.85 22 32 22 36.15 22 39.05 24.95 42 27.9 42 32"/>
  </g>
</svg>