<svg width="64" height="64" xmlns="http://www.w3.org/2000/svg" xmlns:xlink="http://www.w3.org/1999/xlink">
  <defs/>
  <g>
    <path stroke="none" fill="#EC2037" d="M64 47 L64 64 0 64 0 47 64 47 M0 17 L0 0 64 0 64 17 0 17"/>
    <path stroke="none" fill="#EEEEF7" d="M0 17 L64 17 64 47 0 47 0 17"/>
    <path stroke="none" fill="#259F6C" d="M40 40 L36 40 36 42 Q36 42.85 35.45 43.45 34.85 44 34 44 L30 44 Q29.15 44 28.55 43.45 28 42.85 28 42 L28 40 24 40 Q23.3 40 22.75 39.55 22.2 39.1 22.05 38.45 L22.2 37.1 Q23.1 32.5 25.3 28.3 26.8 25.45 29.6 21.7 30.55 20.4 31.25 20.15 L32 20 32.75 20.15 Q33.45 20.4 34.4 21.7 37.2 25.45 38.7 28.3 40.9 32.5 41.8 37.1 L41.95 38.45 Q41.8 39.1 41.25 39.55 40.7 40 40 40"/>
  </g>
</svg>