<svg width="64" height="64" xmlns="http://www.w3.org/2000/svg" xmlns:xlink="http://www.w3.org/1999/xlink">
  <defs/>
  <g>
    <path stroke="none" fill="#5193EE" d="M0 0 L64 0 64 64 0 64 0 0"/>
    <path stroke="none" fill="#EEEEF7" d="M48.6 52 L15.3 52 Q14.15 52 13.25 51.25 12.35 50.5 12.1 49.35 11.85 48.2 12.35 47.15 L29 13.8 Q29.55 12.7 30.75 12.25 31.95 11.75 33.15 12.25 34.4 12.7 34.95 13.8 L51.6 47.15 Q52.1 48.2 51.85 49.35 51.6 50.5 50.7 51.25 49.8 52 48.6 52 M32.6 15.6 L32.55 15.65 32.6 15.6 M45.95 48 L46.6 47.8 46.95 47.25 46.85 46.55 32.9 18.6 32.35 18.1 Q32 17.95 31.65 18.1 L31.1 18.6 17.15 46.55 Q16.95 46.85 17.05 47.25 L17.4 47.8 18.05 48 45.95 48 M31.4 15.6 L31.4 15.65 31.4 15.6"/>
    <path stroke="none" fill="#25252A" d="M45.95 48 L18.05 48 17.4 47.8 17.05 47.25 Q16.95 46.85 17.15 46.55 L31.1 18.6 31.65 18.1 Q32 17.95 32.35 18.1 L32.9 18.6 46.85 46.55 46.95 47.25 46.6 47.8 45.95 48"/>
    <path stroke="none" fill="#CC9900" d="M32.6 15.6 L32.55 15.65 32.6 15.6 M31.4 15.6 L31.4 15.65 31.4 15.6"/>
    <path stroke="none" fill="#FCC920" d="M48.6 52 L15.3 52 Q14.15 52 13.25 51.25 L13 51 29.05 34.9 Q29.6 34.35 30.8 34.15 32 33.9 33.2 34.15 34.45 34.35 35 34.9 L51 50.95 50.7 51.25 Q49.8 52 48.6 52"/>
  </g>
</svg>