<svg width="64" height="64" xmlns="http://www.w3.org/2000/svg" xmlns:xlink="http://www.w3.org/1999/xlink">
  <defs/>
  <g>
    <path stroke="none" fill="#392D8C" d="M0 32 L0 0 64 0 64 32 0 32"/>
    <path stroke="none" fill="#EC2037" d="M0 32 L64 32 64 64 0 64 0 32"/>
    <path stroke="none" fill="#FCC920" d="M12 12 Q14.1 12 15.55 13.35 L15.55 13.3 15.75 13.5 18.25 13.5 18.5 13.3 18.5 13.35 Q19.95 12 22 12 24.05 12 25.5 13.3 L25.55 13.35 25.55 13.3 25.75 13.5 Q27 14.8 27 16.5 27 18.4 25.55 19.7 L23.75 20.8 23.7 20.8 23.7 22.5 23.25 23.6 22 24 12 24 Q11.3 24 10.85 23.6 10.35 23.15 10.35 22.5 L10.35 20.8 8.5 19.7 Q7 18.4 7 16.5 7 14.8 8.25 13.5 L8.5 13.3 8.5 13.35 8.55 13.3 Q10 12 12 12"/>
    <path stroke="none" fill="#FCC920" d="M19 10 Q19 10.8 18.4 11.4 17.8 12 17 12 16.2 12 15.6 11.4 15 10.8 15 10 15 9.2 15.6 8.6 16.2 8 17 8 17.8 8 18.4 8.6 19 9.2 19 10"/>
  </g>
</svg>