<svg width="64" height="64" xmlns="http://www.w3.org/2000/svg" xmlns:xlink="http://www.w3.org/1999/xlink">
  <defs/>
  <g>
    <path stroke="none" fill="#FCC920" d="M16 6 L6 6 6 58 16 58 26 58 26 6 16 6 M64 64 L0 64 0 0 64 0 64 64 M58 6 L30 6 30 58 58 58 58 6"/>
    <path stroke="none" fill="#F36925" d="M16 6 L26 6 26 58 16 58 16 6"/>
    <path stroke="none" fill="#259F6C" d="M16 6 L16 58 6 58 6 6 16 6"/>
    <path stroke="none" fill="#EC2037" d="M58 6 L58 58 30 58 30 6 58 6"/>
    <path stroke="none" fill="#FCC920" d="M37.1 8.9 L37.15 8.9 Q37.9 9.65 38 10.7 L38 10.8 38 11 38 13 37.7 13.7 37 14 35 14 Q33.75 14 32.9 13.15 L32.9 13.1 Q32 12.25 32 11 32 9.75 32.9 8.9 33.75 8 35 8 36.25 8 37.1 8.9"/>
    <path stroke="none" fill="#FCC920" d="M50.9 8.9 Q51.75 8 53 8 54.25 8 55.1 8.9 56 9.75 56 11 56 12.25 55.1 13.1 L55.1 13.15 Q54.25 14 53 14 L51 14 50.3 13.7 Q50 13.4 50 13 L50 11 50 10.8 50 10.7 Q50.1 9.65 50.85 8.9 L50.9 8.9"/>
    <path stroke="none" fill="#FCC920" d="M37.1 55.1 Q36.25 56 35 56 33.75 56 32.9 55.1 32 54.25 32 53 32 51.75 32.9 50.9 L32.9 50.85 Q33.75 50 35 50 L37 50 Q37.4 50 37.7 50.3 L38 51 38 53 38 53.2 38 53.3 Q37.9 54.35 37.15 55.1 L37.1 55.1"/>
    <path stroke="none" fill="#FCC920" d="M50.9 55.1 L50.85 55.1 Q50.1 54.35 50 53.3 L50 53.2 50 53 50 51 Q50 50.6 50.3 50.3 50.6 50 51 50 L53 50 Q54.25 50 55.1 50.85 L55.1 50.9 Q56 51.75 56 53 56 54.25 55.1 55.1 54.25 56 53 56 51.75 56 50.9 55.1"/>
    <path stroke="none" fill="#FCC920" d="M40.75 32.4 L40.9 32.05 Q40.25 30.75 40.35 28.9 L39.45 29 Q38.4 29.05 38.25 28.4 L38.2 27.6 Q38.1 26.9 39 26.75 L40.45 26.5 41.05 25.3 44.05 25.65 44.45 25.3 Q44.75 25.05 45.2 25.1 45.65 25.15 45.9 25.45 L45.95 25.45 46.15 26.2 45.8 27.05 43.55 28.9 Q43.5 29.7 43.75 30.35 L44.15 30.2 Q46.35 29.45 49.2 30.7 51.35 31.6 52.05 32.45 52.1 31.8 51.7 31.25 50.6 30 47.45 28.95 L46.95 28.6 46.8 28.05 47.05 27.5 Q49.6 24.45 53.45 26 L53.95 26.5 53.95 27.2 53.45 27.65 52.75 27.65 49.45 27.8 Q52.1 28.8 53.1 30.1 54.7 32 53.15 34.35 L52.15 35.45 51.6 35.7 52.65 38.85 52.65 39.4 52.35 39.85 51.85 40 49.1 40 Q49 38.55 50.25 38.3 L50.25 38.25 49.5 36 48.7 35.7 48.4 35.65 48.95 37.4 48.95 37.7 48.85 38.1 47.85 39.6 47.5 39.9 47.05 40 44 40 Q44.45 38.5 46.05 38.25 L46.55 37.5 46.3 36.75 44.1 37.05 43.25 39.45 42.95 39.85 42.35 40 39.45 40 Q39.6 38.55 41.7 38.25 L42.35 36.35 41.6 35.75 Q40.15 36.55 38.55 36.8 L38.85 38.25 38.9 38.7 38.9 38.75 38.6 39.35 Q38.25 39.9 37.6 40 L36.45 39.75 35.85 38.8 Q35.7 38.15 36.05 37.65 L36.35 37.3 36.2 36.7 35.85 36.85 34.7 36.6 34 35.6 Q33.9 34.95 34.25 34.5 34.65 33.95 35.25 33.8 L35.65 33.8 34.5 27.7 Q34.15 25 35.55 24.05 L35.75 24 36.05 24.1 36.15 24.25 37.9 33.35 38.3 33.25 39.45 33.5 40 34.2 40.4 34.05 Q40.35 33.35 40.75 32.4"/>
  </g>
</svg>