<svg width="64" height="64" xmlns="http://www.w3.org/2000/svg" xmlns:xlink="http://www.w3.org/1999/xlink">
  <defs/>
  <g>
    <path stroke="none" fill="#EEEEF7" d="M64 39 L64 52 0 52 0 39 64 39 M0 26 L0 13 64 13 64 26 0 26"/>
    <path stroke="none" fill="#EC2037" d="M0 26 L64 26 64 39 0 39 0 26 M64 52 L64 64 0 64 0 52 64 52 M0 13 L0 0 64 0 64 13 0 13"/>
    <path stroke="none" fill="#3439CB" d="M32 0 L32 32 0 32 0 0 32 0"/>
    <path stroke="none" fill="#EEEEF7" d="M17.2 6.7 L19.9 11.3 24.95 12.6 Q25.45 12.7 25.75 13.1 L26 14.05 25.7 14.95 22.3 19.05 22.7 24.45 22.5 25.4 21.75 25.95 20.8 25.9 16 23.85 11.2 25.9 10.3 25.95 9.55 25.4 Q9.25 24.95 9.3 24.45 L9.7 19.05 6.35 14.95 Q6 14.55 6 14.05 6 13.5 6.3 13.1 6.6 12.7 7.05 12.6 L12.1 11.3 14.85 6.7 Q15.1 6.25 15.55 6.1 16 5.95 16.45 6.1 L17.2 6.7"/>
  </g>
</svg>