<svg width="64" height="64" xmlns="http://www.w3.org/2000/svg" xmlns:xlink="http://www.w3.org/1999/xlink">
  <defs/>
  <g>
    <path stroke="none" fill="#EC2037" d="M0 17 L0 0 64 0 64 17 0 17"/>
    <path stroke="none" fill="#25252A" d="M0 17 L64 17 64 47 0 47 0 17"/>
    <path stroke="none" fill="#259F6C" d="M64 47 L64 64 0 64 0 47 64 47"/>
    <path stroke="none" fill="#EEEEF7" d="M34.8 23 Q31 23 28.3 25.65 L28.3 25.7 Q25.65 28.3 25.65 32 25.65 35.7 28.3 38.35 31 41 34.8 41 L34.95 41 Q35.25 41 35.55 41.25 L35.9 41.8 35.85 42.45 35.35 42.9 Q33 44 30.2 44 25.2 44 21.55 40.45 18 36.95 18 32 18 27.05 21.55 23.5 25.2 20 30.2 20 33 20 35.4 21.1 L35.9 21.55 35.95 22.25 35.6 22.8 35 23 34.8 23"/>
    <path stroke="none" fill="#EEEEF7" d="M39 26.2 L41.2 28.4 44.15 28.35 44.7 28.5 45 29 44.95 29.55 43.7 32.35 44.65 35.3 44.7 35.85 44.4 36.25 43.9 36.4 40.9 36 38.6 37.85 38.1 38 Q37.8 38 37.6 37.8 L37.3 37.3 36.75 34.25 34.35 32.4 34 32 Q33.95 31.7 34.05 31.45 34.1 31.15 34.4 31 L36.95 29.55 37.8 26.55 Q37.85 26.25 38.05 26.15 L38.55 26 39 26.2"/>
  </g>
</svg>