<svg width="64" height="64" xmlns="http://www.w3.org/2000/svg" xmlns:xlink="http://www.w3.org/1999/xlink">
  <defs/>
  <g>
    <path stroke="none" fill="#EC2037" d="M0 0 L64 0 64 64 0 64 0 0"/>
    <path stroke="none" fill="#259F6C" d="M33.65 18.9 L36.8 24.45 42.15 24.45 Q42.8 24.45 43.35 24.95 L44 26 Q44.1 26.65 43.8 27.25 L41.05 32 43.8 36.9 Q44.1 37.45 44 38.1 43.85 38.75 43.35 39.2 42.8 39.65 42.15 39.65 L36.75 39.65 33.65 45.1 32.7 45.9 Q32.05 46.1 31.4 45.9 30.75 45.7 30.4 45.1 L27.35 39.65 21.85 39.65 Q21.2 39.65 20.7 39.2 20.15 38.75 20.05 38.1 19.9 37.45 20.25 36.85 L23 32 20.25 27.25 Q19.9 26.65 20.05 26 20.15 25.4 20.65 24.95 21.15 24.45 21.85 24.45 L27.35 24.45 30.4 18.95 Q30.75 18.4 31.4 18.15 32.05 17.9 32.7 18.15 33.3 18.3 33.65 18.9 M36.35 30.15 L36.35 30.1 Q36.25 29.6 35.75 29.15 35.25 28.75 34.65 28.75 L29.4 28.75 Q28.85 28.75 28.35 29.1 L28.25 29.15 Q27.75 29.6 27.65 30.1 L27.65 30.15 Q27.55 30.8 27.95 31.3 L30.55 35.5 Q30.85 36.15 31.55 36.25 L32.55 36.25 Q33.2 36.15 33.6 35.5 L36.15 31.25 36.1 31.3 Q36.45 30.8 36.35 30.15"/>
  </g>
</svg>