<svg width="64" height="64" xmlns="http://www.w3.org/2000/svg" xmlns:xlink="http://www.w3.org/1999/xlink">
  <defs/>
  <g>
    <path stroke="none" fill="#EC2037" d="M46 0 L64 0 64 64 46 64 46 0"/>
    <path stroke="none" fill="#FCC920" d="M46 0 L46 64 18 64 18 0 46 0"/>
    <path stroke="none" fill="#3439CB" d="M18 64 L0 64 0 0 18 0 18 64"/>
    <path stroke="none" fill="#C4863B" d="M35 21 L35 25.4 37 24.4 37 23 Q37 22.6 37.3 22.3 L39.3 20.3 Q39.6 20 40 20 40.4 20 40.7 20.3 L42.7 22.3 43 23 43 41 42.75 41.7 42.1 42 41.4 41.8 35.1 37.05 36.95 42.7 36.95 43.4 36.45 43.9 32.45 45.9 32 46 31.55 45.9 27.55 43.9 27.1 43.4 Q26.95 43.05 27.05 42.7 L28.95 37.05 22.6 41.8 21.9 42 Q21.5 41.95 21.25 41.7 L21 41 21 23 Q21 22.6 21.3 22.3 L23.3 20.3 Q23.6 20 24 20 24.4 20 24.7 20.3 L26.7 22.3 27 23 27 24.4 29 25.4 29 21 Q29 20.6 29.3 20.3 29.6 20 30 20 L34 20 Q34.4 20 34.7 20.3 L35 21"/>
    <path stroke="none" fill="#392D8C" d="M26.05 33.45 L26 28.15 Q26.05 27.7 26.4 27.35 26.7 27 27.2 27 L36.8 27 Q37.35 27 37.65 27.35 38 27.7 38 28.15 L38 33.45 26.05 33.45"/>
    <path stroke="none" fill="#EC2037" d="M26.05 33.45 L38 33.45 38 35.35 Q38 37.85 35.35 39.6 33.85 40.6 32 41 L30.8 40.65 28.7 39.6 Q26.2 37.95 26.05 35.65 L26.05 33.45"/>
  </g>
</svg>