<svg width="64" height="64" xmlns="http://www.w3.org/2000/svg" xmlns:xlink="http://www.w3.org/1999/xlink">
  <defs/>
  <g>
    <path stroke="none" fill="#FCC920" d="M56 8 L8 8 8 56 56 56 56 8 M0 64 L0 0 64 0 64 64 0 64"/>
    <path stroke="none" fill="#EC2037" d="M6 58 L6 6 58 6 58 58 6 58"/>
    <path stroke="none" fill="#FCC920" d="M27 17 Q29.1 17 30.55 18.35 L30.55 18.3 30.75 18.5 33.25 18.5 33.5 18.3 33.5 18.35 Q34.95 17 37 17 39.05 17 40.5 18.3 L40.55 18.35 40.55 18.3 40.75 18.5 Q42 19.8 42 21.5 42 23.4 40.55 24.7 L38.75 25.8 38.7 25.8 38.7 27.5 Q38.7 28.15 38.25 28.6 37.75 29 37 29 L27 29 Q26.3 29 25.85 28.6 25.35 28.15 25.35 27.5 L25.35 25.8 Q24.3 25.45 23.5 24.7 22 23.4 22 21.5 22 19.8 23.25 18.5 L23.5 18.3 23.5 18.35 23.55 18.3 Q25 17 27 17"/>
    <path stroke="none" fill="#FCC920" d="M34 15 Q34 15.8 33.4 16.4 32.8 17 32 17 31.2 17 30.6 16.4 30 15.8 30 15 30 14.2 30.6 13.6 31.2 13 32 13 32.8 13 33.4 13.6 34 14.2 34 15"/>
    <path stroke="none" fill="#5193EE" d="M25.05 40.25 L25 32.75 Q25.05 32 25.45 31.55 25.8 31 26.4 31 L27.2 31 32 32.55 36.85 31 37.6 31 Q38.2 31 38.55 31.55 38.95 32 39 32.75 L39 40.25 25.05 40.25 M39 40.8 L39 41.75 38.9 41.75 39 40.8 M25.1 41.75 L25.05 41.75 25.05 41.05 25.1 41.75"/>
    <path stroke="none" fill="#259F6C" d="M25.1 41.75 L25.05 41.05 25.05 40.25 39 40.25 39 40.8 38.9 41.75 Q38.45 44.7 35.9 46.9 34.15 48.35 32 49 L30.6 48.45 Q29.3 47.85 28.1 46.9 25.55 44.7 25.1 41.75"/>
    <path stroke="none" fill="#FCC920" d="M22.6 35.95 Q23 36.25 23 36.75 L23 38.9 22.85 39.35 22.55 39.7 Q19.05 42.45 15.9 39.3 12.3 35.75 13.15 27.95 13.2 27.5 13.55 27.25 13.95 27 14.4 27 14.9 27 15.25 27.3 L20.15 31.65 Q20.55 31.95 20.55 32.4 L20.55 34.15 22.6 35.95"/>
    <path stroke="none" fill="#FCC920" d="M41.4 35.95 L43.45 34.15 43.45 32.4 Q43.45 31.95 43.85 31.65 L48.75 27.3 Q49.1 27 49.6 27 L50.45 27.25 50.85 27.95 Q51.7 35.75 48.1 39.3 44.95 42.45 41.45 39.7 L41.15 39.35 41 38.9 41 36.75 Q41 36.25 41.4 35.95"/>
  </g>
</svg>