<svg width="64" height="64" xmlns="http://www.w3.org/2000/svg" xmlns:xlink="http://www.w3.org/1999/xlink">
  <defs/>
  <g>
    <path stroke="none" fill="#C4863B" d="M0 57.65 L0 52.7 64 0 64 20 0 57.65"/>
    <path stroke="none" fill="#EEEEF7" d="M0 57.65 L64 20 64 40 0 62.6 0 57.65"/>
    <path stroke="none" fill="#392D8C" d="M64 40 L64 64 0 64 0 62.6 64 40 M0 52.7 L0 0 64 0 0 52.7"/>
    <path stroke="none" fill="#EEEEF7" d="M13.9 23.15 Q11.35 24.45 10.4 23.6 9.5 22.65 10.8 20.1 L11.15 19.5 7.8 19 Q4 18.15 4 17 4 15.8 7.8 15.05 L11.1 14.55 10.8 13.9 Q9.5 11.3 10.4 10.45 11.35 9.5 13.9 10.8 L14.5 11.15 15 7.8 Q15.85 4 17 4 18.2 4 18.95 7.8 L19.5 11.15 20.05 10.8 Q22.65 9.5 23.55 10.45 24.45 11.35 23.15 13.9 L22.9 14.55 26.2 15.05 Q30 15.8 30 17 30 18.15 26.2 19 L22.85 19.5 23.15 20.1 Q24.45 22.65 23.55 23.55 22.6 24.45 20.05 23.15 L19.5 22.9 18.95 26.2 Q18.2 30 17 30 15.85 30 15 26.2 L14.5 22.9 13.9 23.15"/>
  </g>
</svg>