<svg width="64" height="64" xmlns="http://www.w3.org/2000/svg" xmlns:xlink="http://www.w3.org/1999/xlink">
  <defs/>
  <g>
    <path stroke="none" fill="#FCC920" d="M0 21 L0 0 64 0 64 21 0 21"/>
    <path stroke="none" fill="#259F6C" d="M0 21 L64 21 64 43 0 43 0 21"/>
    <path stroke="none" fill="#EC2037" d="M64 43 L64 64 0 64 0 43 64 43"/>
    <path stroke="none" fill="#EEEEF7" d="M33.9 17.1 L38.25 24.5 46.3 26.55 Q47.1 26.7 47.6 27.35 48 28 48 28.9 48 29.7 47.5 30.3 L42.1 36.9 42.7 45.5 Q42.8 46.3 42.4 47.05 41.9 47.7 41.2 47.9 L39.7 47.85 32 44.55 24.3 47.85 22.9 47.9 21.7 47.05 Q21.2 46.3 21.3 45.5 L21.9 36.9 16.55 30.3 Q16 29.7 16 28.9 16 28 16.5 27.35 16.95 26.7 17.7 26.55 L25.75 24.5 30.15 17.1 Q30.55 16.4 31.3 16.15 32 15.9 32.7 16.15 33.5 16.4 33.9 17.1"/>
  </g>
</svg>