<svg width="64" height="64" xmlns="http://www.w3.org/2000/svg" xmlns:xlink="http://www.w3.org/1999/xlink">
  <defs/>
  <g>
    <path stroke="none" fill="#EC2037" d="M43 0 L64 0 64 64 43 64 43 0 M21 64 L0 64 0 0 21 0 21 64"/>
    <path stroke="none" fill="#3439CB" d="M21 64 L21 0 43 0 43 64 21 64"/>
    <path stroke="none" fill="#FCC920" d="M9.9 24 L10.1 24 Q11.7 24.05 12.85 25.15 14 26.3 14 28 14 29.65 12.85 30.8 L12.8 30.85 Q11.7 31.95 10.1 32 L9.9 32 Q8.3 31.95 7.15 30.85 6 29.7 6 28 6 26.35 7.1 25.2 L7.2 25.1 Q8.3 24.05 9.9 24"/>
    <path stroke="none" fill="#FCC920" d="M11.35 16.85 L12.85 19.85 Q13.1 20.3 12.95 20.85 12.85 21.35 12.45 21.65 12.05 22 11.5 22 L8.5 22 Q8 22 7.55 21.65 7.15 21.35 7.05 20.85 6.95 20.3 7.15 19.85 L8.65 16.85 Q8.9 16.3 9.5 16.1 10 15.9 10.55 16.1 L11.35 16.85"/>
    <path stroke="none" fill="#FCC920" d="M4 44 L4 36 Q4 35.15 4.6 34.6 5.15 34 6 34 L14 34 Q14.85 34 15.45 34.6 16 35.15 16 36 L16 44 Q16 44.85 15.45 45.45 14.85 46 14 46 L6 46 Q5.15 46 4.6 45.45 4 44.85 4 44"/>
  </g>
</svg>