<svg width="64" height="64" xmlns="http://www.w3.org/2000/svg" xmlns:xlink="http://www.w3.org/1999/xlink">
  <defs/>
  <g>
    <path stroke="none" fill="#259F6C" d="M0 64 L0 0 64 0 64 64 0 64"/>
    <path stroke="none" fill="#FCC920" d="M33.1 18.5 Q32.7 20 32 20 31.25 20 30.75 18.5 L30.35 16.55 28.45 16.1 Q27 15.65 27 15 27 14.25 28.45 13.75 L30.35 13.35 30.75 11.4 Q31.25 10 32 10 32.7 10 33.1 11.4 L33.55 13.35 35.5 13.75 Q37 14.25 37 15 37 15.65 35.5 16.1 L33.55 16.55 33.1 18.5"/>
    <path stroke="none" fill="#FCC920" d="M42.4 22.85 Q41.5 23.7 41 23.45 40.5 23.15 40.75 21.9 L41.2 20.4 40.1 19.35 Q39.25 18.45 39.55 18 39.85 17.45 41.05 17.7 L42.5 18.2 43.55 17 Q44.5 16.2 45 16.5 45.5 16.75 45.2 17.95 L44.75 19.45 45.9 20.5 Q46.75 21.45 46.45 22 L44.95 22.15 43.45 21.65 42.4 22.85"/>
    <path stroke="none" fill="#FCC920" d="M23.2 21.95 Q23.5 23.2 23 23.45 22.5 23.75 21.55 22.9 L20.55 21.7 19 22.2 17.55 22 Q17.25 21.45 18.05 20.55 L19.25 19.5 18.75 18 Q18.5 16.85 19 16.55 19.5 16.3 20.4 17.05 L21.45 18.25 22.95 17.7 Q24.15 17.45 24.45 18 24.75 18.45 23.9 19.35 L22.75 20.45 23.2 21.95"/>
    <path stroke="none" fill="#EEEEF7" d="M40 49.5 Q40.2 51.55 37.25 52.95 35.05 54 32 54 28.95 54 26.8 52.95 L26.75 52.95 Q23.8 51.55 24 49.5 24 48.85 24.5 48.45 24.9 48 25.6 48 L38.4 48 Q39.1 48 39.55 48.45 40 48.85 40 49.5"/>
    <path stroke="none" fill="#EEEEF7" d="M34.55 22.75 L36.55 24.25 36.6 24.3 Q40.05 27.4 40.05 31.75 L40.05 31.9 44.35 32.05 44.3 32.05 46.9 32.95 46.75 32.9 Q48.3 33.55 48.8 35.05 L48.85 35.15 49 36.65 Q48.95 37.8 48.5 38.9 L48.45 38.95 Q47.3 42.7 43.55 44.6 L43.5 44.65 Q39.8 46.6 35.8 45.7 L35.85 45.7 33.4 44.95 33.3 44.9 32 43.95 30.7 44.9 30.65 44.95 28.15 45.7 28.2 45.7 Q24.2 46.6 20.5 44.65 L20.45 44.6 Q16.7 42.7 15.55 38.95 L15.55 38.9 Q15.05 37.8 15 36.75 L15 36.65 Q14.95 35.9 15.2 35.15 L15.2 35.05 Q15.65 33.6 17.15 32.95 18.25 32.3 19.75 32.05 L19.65 32.05 23.95 31.9 23.95 31.75 Q23.95 27.45 27.35 24.35 L27.4 24.3 Q28.45 23.25 29.8 22.55 31.2 21.8 32.75 22.1 L32.65 22.1 Q33.7 22.25 34.5 22.75 L34.55 22.75 M31.2 40.95 L31.15 41.05 31.2 41 31.2 40.95"/>
  </g>
</svg>