<svg width="64" height="64" xmlns="http://www.w3.org/2000/svg" xmlns:xlink="http://www.w3.org/1999/xlink">
  <defs/>
  <g>
    <path stroke="none" fill="#EC2037" d="M64 47 L64 64 0 64 0 47 64 47 M0 17 L0 0 64 0 64 17 0 17"/>
    <path stroke="none" fill="#259F6C" d="M0 17 L64 17 64 47 0 47 0 17"/>
    <path stroke="none" fill="#FCC920" d="M34.15 31.3 Q33.25 33 32 33 30.75 33 29.85 31.3 L29.3 29.7 27.75 29.15 Q26 28.25 26 27 26 25.75 27.75 24.85 L29.35 24.3 29.85 22.75 Q30.75 21 32 21 33.25 21 34.15 22.75 L34.7 24.3 36.25 24.85 Q38 25.75 38 27 38 28.25 36.25 29.15 L34.7 29.7 34.15 31.3"/>
    <path stroke="none" fill="#FCC920" d="M19.1 35.1 L20.15 35.2 Q25.15 37.65 32 37.65 38.8 37.65 43.8 35.2 L44.9 35.1 45 35.1 45.8 35.95 45.75 35.9 Q46.1 36.5 46 37.25 L45.95 37.4 45.5 38.4 45.4 38.45 43.35 40.1 43.3 40.1 43.15 40.2 Q38.55 43 32 43 25.4 43 20.8 40.2 L20.6 40.05 18.6 38.45 18.55 38.45 Q18.05 37.95 18 37.25 17.9 36.5 18.25 35.9 L18.2 35.95 Q18.5 35.3 19.1 35.1"/>
  </g>
</svg>