<svg width="64" height="64" xmlns="http://www.w3.org/2000/svg" xmlns:xlink="http://www.w3.org/1999/xlink">
  <defs/>
  <g>
    <path stroke="none" fill="#EEEEF7" d="M32 64 L0 64 0 0 32 0 32 64"/>
    <path stroke="none" fill="#EC2037" d="M32 64 L32 0 64 0 64 64 32 64"/>
    <path stroke="none" fill="#9899AD" d="M18 21.75 L18 24 Q18 24.85 17.45 25.45 16.85 26 16 26 L14 26 Q13.15 26 12.6 25.45 12 24.85 12 24 L12 21.7 Q10.9 21.1 9.95 20.15 8.95 19.15 8.3 18 L6 18 Q5.15 18 4.6 17.45 4 16.85 4 16 L4 14 Q4 13.15 4.6 12.6 5.15 12 6 12 L8.35 12 Q9 10.9 9.95 9.95 10.9 9 12 8.35 L12 6 Q12 5.15 12.6 4.6 13.15 4 14 4 L16 4 Q16.85 4 17.45 4.6 18 5.15 18 6 L18 8.35 20.05 9.95 21.7 12 24 12 Q24.85 12 25.45 12.6 26 13.15 26 14 L26 16 Q26 16.85 25.45 17.45 24.85 18 24 18 L21.75 18 21.75 18.05 20.05 20.15 18.05 21.75 18 21.75"/>
    <path fill="none" stroke="#FF0000" stroke-width="1" stroke-linecap="round" stroke-linejoin="round" d="M21.75 18 L21.75 18.05 M18.05 21.75 L18 21.75"/>
  </g>
</svg>