<svg width="64" height="64" xmlns="http://www.w3.org/2000/svg" xmlns:xlink="http://www.w3.org/1999/xlink">
  <defs/>
  <g>
    <path stroke="none" fill="#259F6C" d="M52 12 L52 52 12 52 12 12 52 12"/>
    <path stroke="none" fill="#EC2037" d="M52 12 L12 12 12 52 52 52 52 12 M0 64 L0 0 64 0 64 64 0 64"/>
    <path stroke="none" fill="#EEEEF7" d="M39.8 23 Q36 23 33.3 25.65 L33.3 25.7 Q30.65 28.3 30.65 32 30.65 35.7 33.3 38.35 36 41 39.8 41 L39.95 41 Q40.25 41 40.55 41.25 L40.9 41.8 40.85 42.45 40.35 42.9 Q38 44 35.2 44 30.2 44 26.55 40.45 23 36.95 23 32 23 27.05 26.55 23.5 30.2 20 35.2 20 38 20 40.4 21.1 L40.9 21.55 40.95 22.25 40.6 22.8 40 23 39.8 23"/>
  </g>
</svg>