<svg width="64" height="64" xmlns="http://www.w3.org/2000/svg" xmlns:xlink="http://www.w3.org/1999/xlink">
  <defs/>
  <g>
    <path stroke="none" fill="#EC2037" d="M46 0 L64 0 64 64 46 64 46 0"/>
    <path stroke="none" fill="#259F6C" d="M18 64 L0 64 0 0 18 0 18 64"/>
    <path stroke="none" fill="#EEEEF7" d="M18 64 L18 0 46 0 46 64 18 64"/>
    <path stroke="none" fill="#C4863B" d="M41 29 Q41 32.75 38.4 35.4 35.75 38 32 38 28.25 38 25.65 35.4 23 32.75 23 29 23 25.3 25.65 22.65 28.25 20 32 20 35.75 20 38.4 22.65 41 25.3 41 29"/>
    <path stroke="none" fill="#259F6C" d="M34.1 46.1 Q33.25 47 32 47 30.75 47 29.85 46.1 L29.2 45.05 29.1 45.1 Q28.25 46 27 46 25.75 46 24.85 45.1 24 44.25 24 43 L24 42.85 23 43 Q21.75 43 20.85 42.1 20 41.25 20 40 20 38.75 20.85 37.85 21.75 37 23 37 24.25 37 25.1 37.85 26 38.75 26 40 L26 40.15 27 40 Q28.25 40 29.1 40.85 L29.8 41.9 29.85 41.85 Q30.75 41 32 41 33.25 41 34.1 41.85 L34.2 41.95 Q34.4 41.35 34.85 40.85 35.75 40 37 40 L38 40.15 38 40 Q38 38.75 38.85 37.85 39.75 37 41 37 42.25 37 43.1 37.85 44 38.75 44 40 44 41.25 43.1 42.1 42.25 43 41 43 L40 42.85 40 43 Q40 44.25 39.1 45.1 38.25 46 37 46 35.75 46 34.85 45.1 L34.8 45.05 34.1 46.1"/>
  </g>
</svg>