<svg width="64" height="64" xmlns="http://www.w3.org/2000/svg" xmlns:xlink="http://www.w3.org/1999/xlink">
  <defs/>
  <g>
    <path stroke="none" fill="#EEEEF7" d="M64 39 L64 52 0 52 0 39 64 39 M0 26 L0 13 64 13 64 26 0 26"/>
    <path stroke="none" fill="#EC2037" d="M0 26 L64 26 64 39 0 39 0 26 M64 52 L64 64 0 64 0 52 64 52 M0 13 L0 0 64 0 64 13 0 13"/>
    <path stroke="none" fill="#3439CB" d="M32 0 L32 32 0 32 0 0 32 0"/>
    <path stroke="none" fill="#FCC920" d="M16.3 10.75 Q13.95 10.75 12.3 12.3 L12.3 12.35 Q10.7 13.85 10.7 16 10.7 18.15 12.3 19.7 13.95 21.25 16.3 21.25 L16.4 21.25 16.75 21.4 16.95 21.7 16.95 22.1 16.6 22.35 Q15.2 23 13.5 23 10.4 23 8.2 20.95 6 18.9 6 16 6 13.1 8.2 11.05 10.4 9 13.5 9 15.2 9 16.65 9.65 L16.95 9.9 17 10.3 16.8 10.65 16.4 10.75 16.3 10.75"/>
    <path stroke="none" fill="#FCC920" d="M23.95 18.8 Q23.55 20 23 20 22.45 20 22.05 18.8 L21.95 18.5 21.65 18.65 20.15 18.85 Q19.8 18.45 20.35 17.35 L20.5 17.05 20.2 16.95 Q19 16.55 19 16 19 15.45 20.2 15.05 L20.5 14.95 20.3 14.7 Q19.75 13.55 20.15 13.2 20.55 12.8 21.65 13.35 L21.95 13.5 22.05 13.2 Q22.45 12 23 12 23.55 12 23.95 13.2 L24.05 13.5 Q24.2 13.4 24.3 13.35 25.45 12.8 25.8 13.2 26.2 13.6 25.65 14.7 L25.5 14.95 25.85 15.05 Q27 15.45 27 16 27 16.55 25.85 16.95 L25.5 17.05 25.65 17.35 Q26.2 18.45 25.8 18.8 L24.3 18.65 24.05 18.5 23.95 18.8"/>
  </g>
</svg>