<svg width="64" height="64" xmlns="http://www.w3.org/2000/svg" xmlns:xlink="http://www.w3.org/1999/xlink">
  <defs/>
  <g>
    <path stroke="none" fill="#EEEEF7" d="M64 23 L0 23 0 17 64 17 64 23 M0 41 L64 41 64 47 0 47 0 41"/>
    <path stroke="none" fill="#259F6C" d="M0 17 L0 0 64 0 64 17 0 17"/>
    <path stroke="none" fill="#25252A" d="M64 23 L64 41 0 41 0 23 64 23"/>
    <path stroke="none" fill="#FCC920" d="M64 47 L64 64 0 64 0 47 64 47"/>
    <path stroke="none" fill="#EC2037" d="M34.85 34.85 L5.65 64 0 64 0 0 5.65 0 34.85 29.2 Q36 30.35 36 32 36 33.65 34.85 34.85"/>
    <path stroke="none" fill="#FCC920" d="M14.1 23.65 L16.5 27.75 21.05 28.95 Q21.5 29.05 21.8 29.4 L22 30.25 21.75 31.05 18.65 34.75 19.05 39.6 18.85 40.45 18.2 40.95 17.3 40.9 13 39.05 8.7 40.9 7.85 40.95 7.2 40.45 6.95 39.6 7.35 34.75 4.3 31.05 Q4 30.7 4 30.25 4 29.75 4.25 29.4 L4.95 28.95 9.5 27.75 11.95 23.65 Q12.2 23.25 12.6 23.1 13 22.95 13.4 23.1 L14.1 23.65"/>
  </g>
</svg>