<svg width="64" height="64" xmlns="http://www.w3.org/2000/svg" xmlns:xlink="http://www.w3.org/1999/xlink">
  <defs/>
  <g>
    <path stroke="none" fill="#EC2037" d="M16 64 L0 64 0 48 48 0 64 0 64 16 16 64"/>
    <path stroke="none" fill="#EEEEF7" d="M16 64 L64 16 64 24 24 64 16 64 M0 48 L0 40 40 0 48 0 0 48"/>
    <path stroke="none" fill="#392D8C" d="M0 40 L0 0 40 0 0 40"/>
    <path stroke="none" fill="#259F6C" d="M64 24 L64 64 24 64 64 24"/>
    <path stroke="none" fill="#FCC920" d="M12.7 15.95 Q12 18 11 18 10.05 18 9.35 15.95 L9.2 15.4 Q8.95 15.55 8.65 15.65 6.75 16.65 6.05 16 5.35 15.3 6.35 13.35 L6.65 12.85 6.05 12.65 Q4 12 4 11 4 10.05 6.05 9.35 L6.6 9.2 6.3 8.7 Q5.35 6.75 6.05 6.1 6.75 5.4 8.65 6.35 L9.2 6.65 9.35 6.1 Q10.05 4 11 4 12 4 12.7 6.1 L12.85 6.6 Q13.05 6.45 13.3 6.35 15.25 5.4 15.95 6.1 16.65 6.8 15.65 8.7 L15.4 9.2 15.95 9.35 Q18 10.05 18 11 18 12 15.95 12.65 L15.35 12.85 15.65 13.35 Q16.6 15.3 15.95 15.95 15.25 16.65 13.3 15.65 L12.8 15.4 12.7 15.95"/>
  </g>
</svg>