<svg width="64" height="64" xmlns="http://www.w3.org/2000/svg" xmlns:xlink="http://www.w3.org/1999/xlink">
  <defs/>
  <g>
    <path stroke="none" fill="#5193EE" d="M64 47 L64 64 0 64 0 47 64 47 M0 17 L0 0 64 0 64 17 0 17"/>
    <path stroke="none" fill="#EEEEF7" d="M0 17 L64 17 64 47 0 47 0 17"/>
    <path stroke="none" fill="#C4863B" d="M40.45 23.5 L40.5 23.55 Q42.75 25.8 43.55 28.65 L43.55 28.7 Q44 30.25 44 32 L43.8 34.25 43.6 34.75 43.1 35.05 42.55 35.05 40.6 34.5 40.05 34.05 39.9 33.35 40 32 39.75 29.95 39.7 29.8 Q39.15 27.9 37.65 26.35 35.3 24 32 24 28.75 24 26.4 26.3 L26.3 26.4 Q24.85 27.85 24.35 29.7 L24.3 29.8 Q24 30.85 24 32 L24.1 33.4 24 34.1 23.4 34.55 21.45 35.1 20.9 35.05 20.45 34.8 20.2 34.3 20 32 Q20 30.25 20.45 28.7 L20.5 28.55 Q21.3 25.75 23.5 23.5 27.05 20 32 20 36.95 20 40.45 23.5 M38.3 38.3 L39.75 39.75 40 40.2 40 40.75 39.7 41.2 Q36.4 44 32 44 27.6 44 24.3 41.25 L24 40.75 24 40.25 24.25 39.75 25.7 38.35 Q25.95 38.05 26.35 38.05 26.7 38 27 38.25 29.15 40 32 40 34.85 40 36.95 38.25 37.25 38 37.65 38 38.05 38 38.3 38.3"/>
    <path stroke="none" fill="#259F6C" d="M36.5 36 L27.5 36 Q26.9 36 26.55 35.65 26.1 35.3 26 34.8 25.95 34.25 26.25 33.85 L30.7 26.65 Q30.95 26.2 31.5 26.05 31.95 25.85 32.45 26.05 L33.25 26.65 37.75 33.85 Q38.05 34.25 38 34.8 L37.45 35.65 36.5 36"/>
  </g>
</svg>