<svg width="64" height="64" xmlns="http://www.w3.org/2000/svg" xmlns:xlink="http://www.w3.org/1999/xlink">
  <defs/>
  <g>
    <path stroke="none" fill="#EEEEF7" d="M0 0 L64 0 64 64 0 64 0 0"/>
    <path stroke="none" fill="#392D8C" d="M23.15 35.15 L48.6 57 Q49.55 57.8 49.9 59 50.2 60.2 49.75 61.4 49.3 62.55 48.3 63.3 47.25 64 46 64 L4 64 Q2.35 64 1.2 62.85 0 61.65 0 60 L0 4 Q0 2.5 1 1.4 2 0.25 3.5 0.05 4.95 -0.15 6.25 0.7 L45.7 27.2 Q46.75 27.9 47.25 29.15 47.65 30.4 47.3 31.7 46.9 32.9 45.85 33.7 44.75 34.5 43.45 34.5 L22.2 34.5 22.85 34.9 23.15 35.15 M4 4 L4 60 46 60 20.55 38.15 20.35 38 11.6 30.5 43.45 30.5 4 4"/>
    <path stroke="none" fill="#EC2037" d="M4 4 L43.45 30.5 11.6 30.5 20.35 38 20.55 38.15 46 60 4 60 4 4"/>
    <path stroke="none" fill="#EEEEF7" d="M12.1 22.65 L11.65 22.5 Q10 21.95 10 21.05 10 20.25 11.65 19.65 11.8 19.5 12.1 19.45 L11.8 19 Q11.05 17.35 11.6 16.7 12.15 16.15 13.7 17.05 L14.1 17.3 14.25 16.7 Q14.8 15 15.5 15 16.3 15 16.85 16.7 L16.95 17.2 17.3 17.05 Q18.9 16.15 19.4 16.7 19.9 17.35 19.2 19 L18.95 19.45 Q19.25 19.5 19.4 19.65 21 20.25 21 21.05 21 21.95 19.4 22.5 L18.95 22.65 19.15 23 11.9 23 12.1 22.65"/>
    <path stroke="none" fill="#EEEEF7" d="M24 22 Q23.65 23.25 21.7 25.1 19.1 27 15.45 27 13.1 27 9.3 25.1 7.55 23.85 7.05 22 L7.05 21.55 7.35 21.1 7.75 21 8.25 21.15 Q8.7 21.55 9.95 21.85 L15.45 22.4 21.05 21.85 Q22.25 21.55 22.8 21.15 22.95 21 23.25 21 L23.7 21.1 24 21.55 24 22"/>
    <path stroke="none" fill="#EEEEF7" d="M17.95 54.65 Q17.15 57 16 57 14.95 57 14.15 54.65 L13.95 54.05 13.35 54.35 Q11.15 55.45 10.35 54.7 9.6 53.9 10.7 51.7 L11.05 51.1 10.4 50.9 Q8 50.15 8 49 8 47.9 10.4 47.15 L11.05 46.95 10.65 46.35 Q9.55 44.15 10.35 43.35 11.15 42.55 13.35 43.7 L13.95 44.05 14.15 43.35 Q14.95 41 16 41 17.15 41 17.95 43.35 L18.15 43.95 18.65 43.7 Q20.9 42.55 21.65 43.35 22.45 44.15 21.35 46.35 L21.05 46.95 21.7 47.15 Q24 47.9 24 49 24 50.15 21.7 50.9 L21.05 51.1 21.35 51.7 Q22.4 53.9 21.65 54.65 20.85 55.45 18.65 54.35 L18.1 54.05 17.95 54.65"/>
  </g>
</svg>