<svg width="64" height="64" xmlns="http://www.w3.org/2000/svg" xmlns:xlink="http://www.w3.org/1999/xlink">
  <defs/>
  <g>
    <path stroke="none" fill="#392D8C" d="M64 0 L64 64 0 64 0 0 64 0"/>
    <path stroke="none" fill="#FCC920" d="M0 28 L64 28 64 36 0 36 0 28"/>
    <path stroke="none" fill="#EEEEF7" d="M21.9 53.65 Q21.1 56 20 56 18.9 56 18.1 53.65 L17.9 53 17.3 53.3 Q15.1 54.45 14.3 53.7 13.55 52.9 14.7 50.7 L15 50.1 14.35 49.9 Q12 49.1 12 48 12 46.9 14.35 46.1 L14.95 45.9 14.65 45.35 Q13.5 43.1 14.3 42.35 15.1 41.55 17.3 42.7 L17.9 43 18.1 42.35 Q18.9 40 20 40 21.1 40 21.9 42.35 L22.1 42.95 22.65 42.7 Q24.9 41.55 25.65 42.35 26.45 43.15 25.3 45.35 L25.05 45.9 25.7 46.1 Q28 46.9 28 48 28 49.1 25.7 49.9 L25 50.1 25.3 50.7 Q26.4 52.9 25.65 53.65 24.85 54.45 22.65 53.3 L22.1 53.05 21.9 53.65"/>
  </g>
</svg>