<svg width="64" height="64" xmlns="http://www.w3.org/2000/svg" xmlns:xlink="http://www.w3.org/1999/xlink">
  <defs/>
  <g>
    <path stroke="none" fill="#EEEEF7" d="M0 21 L0 0 64 0 64 21 0 21"/>
    <path stroke="none" fill="#EC2037" d="M0 21 L64 21 64 43 0 43 0 21"/>
    <path stroke="none" fill="#259F6C" d="M64 43 L64 64 0 64 0 43 64 43"/>
    <path stroke="none" fill="#EC2037" d="M25 64 L0 64 0 0 25 0 25 64"/>
    <path stroke="none" fill="#EEEEF7" d="M14.1 6.6 Q14.7 5.45 16 5.15 L15.95 5.15 Q17.3 4.7 18.4 5.45 L18.45 5.45 Q19.5 6.1 19.9 7.35 L19.95 7.4 Q20.2 8.7 19.65 9.8 L19.6 9.85 Q18 12.5 16 14.75 L17.85 16 Q18.55 16.35 18.9 17.2 L18.95 17.3 Q19.1 18.15 18.7 18.9 L18.65 19 Q18.2 19.6 17.55 19.9 L17.4 19.95 15.75 19.75 Q14 18.7 12.45 17.45 L12 17.45 11.65 17.45 8.25 19.75 8.15 19.8 6.65 19.9 Q5.8 19.65 5.4 18.9 4.95 18.15 5.2 17.3 5.4 16.4 6.15 16 L8.05 14.75 Q6.05 12.5 4.5 9.85 L4.5 9.8 Q3.75 8.7 4.15 7.35 L4.15 7.4 Q4.45 6.1 5.55 5.45 L5.6 5.45 Q6.75 4.7 8.05 5.15 L8 5.15 Q9.3 5.4 10 6.55 L10.05 6.6 10.25 7 10.5 6.7 Q11.15 6.05 12 6.05 12.85 6.05 13.5 6.7 L13.8 7.05 14.1 6.6"/>
  </g>
</svg>