<svg width="64" height="64" xmlns="http://www.w3.org/2000/svg" xmlns:xlink="http://www.w3.org/1999/xlink">
  <defs/>
  <g>
    <path stroke="none" fill="#EC2037" d="M32 0 L64 0 64 32 32 32 32 0"/>
    <path stroke="none" fill="#EEEEF7" d="M32 0 L32 32 64 32 64 64 32 64 32 32 0 32 0 0 32 0"/>
    <path stroke="none" fill="#3439CB" d="M32 64 L0 64 0 32 32 32 32 64"/>
    <path stroke="none" fill="#3439CB" d="M17.1 7.65 L19.5 11.75 24.05 12.95 Q24.5 13.05 24.8 13.4 L25 14.25 24.75 15.05 21.65 18.75 22.05 23.6 21.85 24.45 21.2 24.95 20.3 24.9 16 23.05 11.7 24.9 10.85 24.95 10.2 24.45 9.95 23.6 10.35 18.75 7.3 15.05 Q7 14.7 7 14.25 7 13.75 7.25 13.4 L7.95 12.95 12.5 11.75 14.95 7.65 15.6 7.1 Q16 6.95 16.4 7.1 16.85 7.25 17.1 7.65"/>
    <path stroke="none" fill="#EC2037" d="M49.1 39.65 L51.5 43.75 56.05 44.95 56.8 45.4 57 46.25 56.75 47.05 53.65 50.75 54.05 55.6 53.85 56.45 53.2 56.95 52.3 56.9 48 55.05 43.7 56.9 42.85 56.95 42.2 56.45 41.95 55.6 42.35 50.75 39.3 47.05 Q39 46.7 39 46.25 39 45.75 39.25 45.4 39.55 45.05 39.95 44.95 L44.5 43.75 46.95 39.65 Q47.2 39.25 47.6 39.1 48 38.95 48.4 39.1 L49.1 39.65"/>
  </g>
</svg>