<svg width="64" height="64" xmlns="http://www.w3.org/2000/svg" xmlns:xlink="http://www.w3.org/1999/xlink">
  <defs/>
  <g>
    <path stroke="none" fill="#EC2037" d="M64 47 L64 64 0 64 0 47 64 47 M0 17 L0 0 64 0 64 17 0 17"/>
    <path stroke="none" fill="#EEEEF7" d="M0 17 L64 17 64 47 0 47 0 17"/>
    <path stroke="none" fill="#FCC920" d="M44 32 L20 32 Q20 27.05 23.5 23.5 27.05 20 32 20 36.95 20 40.45 23.5 44 27.05 44 32"/>
    <path stroke="none" fill="#392D8C" d="M44 32 Q44 36.95 40.45 40.45 36.95 44 32 44 27.05 44 23.5 40.45 20 36.95 20 32 L44 32"/>
    <path stroke="none" fill="#EC2037" d="M33.1 28.25 Q33.1 28.95 33.5 29.55 33.9 30.1 34.5 30.1 L34.85 30.3 35 30.75 35 38.35 34.95 38.7 34.65 38.95 34.4 38.95 29.25 36.45 29.1 36.2 29 35.85 29 30.75 Q28.85 25.2 31.95 25 L34.45 25 34.8 25.2 34.95 25.65 34.85 26.1 34.5 26.25 Q33.9 26.35 33.5 26.8 33.1 27.45 33.1 28.25"/>
    <path stroke="none" fill="#EC2037" d="M38.95 28 L39 28 Q39.85 28 40.45 28.4 41 28.85 41 29.4 L41 34.55 Q41 35.15 40.45 35.55 L39 36 38.95 36 Q38.1 36 37.55 35.55 37 35.15 37 34.55 L37 29.4 Q37 28.85 37.55 28.4 38.1 28 38.95 28"/>
    <path stroke="none" fill="#EC2037" d="M24.95 28 L25 28 26.45 28.4 Q27 28.85 27 29.4 L27 34.55 Q27 35.15 26.45 35.55 25.85 36 25 36 L24.95 36 Q24.1 36 23.55 35.55 23 35.15 23 34.55 L23 29.4 Q23 28.85 23.55 28.4 24.1 28 24.95 28"/>
  </g>
</svg>