<svg width="64" height="64" xmlns="http://www.w3.org/2000/svg" xmlns:xlink="http://www.w3.org/1999/xlink">
  <defs/>
  <g>
    <path stroke="none" fill="#EC2037" d="M64 64 L0 0 64 0 64 64"/>
    <path stroke="none" fill="#25252A" d="M64 64 L0 64 0 0 64 64"/>
    <path stroke="none" fill="#EEEEF7" d="M17.65 32.05 Q17.05 33.2 16.2 33.2 15.4 33.2 14.8 32.05 L14.4 31 13.4 30.65 Q12.2 30.05 12.2 29.2 12.2 28.35 13.4 27.75 L14.45 27.4 14.8 26.35 Q15.4 25.2 16.2 25.2 17.05 25.2 17.65 26.35 L18 27.4 19.05 27.75 Q20.2 28.35 20.2 29.2 20.2 30.05 19.05 30.65 L18 31 17.65 32.05 M25.65 40.05 Q25.05 41.2 24.2 41.2 23.4 41.2 22.8 40.05 L22.4 39 21.4 38.65 Q20.2 38.05 20.2 37.2 20.2 36.35 21.4 35.75 L22.45 35.4 22.8 34.35 Q23.4 33.2 24.2 33.2 25.05 33.2 25.65 34.35 L26 35.4 27.05 35.75 Q28.2 36.35 28.2 37.2 28.2 38.05 27.05 38.65 L26 39 25.65 40.05 M20.3 46.15 Q19.85 47 19.2 47 18.6 47 18.15 46.15 L17.85 45.35 17.1 45.1 Q16.2 44.65 16.2 44 16.2 43.35 17.1 42.9 L17.9 42.65 18.15 41.85 Q18.6 41 19.2 41 19.85 41 20.3 41.85 L20.55 42.65 21.35 42.9 Q22.2 43.35 22.2 44 22.2 44.65 21.35 45.1 L20.55 45.35 20.3 46.15 M17.65 58.05 Q17.05 59.2 16.2 59.2 15.4 59.2 14.8 58.05 L14.4 57 13.4 56.65 Q12.2 56.05 12.2 55.2 12.2 54.35 13.4 53.75 L14.45 53.4 14.8 52.35 Q15.4 51.2 16.2 51.2 17.05 51.2 17.65 52.35 L18 53.4 19.05 53.75 Q20.2 54.35 20.2 55.2 20.2 56.05 19.05 56.65 L18 57 17.65 58.05 M9.65 40.05 Q9.05 41.2 8.2 41.2 7.4 41.2 6.8 40.05 L6.4 39 5.4 38.65 Q4.2 38.05 4.2 37.2 4.2 36.35 5.4 35.75 L6.45 35.4 6.8 34.35 Q7.4 33.2 8.2 33.2 9.05 33.2 9.65 34.35 L10 35.4 11.05 35.75 Q12.2 36.35 12.2 37.2 12.2 38.05 11.05 38.65 L10 39 9.65 40.05"/>
    <path stroke="none" fill="#FCC920" d="M40.5 28.6 L38.05 24.4 Q37.75 23.8 38 23.1 L38.65 20.45 36.55 16.9 Q36.25 16.3 36.45 15.6 L43.7 17.55 45.3 20.2 Q45.65 20.8 45.45 21.55 L43.7 28.15 Q43.5 28.85 42.9 29.2 L41.65 29.35 40.5 28.6"/>
    <path stroke="none" fill="#FCC920" d="M41.7 10.45 L43 10.55 46.65 12.65 49.15 11.95 50.5 12.05 54.65 14.55 Q55.25 14.9 55.5 15.65 L55.25 16.9 Q55 17.45 54.3 17.65 L47.7 19.45 46.3 19.3 43.65 17.7 41.7 10.45"/>
    <path stroke="none" fill="#FCC920" d="M41 18.85 Q40.55 19.3 40.1 19.3 L36.75 19.3 35.25 20.6 Q34.8 20.95 34.25 21 L30.4 20.95 Q29.85 20.95 29.4 20.6 29 20.25 29 19.75 29 19.3 29.4 18.9 L33.3 15.4 Q33.7 15 34.25 15 L36.8 15.05 41 18.85"/>
    <path stroke="none" fill="#FCC920" d="M47 5.4 L47 9.3 46.5 10.2 44.95 11.75 44.95 15.05 Q44.95 15.65 44.45 16 L40.05 11.75 40 9.3 Q40 8.75 40.45 8.3 L44.45 4.45 Q44.95 4 45.5 4 46.1 4 46.45 4.4 47 4.8 47 5.4"/>
    <path stroke="none" fill="#FCC920" d="M32.65 11.7 L32.2 11.1 30.8 11.1 Q30.4 11.1 30.1 10.8 29.8 10.5 29.8 10.1 29.8 9.7 30.1 9.4 30.4 9.1 30.8 9.1 L31.8 9.1 Q31.9 8.15 32.65 7.45 33.5 6.55 34.75 6.55 36 6.55 36.9 7.45 L42.9 13.45 Q43.75 14.3 43.75 15.55 43.75 16.8 42.9 17.7 42 18.55 40.75 18.55 39.5 18.55 38.65 17.7 L32.65 11.7"/>
    <path stroke="none" fill="#FCC920" d="M42.4 19.45 Q41.7 18.95 41.6 18.1 41.45 17.3 41.95 16.65 42.4 15.95 43.25 15.85 44.05 15.7 44.75 16.2 53.3 22.4 52.25 34.2 52.15 35 51.55 35.55 50.9 36.05 50.1 36 49.25 35.9 48.75 35.3 48.2 34.65 48.25 33.85 49.1 24.4 42.4 19.45"/>
  </g>
</svg>