<svg width="64" height="64" xmlns="http://www.w3.org/2000/svg" xmlns:xlink="http://www.w3.org/1999/xlink">
  <defs/>
  <g>
    <path stroke="none" fill="#3439CB" d="M5.65 0 L64 0 64 32 36 32 Q36 30.35 34.85 29.2 L5.65 0"/>
    <path stroke="none" fill="#EEEEF7" d="M5.65 0 L34.85 29.2 Q36 30.35 36 32 36 33.65 34.85 34.85 L5.65 64 0 64 0 0 5.65 0"/>
    <path stroke="none" fill="#EC2037" d="M64 32 L64 64 5.65 64 34.85 34.85 Q36 33.65 36 32 L64 32"/>
    <path stroke="none" fill="#C4863B" d="M12.9 37.65 Q12.1 40 11 40 9.9 40 9.1 37.65 L8.9 37 8.3 37.3 Q6.1 38.45 5.3 37.7 4.55 36.9 5.7 34.7 L6 34.1 5.35 33.9 Q3 33.1 3 32 3 30.9 5.35 30.1 L5.95 29.9 5.65 29.35 Q4.5 27.1 5.3 26.35 6.1 25.55 8.3 26.7 L8.9 27 9.1 26.35 Q9.9 24 11 24 12.1 24 12.9 26.35 L13.1 26.95 13.65 26.7 Q15.9 25.55 16.65 26.35 17.45 27.15 16.3 29.35 L16.05 29.9 16.7 30.1 Q19 30.9 19 32 19 33.1 16.7 33.9 L16 34.1 16.3 34.7 Q17.4 36.9 16.65 37.65 15.85 38.45 13.65 37.3 L13.1 37.05 12.9 37.65"/>
    <path stroke="none" fill="#C4863B" d="M28.45 34.85 Q27.85 36 27 36 26.2 36 25.6 34.85 L25.2 33.8 24.2 33.45 Q23 32.85 23 32 23 31.15 24.2 30.55 L25.25 30.2 25.6 29.15 Q26.2 28 27 28 27.85 28 28.45 29.15 L28.8 30.2 29.85 30.55 Q31 31.15 31 32 31 32.85 29.85 33.45 L28.8 33.8 28.45 34.85"/>
    <path stroke="none" fill="#C4863B" d="M8.45 13.85 Q7.85 15 7 15 6.2 15 5.6 13.85 L5.2 12.8 4.2 12.45 Q3 11.85 3 11 3 10.15 4.2 9.55 L5.25 9.2 5.6 8.15 Q6.2 7 7 7 7.85 7 8.45 8.15 L8.8 9.2 9.85 9.55 Q11 10.15 11 11 11 11.85 9.85 12.45 L8.8 12.8 8.45 13.85"/>
    <path stroke="none" fill="#C4863B" d="M8.45 55.85 Q7.85 57 7 57 6.2 57 5.6 55.85 L5.2 54.8 4.2 54.45 Q3 53.85 3 53 3 52.15 4.2 51.55 L5.25 51.2 5.6 50.15 Q6.2 49 7 49 7.85 49 8.45 50.15 L8.8 51.2 9.85 51.55 Q11 52.15 11 53 11 53.85 9.85 54.45 L8.8 54.8 8.45 55.85"/>
  </g>
</svg>