<svg width="64" height="64" xmlns="http://www.w3.org/2000/svg" xmlns:xlink="http://www.w3.org/1999/xlink">
  <defs/>
  <g>
    <path stroke="none" fill="#EEEEF7" d="M17 64 L0 64 0 0 17 0 17 64"/>
    <path stroke="none" fill="#259F6C" d="M17 64 L17 0 64 0 64 64 17 64"/>
    <path stroke="none" fill="#EEEEF7" d="M36.5 22.95 Q33.25 24.85 32.25 28.45 L32.3 28.5 Q31.25 32.05 33.1 35.25 34.95 38.45 38.55 39.45 42.15 40.35 45.4 38.45 L45.5 38.4 46.1 38.35 Q46.45 38.35 46.7 38.6 L47 39.2 46.8 39.85 Q45.3 41.95 42.9 43.35 38.65 45.85 33.75 44.6 29.05 43.3 26.6 39.05 24.15 34.8 25.4 29.95 26.85 25.15 31.1 22.65 33.5 21.25 36.05 21 L36.7 21.15 37.1 21.75 37.05 22.35 36.65 22.85 36.5 22.95"/>
    <path stroke="none" fill="#EEEEF7" d="M49 20.2 L51.2 22.4 54.15 22.35 Q54.45 22.3 54.7 22.5 L55 23 54.95 23.55 53.7 26.35 54.65 29.3 54.7 29.85 54.4 30.25 53.9 30.4 50.9 30 48.6 31.85 48.1 32 Q47.8 32 47.6 31.8 L47.3 31.3 46.75 28.25 44.35 26.4 Q44.05 26.3 44 26 43.95 25.7 44.05 25.45 44.1 25.15 44.4 25 L46.95 23.55 47.8 20.55 Q47.85 20.25 48.05 20.15 L48.55 20 49 20.2"/>
  </g>
</svg>