<svg width="64" height="64" xmlns="http://www.w3.org/2000/svg" xmlns:xlink="http://www.w3.org/1999/xlink">
  <defs/>
  <g>
    <path stroke="none" fill="#259F6C" d="M25 64 L0 64 0 0 25 0 25 64"/>
    <path stroke="none" fill="#EC2037" d="M25 64 L25 0 64 0 64 64 25 64"/>
    <path stroke="none" fill="#FCC920" d="M39 32 Q39 37.8 34.9 41.9 30.8 46 25 46 19.2 46 15.1 41.9 11 37.8 11 32 11 26.2 15.1 22.1 19.2 18 25 18 30.8 18 34.9 22.1 39 26.2 39 32"/>
    <path stroke="none" fill="#C4863B" d="M29.95 37.75 Q27.85 40 25 40 22.1 40 20.05 37.75 18 35.45 18 32.2 L18 27.55 Q18 26.9 18.4 26.45 18.75 26 19.4 26 L30.6 26 Q31.2 26 31.6 26.45 32 26.9 32 27.55 L32 32.2 Q32 35.45 29.95 37.75"/>
  </g>
</svg>