<svg width="64" height="64" xmlns="http://www.w3.org/2000/svg" xmlns:xlink="http://www.w3.org/1999/xlink">
  <defs/>
  <g>
    <path stroke="none" fill="#EC2037" d="M0 17 L0 0 64 0 64 17 0 17"/>
    <path stroke="none" fill="#EEEEF7" d="M0 17 L64 17 64 47 0 47 0 17"/>
    <path stroke="none" fill="#3439CB" d="M64 47 L64 64 0 64 0 47 64 47"/>
    <path stroke="none" fill="#C4863B" d="M32.95 21.05 L35.1 24.75 39.1 25.8 Q39.5 25.85 39.75 26.2 L40 27 39.75 27.6 37.05 31 37.35 35.2 37.2 36 36.55 36.4 Q36.15 36.6 35.85 36.4 L32 34.75 28.15 36.4 Q27.75 36.6 27.45 36.4 27.05 36.35 26.9 36 26.55 35.6 26.65 35.2 L26.95 31 24.25 27.6 24 27 Q24 26.5 24.25 26.2 24.5 25.85 24.9 25.8 L28.9 24.75 31.05 21.05 Q31.3 20.75 31.7 20.6 32 20.4 32.3 20.6 L32.95 21.05"/>
    <path stroke="none" fill="#259F6C" d="M46.95 37.65 L47.3 38.05 47.2 38.7 46.45 40 46.2 40.3 45.85 40.5 42.85 40.9 Q41.25 42.5 38.75 43 38.15 43.05 37.6 42.7 37.1 42.35 37 41.7 36.95 41.05 37.3 40.55 37.65 39.95 38.3 39.9 39.6 39.65 40.4 38.95 L39.8 36.65 39.9 36.1 40.6 34.7 40.9 34.45 41.3 34.35 41.7 34.45 42.15 34.75 41.35 33.3 Q41.15 33 41.25 32.7 L41.65 31.2 41.9 30.8 42.25 30.65 42.65 30.65 43.15 30.85 42.15 29.7 41.95 29.15 41.9 27.85 42 27.45 42.3 27.1 42.7 27 44.05 27.05 44.45 27.25 45.3 28.05 46.05 27.25 Q46.1 27.1 46.3 27.05 L46.55 27 47.9 27.05 48.4 27.25 48.55 27.85 48.6 29.2 48.5 29.5 48.35 29.8 47.05 31.1 47.15 31.85 48.45 32.35 Q48.75 32.4 48.9 32.65 L48.95 33.25 48.6 34.75 48.45 35.05 48.25 35.25 46.35 36.35 45.95 36.45 45.7 36.8 46.95 37.65"/>
    <path stroke="none" fill="#259F6C" d="M17.05 37.65 L18.3 36.8 18.05 36.45 17.65 36.35 15.75 35.25 15.55 35.05 15.4 34.75 15.05 33.25 15.1 32.65 Q15.25 32.4 15.55 32.35 L16.85 31.85 16.95 31.1 15.65 29.8 15.5 29.5 15.4 29.2 15.45 27.85 15.6 27.25 16.1 27.05 17.45 27 17.7 27.05 17.95 27.25 18.7 28.05 19.55 27.25 19.95 27.05 21.3 27 21.7 27.1 22 27.45 22.1 27.85 22.05 29.15 21.85 29.7 20.85 30.85 21.35 30.65 21.75 30.65 22.1 30.8 22.35 31.2 22.75 32.7 22.65 33.3 21.85 34.75 22.3 34.45 22.7 34.35 23.1 34.45 23.4 34.7 24.1 36.1 24.2 36.65 23.6 38.95 Q24.4 39.65 25.7 39.9 26.35 39.95 26.7 40.55 27.05 41.05 27 41.7 26.9 42.35 26.4 42.7 L25.25 43 Q22.75 42.5 21.15 40.9 L18.15 40.5 17.8 40.3 17.55 40 16.8 38.7 16.7 38.05 17.05 37.65"/>
  </g>
</svg>