<svg width="64" height="64" xmlns="http://www.w3.org/2000/svg" xmlns:xlink="http://www.w3.org/1999/xlink">
  <defs/>
  <g>
    <path stroke="none" fill="#EC2037" d="M0 21 L0 0 64 0 64 21 0 21"/>
    <path stroke="none" fill="#392D8C" d="M0 21 L64 21 64 43 0 43 0 21"/>
    <path stroke="none" fill="#EEEEF7" d="M64 43 L64 64 0 64 0 43 64 43"/>
    <path stroke="none" fill="#EC2037" d="M10.05 40.9 L10 26.25 Q10.05 25.3 10.75 24.7 11.35 24 12.4 24 L31.6 24 Q32.65 24 33.25 24.7 33.95 25.3 34 26.25 L34 40.3 Q34 45.2 28.7 48.65 25.7 50.55 22 51.4 L19.6 50.7 Q17.35 49.9 15.35 48.65 10.35 45.4 10.05 40.9"/>
    <path stroke="none" fill="#FCC920" d="M17 9 Q19.1 9 20.55 10.35 L20.55 10.3 20.75 10.5 23.25 10.5 23.5 10.3 23.5 10.35 Q24.95 9 27 9 29.05 9 30.5 10.3 L30.55 10.35 30.55 10.3 30.75 10.5 Q32 11.8 32 13.5 32 15.4 30.55 16.7 29.75 17.45 28.75 17.8 L28.7 17.8 28.7 19.5 Q28.7 20.15 28.25 20.6 27.75 21 27 21 L17 21 Q16.3 21 15.85 20.6 15.35 20.15 15.35 19.5 L15.35 17.8 Q14.3 17.45 13.5 16.7 12 15.4 12 13.5 12 11.8 13.25 10.5 L13.5 10.3 13.5 10.35 13.55 10.3 Q15 9 17 9"/>
    <path stroke="none" fill="#FCC920" d="M24 7 Q24 7.8 23.4 8.4 22.8 9 22 9 21.2 9 20.6 8.4 20 7.8 20 7 20 6.2 20.6 5.6 21.2 5 22 5 22.8 5 23.4 5.6 24 6.2 24 7"/>
  </g>
</svg>