<svg width="64" height="64" xmlns="http://www.w3.org/2000/svg" xmlns:xlink="http://www.w3.org/1999/xlink">
  <defs/>
  <g>
    <path stroke="none" fill="#FCC920" d="M64 32 L64 48 0 48 0 32 64 32"/>
    <path stroke="none" fill="#5193EE" d="M64 32 L0 32 0 0 64 0 64 32"/>
    <path stroke="none" fill="#259F6C" d="M64 48 L64 64 0 64 0 48 64 48"/>
    <path stroke="none" fill="#FCC920" d="M50.4 23.05 Q49.4 26 48 26 46.65 26 45.65 23.05 L45.4 22.25 44.65 22.65 Q41.9 24.05 40.9 23.1 39.95 22.1 41.35 19.35 L41.75 18.6 40.95 18.35 Q38 17.4 38 16 38 14.6 40.95 13.65 L41.7 13.4 41.3 12.7 Q39.9 9.9 40.9 8.95 41.9 7.95 44.65 9.35 L45.4 9.75 45.65 8.95 Q46.65 6 48 6 49.4 6 50.4 8.95 L50.65 9.7 51.3 9.35 Q54.1 7.95 55.05 8.95 56.05 9.95 54.65 12.7 L54.3 13.4 55.1 13.65 Q58 14.6 58 16 58 17.4 55.1 18.35 L54.25 18.6 54.65 19.35 Q56 22.1 55.05 23.05 54.05 24.05 51.3 22.65 L50.6 22.3 50.4 23.05"/>
  </g>
</svg>