<svg width="64" height="64" xmlns="http://www.w3.org/2000/svg" xmlns:xlink="http://www.w3.org/1999/xlink">
  <defs/>
  <g>
    <path stroke="none" fill="#259F6C" d="M64 64 L0 64 0 0 64 0 64 64"/>
    <path stroke="none" fill="#FFFFFF" d="M51.8 43.15 Q53 44.35 53 46 53 47.65 51.85 48.8 L51.8 48.85 Q50.65 50 49 50 47.35 50 46.15 48.8 L45.55 48 43.9 48 44 49 Q44 50.65 42.85 51.8 L42.8 51.85 Q41.65 53 40 53 38.35 53 37.15 51.8 36 50.65 36 49 L36.15 48 19.95 48 Q12.9 47.55 11.1 43.45 L11.05 42.8 Q11.1 42.45 11.4 42.25 11.65 42 12 42 L36.15 42 36 41 Q36 39.35 37.15 38.2 L37.2 38.15 Q38.35 37 40 37 41.65 37 42.8 38.15 44 39.35 44 41 L43.9 42 49.1 42 50.3 42.2 50.35 42.2 Q51.15 42.5 51.8 43.15"/>
    <path stroke="none" fill="#FFFFFF" d="M48.95 12 L50 12 Q52 12 52 14 L52 32 Q52 34 50 34 L48.95 34 Q47 33.95 47 32 L47 14 Q47 12.05 48.95 12 M41.95 18 Q40 17.95 40 16 L40 14 Q40 12.05 41.95 12 L43 12 Q45 12 45 14 L45 16 Q45 18 43 18 L41.95 18 M34.95 12 L36 12 Q38 12 38 14 L38 24 Q38 26 36 26 L34.95 26 Q33 25.95 33 24 L33 14 Q33 12.05 34.95 12 M41.95 34 Q40 33.95 40 32 L40 22 Q40 20.05 41.95 20 L43 20 Q45 20 45 22 L45 32 Q45 34 43 34 L41.95 34 M34.95 28 L36 28 Q38 28 38 30 L38 32 Q38 34 36 34 L34.95 34 Q33 33.95 33 32 L33 30 Q33 28.05 34.95 28 M27.95 12 L29 12 Q31 12 31 14 L31 32 Q31 34 29 34 L27.95 34 Q26 33.95 26 32 L26 14 Q26 12.05 27.95 12 M20.95 18 Q19 17.95 19 16 L19 14 Q19 12.05 20.95 12 L22 12 Q24 12 24 14 L24 16 Q24 18 22 18 L20.95 18 M13.95 12 L15 12 Q17 12 17 14 L17 24 Q17 26 15 26 L13.95 26 Q12 25.95 12 24 L12 14 Q12 12.05 13.95 12 M20.95 34 Q19 33.95 19 32 L19 22 Q19 20.05 20.95 20 L22 20 Q24 20 24 22 L24 32 Q24 34 22 34 L20.95 34 M13.95 28 L15 28 Q17 28 17 30 L17 32 Q17 34 15 34 L13.95 34 Q12 33.95 12 32 L12 30 Q12 28.05 13.95 28"/>
  </g>
</svg>