<svg width="64" height="64" xmlns="http://www.w3.org/2000/svg" xmlns:xlink="http://www.w3.org/1999/xlink">
  <defs/>
  <g>
    <path stroke="none" fill="#FCC920" d="M56 0 L64 0 64 8 8 64 0 64 0 56 56 0"/>
    <path stroke="none" fill="#259F6C" d="M8 64 L64 8 64 64 8 64"/>
    <path stroke="none" fill="#3439CB" d="M56 0 L0 56 0 0 56 0"/>
    <path stroke="none" fill="#EEEEF7" d="M24.45 11.85 Q23.85 13 23 13 22.2 13 21.6 11.85 L21.2 10.8 20.2 10.45 Q19 9.85 19 9 19 8.15 20.2 7.55 L21.25 7.2 21.6 6.15 Q22.2 5 23 5 23.85 5 24.45 6.15 L24.8 7.2 25.85 7.55 Q27 8.15 27 9 27 9.85 25.85 10.45 L24.8 10.8 24.45 11.85 M10.45 11.85 Q9.85 13 9 13 8.2 13 7.6 11.85 L7.2 10.8 6.2 10.45 Q5 9.85 5 9 5 8.15 6.2 7.55 L7.25 7.2 7.6 6.15 Q8.2 5 9 5 9.85 5 10.45 6.15 L10.8 7.2 11.85 7.55 Q13 8.15 13 9 13 9.85 11.85 10.45 L10.8 10.8 10.45 11.85 M10.45 25.85 Q9.85 27 9 27 8.2 27 7.6 25.85 L7.2 24.8 6.2 24.45 Q5 23.85 5 23 5 22.15 6.2 21.55 L7.25 21.2 7.6 20.15 Q8.2 19 9 19 9.85 19 10.45 20.15 L10.8 21.2 11.85 21.55 Q13 22.15 13 23 13 23.85 11.85 24.45 L10.8 24.8 10.45 25.85 M17.45 18.85 Q16.85 20 16 20 15.2 20 14.6 18.85 L14.2 17.8 13.2 17.45 Q12 16.85 12 16 12 15.15 13.2 14.55 L14.25 14.2 14.6 13.15 Q15.2 12 16 12 16.85 12 17.45 13.15 L17.8 14.2 18.85 14.55 Q20 15.15 20 16 20 16.85 18.85 17.45 L17.8 17.8 17.45 18.85 M24.45 25.85 Q23.85 27 23 27 22.2 27 21.6 25.85 L21.2 24.8 20.2 24.45 Q19 23.85 19 23 19 22.15 20.2 21.55 L21.25 21.2 21.6 20.15 Q22.2 19 23 19 23.85 19 24.45 20.15 L24.8 21.2 25.85 21.55 Q27 22.15 27 23 27 23.85 25.85 24.45 L24.8 24.8 24.45 25.85"/>
  </g>
</svg>