<svg width="64" height="64" xmlns="http://www.w3.org/2000/svg" xmlns:xlink="http://www.w3.org/1999/xlink">
  <defs/>
  <g>
    <path stroke="none" fill="#EC2037" d="M0 32 L0 0 64 0 64 32 0 32"/>
    <path stroke="none" fill="#EEEEF7" d="M0 32 L64 32 64 64 0 64 0 32"/>
    <path stroke="none" fill="#EEEEF7" d="M19.05 9.25 Q16.1 9.25 14 11.25 L14 11.3 Q11.95 13.25 11.95 16 11.95 18.8 14 20.75 16.1 22.75 19.05 22.75 L19.2 22.75 19.65 22.95 19.95 23.35 19.9 23.85 19.5 24.2 Q17.65 25 15.5 25 11.6 25 8.75 22.35 6 19.7 6 16 6 12.3 8.75 9.65 11.6 7 15.5 7 17.65 7 19.55 7.85 L19.95 8.15 19.95 8.7 19.7 9.1 19.25 9.25 19.05 9.25"/>
    <path stroke="none" fill="#EEEEF7" d="M35.1 22.15 Q34.65 23 34 23 33.4 23 32.95 22.15 L32.65 21.35 31.9 21.1 Q31 20.65 31 20 31 19.35 31.9 18.9 L32.7 18.65 32.95 17.85 Q33.4 17 34 17 34.65 17 35.1 17.85 L35.35 18.65 36.15 18.9 Q37 19.35 37 20 37 20.65 36.15 21.1 L35.35 21.35 35.1 22.15"/>
    <path stroke="none" fill="#EEEEF7" d="M27.1 22.15 Q26.65 23 26 23 25.4 23 24.95 22.15 L24.65 21.35 23.9 21.1 Q23 20.65 23 20 23 19.35 23.9 18.9 L24.7 18.65 24.95 17.85 Q25.4 17 26 17 26.65 17 27.1 17.85 L27.35 18.65 28.15 18.9 Q29 19.35 29 20 29 20.65 28.15 21.1 L27.35 21.35 27.1 22.15"/>
    <path stroke="none" fill="#EEEEF7" d="M35.1 14.15 Q34.65 15 34 15 33.4 15 32.95 14.15 L32.65 13.35 31.9 13.1 Q31 12.65 31 12 31 11.35 31.9 10.9 L32.7 10.65 32.95 9.85 Q33.4 9 34 9 34.65 9 35.1 9.85 L35.35 10.65 36.15 10.9 Q37 11.35 37 12 37 12.65 36.15 13.1 L35.35 13.35 35.1 14.15"/>
    <path stroke="none" fill="#EEEEF7" d="M27.1 14.15 Q26.65 15 26 15 25.4 15 24.95 14.15 L24.65 13.35 23.9 13.1 Q23 12.65 23 12 23 11.35 23.9 10.9 L24.7 10.65 24.95 9.85 Q25.4 9 26 9 26.65 9 27.1 9.85 L27.35 10.65 28.15 10.9 Q29 11.35 29 12 29 12.65 28.15 13.1 L27.35 13.35 27.1 14.15"/>
  </g>
</svg>