<svg width="64" height="64" xmlns="http://www.w3.org/2000/svg" xmlns:xlink="http://www.w3.org/1999/xlink">
  <defs/>
  <g>
    <path stroke="none" fill="#EEEEF7" d="M0 21 L0 0 64 0 64 21 0 21"/>
    <path stroke="none" fill="#EC2037" d="M64 43 L64 64 0 64 0 43 64 43"/>
    <path stroke="none" fill="#392D8C" d="M64 43 L0 43 0 21 64 21 64 43"/>
    <path stroke="none" fill="#EC2037" d="M29 11 L31.5 11 Q32.1 11 32.55 11.45 33 11.9 33 12.5 L33 21.2 Q33 26.1 29.55 29.6 L29.45 29.7 Q25.9 33 21 33 16.1 33 12.6 29.65 L12.55 29.6 Q9 26.1 9 21.2 L9 12.5 Q9 11.9 9.5 11.45 9.9 11 10.55 11 L13 11 13 21.2 Q13 24.45 15.35 26.75 17.7 29 21 29 24.3 29 26.7 26.75 29 24.45 29 21.2 L29 11"/>
    <path stroke="none" fill="#392D8C" d="M29 11 L29 21.2 Q29 24.45 26.7 26.75 24.3 29 21 29 17.7 29 15.35 26.75 13 24.45 13 21.2 L13 11 29 11"/>
    <path stroke="none" fill="#EEEEF7" d="M15.35 23.9 Q15.7 23.35 16.35 23.1 17 22.9 17.65 23.1 L18.5 23.65 19.2 22.15 Q19.55 21.45 20.3 21.15 21 20.85 21.75 21.15 22.45 21.4 22.8 22.1 L23.55 23.6 24.35 23.1 Q25 22.9 25.65 23.1 26.3 23.3 26.7 23.9 L27.75 25.5 26.7 26.75 Q24.3 29 21 29 17.7 29 15.35 26.75 L14.3 25.5 15.35 23.9"/>
    <path stroke="none" fill="#FCC920" d="M22.1 18.1 Q21.65 19 21 19 20.4 19 19.95 18.1 L19.65 17.35 18.9 17.05 Q18 16.6 18 16 18 15.35 18.9 14.9 L19.7 14.65 19.95 13.85 Q20.4 13 21 13 21.65 13 22.1 13.85 L22.35 14.65 23.15 14.9 Q24 15.35 24 16 24 16.6 23.15 17.05 L22.35 17.35 22.1 18.1"/>
  </g>
</svg>