<svg width="64" height="64" xmlns="http://www.w3.org/2000/svg" xmlns:xlink="http://www.w3.org/1999/xlink">
  <defs/>
  <g>
    <path stroke="none" fill="#EEEEF7" d="M0 21 L0 0 64 0 64 21 0 21"/>
    <path stroke="none" fill="#EC2037" d="M64 43 L64 64 0 64 0 43 64 43"/>
    <path stroke="none" fill="#392D8C" d="M64 43 L0 43 0 21 64 21 64 43"/>
    <path stroke="none" fill="#EEEEF7" d="M9 19.5 Q9 18.9 9.5 18.45 9.9 18 10.5 18 L32.55 18 Q33.1 18 33.55 18.45 34 18.9 34 19.5 L34 33.2 Q34 38.1 30.55 41.6 L30.45 41.7 Q26.9 45 22 45 L21 45 20 45 Q15.75 44.65 12.6 41.65 L12.55 41.6 11.95 40.95 Q9 37.65 9 33.2 L9 19.5 M13 33.2 Q13 36.45 15.35 38.75 17.35 40.65 20 40.95 L21 40.95 22 41 Q25.3 41 27.7 38.75 30 36.45 30 33.2 L30 22 13 22 13 33.2"/>
    <path stroke="none" fill="#EC2037" d="M13 33.2 L13 22 30 22 30 33.2 Q30 36.45 27.7 38.75 25.3 41 22 41 L21 40.95 20 40.95 Q17.35 40.65 15.35 38.75 13 36.45 13 33.2"/>
    <path stroke="none" fill="#EEEEF7" d="M20.05 24 L23.05 24 23.05 27 26.05 27 26.05 30 23.05 30 23.05 32 28.05 32 28.05 35 23.05 35 23.05 39 20.05 39 20.05 35 15 35 15 32 20.05 32 20.05 30 17.05 30 17.05 27 20.05 27 20.05 24"/>
  </g>
</svg>