<svg width="64" height="64" xmlns="http://www.w3.org/2000/svg" xmlns:xlink="http://www.w3.org/1999/xlink">
  <defs/>
  <g>
    <path stroke="none" fill="#EEEEF7" d="M0 32 L0 0 64 0 64 32 0 32"/>
    <path stroke="none" fill="#5193EE" d="M0 32 L64 32 64 64 0 64 0 32"/>
    <path stroke="none" fill="#259F6C" d="M53.05 39.2 L53.5 39.7 Q53.8 40.05 53.6 40.5 L53.25 42.55 53.05 42.85 52.75 43.15 49.05 44.8 Q47.7 47.45 44.85 48.9 L43.3 48.8 Q42.55 48.45 42.2 47.7 41.9 46.8 42.05 46.1 42.4 45.2 43.05 44.9 44.6 44.25 45.35 42.95 L43.9 40.2 Q43.6 39.8 43.65 39.45 L44.1 37.45 44.4 36.95 Q44.65 36.7 44.85 36.65 L45.25 36.75 46 36.85 44.55 35.35 Q44.1 35 44.15 34.55 L44.15 32.45 Q44.1 32.15 44.3 31.9 L44.65 31.6 Q44.85 31.35 45.15 31.35 L45.85 31.45 44.2 30.35 43.7 29.7 43.25 27.9 Q43.05 27.6 43.25 27.3 L43.45 26.8 43.95 26.6 45.6 26.3 46.25 26.4 47.5 27.05 48.1 25.9 48.4 25.55 48.75 25.35 50.35 25.05 51.1 25.15 51.55 25.8 52 27.6 52.05 28 51.95 28.45 50.85 30.55 51.15 31.6 52.95 31.65 Q53.45 31.75 53.65 32 L54 32.75 54 35 54 35.35 53.7 35.7 51.75 37.75 51.3 37.9 51.15 38.65 53.05 39.2"/>
    <path stroke="none" fill="#259F6C" d="M10.95 39.2 L12.85 38.65 12.7 37.9 12.25 37.75 10.3 35.7 10 35.35 10 35 10 32.75 Q9.95 32.5 10.35 32 10.55 31.75 11.05 31.65 L12.85 31.6 13.15 30.55 12.05 28.45 11.95 28 Q11.9 27.85 12 27.6 L12.45 25.8 Q12.6 25.4 12.9 25.15 L13.65 25.05 15.25 25.35 15.6 25.55 15.9 25.9 16.5 27.05 Q17.15 26.75 17.75 26.4 L18.4 26.3 20.05 26.6 20.55 26.8 20.75 27.3 Q20.95 27.6 20.75 27.9 L20.3 29.7 19.8 30.35 18.15 31.45 18.85 31.35 19.35 31.6 19.7 31.9 19.85 32.45 19.85 34.55 Q19.9 35 19.45 35.35 L18 36.85 18.75 36.75 19.15 36.65 19.6 36.95 19.9 37.45 20.35 39.45 20.1 40.2 18.65 42.95 Q19.4 44.25 20.95 44.9 21.6 45.2 21.95 46.1 L21.8 47.7 Q21.45 48.45 20.7 48.8 L19.15 48.9 Q16.3 47.45 14.95 44.8 L11.25 43.15 10.95 42.85 10.75 42.55 10.4 40.5 Q10.2 40.05 10.5 39.7 L10.95 39.2"/>
    <path stroke="none" fill="#C4863B" d="M34 11 Q34 11.8 33.4 12.4 32.8 13 32 13 31.2 13 30.6 12.4 30 11.8 30 11 30 10.2 30.6 9.6 31.2 9 32 9 32.8 9 33.4 9.6 34 10.2 34 11 M27 13 Q29.1 13 30.55 14.35 L30.55 14.3 30.75 14.5 33.25 14.5 33.5 14.3 33.5 14.35 Q34.95 13 37 13 39.05 13 40.5 14.3 L40.55 14.35 40.55 14.3 40.75 14.5 Q42 15.8 42 17.5 42 19.4 40.55 20.7 L38.75 21.8 38.7 21.8 38.7 23.5 Q38.7 24.15 38.25 24.6 37.75 25 37 25 L27 25 Q26.3 25 25.85 24.6 25.35 24.15 25.35 23.5 L25.35 21.8 Q24.3 21.45 23.5 20.7 22 19.4 22 17.5 22 15.8 23.25 14.5 L23.5 14.3 23.5 14.35 23.55 14.3 Q25 13 27 13"/>
    <path stroke="none" fill="#C4863B" d="M41 31.4 Q41 38.7 38.35 43.85 35.75 49 32 49 28.25 49 25.65 43.85 23 38.7 23 31.4 23 29.55 25.65 28.3 28.25 27 32 27 35.75 27 38.35 28.3 41 29.55 41 31.4"/>
  </g>
</svg>