<svg width="64" height="64" xmlns="http://www.w3.org/2000/svg" xmlns:xlink="http://www.w3.org/1999/xlink">
  <defs/>
  <g>
    <path stroke="none" fill="#5193EE" d="M0 64 L0 0 64 0 64 64 0 64"/>
    <path stroke="none" fill="#EEEEF7" d="M33.65 18.95 L37.45 25.45 44.5 27.25 Q45.2 27.35 45.65 27.95 46 28.5 46 29.3 46 30 45.55 30.5 L40.85 36.3 41.35 43.8 41.1 45.15 Q40.65 45.75 40.05 45.9 L38.75 45.85 32 43 25.25 45.85 24.05 45.9 Q23.35 45.75 23 45.15 22.55 44.5 22.65 43.8 L23.15 36.3 18.5 30.5 Q18 30 18 29.3 18 28.5 18.45 27.95 18.85 27.35 19.5 27.25 L26.55 25.45 30.4 18.95 Q30.75 18.35 31.4 18.15 32 17.9 32.6 18.15 33.3 18.35 33.65 18.95"/>
  </g>
</svg>