<svg width="64" height="64" xmlns="http://www.w3.org/2000/svg" xmlns:xlink="http://www.w3.org/1999/xlink">
  <defs/>
  <g>
    <path stroke="none" fill="#25252A" d="M0 0 L64 0 64 64 0 64 0 0"/>
    <path stroke="none" fill="#EEEEF7" d="M43.2 37 Q44.3 35.55 43.9 33.55 43.5 31.4 41.8 29.95 40.05 28.45 38 28.45 36 28.35 34.85 29.8 33.75 31.25 34.15 33.35 34.55 35.4 36.3 36.95 38 38.4 40.05 38.45 42.05 38.5 43.2 37 M48.6 33.85 Q48.35 38.25 44.35 41.45 41.45 43.65 40.5 47.3 39.85 49.8 36.45 50.3 L32.1 50.55 32 50.55 31.9 50.55 27.55 50.3 Q24.15 49.8 23.5 47.3 22.55 43.65 19.65 41.45 15.65 38.25 15.4 33.85 L15.4 33.35 Q15.3 25.5 19.8 19.75 24.7 13.45 32 13.45 39.3 13.45 44.2 19.75 48.7 25.5 48.6 33.35 L48.6 33.85 M34 40.9 Q34 39.1 33.4 37.7 32.85 36.45 32 36.45 31.15 36.45 30.6 37.7 30 39.1 30 40.9 L30 41 Q30.05 41.6 30.6 41.95 31.15 42.45 32 42.45 32.85 42.45 33.4 41.95 L34 41 34 40.9 M20.8 37 Q21.95 38.5 23.95 38.45 26 38.4 27.7 36.95 29.45 35.4 29.85 33.35 30.25 31.25 29.15 29.8 28 28.35 26 28.45 23.95 28.45 22.2 29.95 20.5 31.4 20.1 33.55 19.7 35.55 20.8 37"/>
  </g>
</svg>