<svg width="64" height="64" xmlns="http://www.w3.org/2000/svg" xmlns:xlink="http://www.w3.org/1999/xlink">
  <defs/>
  <g>
    <path stroke="none" fill="#EEEEF7" d="M0 0 L64 0 64 64 0 64 0 0"/>
    <path stroke="none" fill="#EC2037" d="M45.45 22.85 L36.3 32 45.45 41.15 Q46.05 41.75 46.05 42.6 46.05 43.4 45.45 44 L44 45.45 Q43.4 46.05 42.6 46.05 41.75 46.05 41.15 45.45 L32 36.3 22.85 45.45 Q22.25 46.05 21.45 46.05 20.6 46.05 20 45.45 L18.55 44 Q17.95 43.4 18 42.6 17.95 41.75 18.55 41.15 L27.7 32 18.55 22.85 Q17.95 22.25 18 21.45 17.95 20.6 18.55 20 L20 18.55 Q20.6 17.95 21.45 18 22.25 17.95 22.85 18.55 L32 27.7 41.15 18.55 Q41.75 17.95 42.6 18 43.4 17.95 44 18.55 L45.45 20 Q46.05 20.6 46.05 21.45 46.05 22.25 45.45 22.85"/>
  </g>
</svg>