<svg width="64" height="64" xmlns="http://www.w3.org/2000/svg" xmlns:xlink="http://www.w3.org/1999/xlink">
  <defs/>
  <g>
    <path stroke="none" fill="#259F6C" d="M64 54 L64 64 0 64 0 54 64 54 M0 10 L0 0 64 0 64 10 0 10"/>
    <path stroke="none" fill="#EEEEF7" d="M0 10 L64 10 64 16 0 16 0 10 M0 48 L64 48 64 54 0 54 0 48"/>
    <path stroke="none" fill="#EC2037" d="M0 48 L0 16 64 16 64 48 0 48"/>
    <path stroke="none" fill="#FCC920" d="M33.2 22.7 L35.9 27.3 40.95 28.6 Q41.45 28.7 41.75 29.1 L42 30.05 41.7 30.95 38.3 35.05 38.7 40.45 38.5 41.4 37.75 41.95 36.8 41.9 32 39.85 27.2 41.9 26.3 41.95 25.55 41.4 Q25.25 40.95 25.3 40.45 L25.7 35.05 22.35 30.95 Q22 30.55 22 30.05 22 29.5 22.3 29.1 22.6 28.7 23.05 28.6 L28.1 27.3 30.85 22.7 Q31.1 22.25 31.55 22.1 32 21.95 32.45 22.1 L33.2 22.7"/>
  </g>
</svg>