<svg width="64" height="64" xmlns="http://www.w3.org/2000/svg" xmlns:xlink="http://www.w3.org/1999/xlink">
  <defs/>
  <g>
    <path stroke="none" fill="#EEEEF7" d="M64 41 L64 47 0 47 0 41 64 41 M0 23 L0 17 64 17 64 23 0 23"/>
    <path stroke="none" fill="#25252A" d="M0 17 L0 0 64 0 64 17 0 17"/>
    <path stroke="none" fill="#EC2037" d="M64 23 L64 41 0 41 0 23 64 23"/>
    <path stroke="none" fill="#259F6C" d="M64 47 L64 64 0 64 0 47 64 47"/>
    <path stroke="none" fill="#5193EE" d="M34.85 34.85 L5.65 64 0 64 0 0 5.65 0 34.85 29.2 Q36 30.35 36 32 36 33.65 34.85 34.85"/>
    <path stroke="none" fill="#FCC920" d="M15.95 24.55 L18.15 28.25 22.15 29.3 22.8 29.7 23 30.45 22.75 31.15 20.05 34.45 20.35 38.75 20.2 39.55 19.6 39.95 18.85 39.95 15 38.3 11.15 39.95 10.45 39.95 9.85 39.55 Q9.6 39.15 9.65 38.75 L9.95 34.45 7.3 31.15 Q7 30.85 7 30.45 7 30 7.25 29.7 7.5 29.35 7.85 29.3 L11.9 28.25 14.1 24.55 Q14.3 24.2 14.65 24.1 15 23.95 15.35 24.1 15.75 24.2 15.95 24.55"/>
  </g>
</svg>