<svg width="64" height="64" xmlns="http://www.w3.org/2000/svg" xmlns:xlink="http://www.w3.org/1999/xlink">
  <defs/>
  <g>
    <path stroke="none" fill="#259F6C" d="M64 43 L64 64 0 64 0 43 64 43 M0 21 L0 0 64 0 64 21 0 21"/>
    <path stroke="none" fill="#FCC920" d="M0 21 L64 21 64 43 0 43 0 21"/>
    <path stroke="none" fill="#EC2037" d="M22.85 35.55 L0 64 0 0 22.85 28.5 Q24 29.95 24 32 24 34.1 22.85 35.55"/>
    <path stroke="none" fill="#25252A" d="M33.85 25.5 L35.75 28.7 39.25 29.6 Q39.6 29.7 39.8 29.95 L40 30.65 39.8 31.25 37.4 34.15 37.7 37.9 37.55 38.6 37 38.95 36.35 38.95 33 37.5 29.65 38.95 29 38.95 28.5 38.6 28.3 37.9 28.6 34.15 26.25 31.25 26 30.65 26.2 29.95 26.75 29.6 30.25 28.7 32.2 25.5 32.7 25.05 33.3 25.05 33.85 25.5"/>
    <path stroke="none" fill="#25252A" d="M51.85 25.5 L53.75 28.7 57.25 29.6 Q57.6 29.7 57.8 29.95 L58 30.65 57.8 31.25 55.4 34.15 55.7 37.9 55.55 38.6 55 38.95 54.35 38.95 51 37.5 47.65 38.95 47 38.95 46.5 38.6 46.3 37.9 46.6 34.15 44.25 31.25 44 30.65 44.2 29.95 Q44.4 29.7 44.75 29.6 L48.25 28.7 50.2 25.5 50.7 25.05 51.3 25.05 51.85 25.5"/>
  </g>
</svg>