<svg width="64" height="64" xmlns="http://www.w3.org/2000/svg" xmlns:xlink="http://www.w3.org/1999/xlink">
  <defs/>
  <g>
    <path stroke="none" fill="#392D8C" d="M64 47 L64 64 0 64 0 47 64 47 M0 17 L0 0 64 0 64 17 0 17"/>
    <path stroke="none" fill="#EEEEF7" d="M0 17 L64 17 64 47 0 47 0 17"/>
    <path stroke="none" fill="#C4863B" d="M43 32 Q43 36.5 39.75 39.75 36.55 43 32 43 27.45 43 24.2 39.75 21 36.5 21 32 21 27.45 24.2 24.2 27.45 21 32 21 36.55 21 39.75 24.2 43 27.45 43 32"/>
    <path stroke="none" fill="#EEEEF7" d="M37.25 37 L26.7 37 Q26.05 37 25.6 36.6 25.1 36.2 25 35.6 24.9 34.95 25.25 34.45 L30.45 25.85 Q30.75 25.3 31.4 25.15 31.95 24.9 32.55 25.15 L33.45 25.85 38.75 34.45 Q39.1 34.95 39 35.6 38.9 36.2 38.4 36.6 37.9 37 37.25 37"/>
  </g>
</svg>