<svg width="64" height="64" xmlns="http://www.w3.org/2000/svg" xmlns:xlink="http://www.w3.org/1999/xlink">
  <defs/>
  <g>
    <path stroke="none" fill="#EC2037" d="M0 32 L0 0 64 0 64 32 0 32"/>
    <path stroke="none" fill="#392D8C" d="M0 32 L64 32 64 64 0 64 0 32"/>
    <path stroke="none" fill="#EEEEF7" d="M34.85 34.85 L5.65 64 0 64 0 0 5.65 0 34.85 29.2 Q36 30.35 36 32 36 33.65 34.85 34.85"/>
    <path stroke="none" fill="#FCC920" d="M21 25 Q21 27.5 19.25 29.25 17.5 31 15 31 12.5 31 10.75 29.25 9 27.5 9 25 9 22.5 10.75 20.75 12.5 19 15 19 17.5 19 19.25 20.75 21 22.5 21 25"/>
    <path stroke="none" fill="#EC2037" d="M20.65 24 Q21.65 24 22.35 24.7 23 25.35 23 26.35 L23 32.1 Q23 33.55 22.55 34.85 21.95 36.4 20.7 37.7 L20.7 37.75 20.65 37.75 20.55 37.85 Q19.35 39 17.85 39.55 L15 40 12.2 39.55 12.15 39.5 Q10.65 38.95 9.4 37.75 8.1 36.45 7.5 34.85 7 33.55 7 32.1 L7 26.35 Q7 25.4 7.65 24.75 L7.75 24.65 Q8.4 24 9.35 24 L20.65 24 M11 32.1 L11.25 33.45 Q11.55 34.25 12.2 34.9 L12.25 34.95 13.55 35.75 13.75 35.85 15 36 16.6 35.75 16.5 35.8 17.8 34.95 17.75 35.05 17.85 34.95 18.85 33.4 19 32.1 19 28 11 28 11 32.1"/>
    <path stroke="none" fill="#5193EE" d="M11 32.1 L11 28 19 28 19 32.1 18.85 33.4 17.85 34.95 17.75 35.05 17.8 34.95 16.5 35.8 16.6 35.75 15 36 13.75 35.85 13.55 35.75 12.25 34.95 12.2 34.9 Q11.55 34.25 11.25 33.45 L11 32.1"/>
    <path stroke="none" fill="#FCC920" d="M24.65 41.2 Q20.65 45 15 45 9.25 45 5.25 41.15 L5.25 41.2 3.35 39 Q2.9 38.3 3.05 37.55 3.2 36.75 3.9 36.35 4.65 35.9 5.45 36.05 6.3 36.2 6.8 36.85 7.35 37.75 8.2 38.45 11.05 41.15 15 41.15 18.95 41.15 21.8 38.45 L21.85 38.4 23.25 36.85 Q23.7 36.2 24.5 36.05 25.35 35.9 26.05 36.35 26.8 36.75 26.95 37.55 27.1 38.3 26.7 39 L24.7 41.15 24.65 41.2"/>
  </g>
</svg>