<svg width="64" height="64" xmlns="http://www.w3.org/2000/svg" xmlns:xlink="http://www.w3.org/1999/xlink">
  <defs/>
  <g>
    <path stroke="none" fill="#259F6C" d="M0 21 L0 0 64 0 64 21 0 21"/>
    <path stroke="none" fill="#EEEEF7" d="M0 21 L64 21 64 43 0 43 0 21"/>
    <path stroke="none" fill="#25252A" d="M64 43 L64 64 0 64 0 43 64 43"/>
    <path stroke="none" fill="#EC2037" d="M32.85 25.5 L34.7 28.7 38.25 29.65 Q38.6 29.7 38.85 30 L39 30.65 38.8 31.25 36.4 34.15 36.7 37.9 36.55 38.55 36.05 38.95 35.35 38.9 32 37.5 28.65 38.9 28 38.95 27.5 38.55 27.3 37.9 27.6 34.15 25.25 31.25 25 30.65 25.2 30 25.75 29.65 29.3 28.7 31.2 25.5 31.7 25.1 Q32 24.95 32.3 25.1 L32.85 25.5"/>
    <path stroke="none" fill="#EC2037" d="M52.85 25.5 L54.7 28.7 58.25 29.65 58.85 30 59 30.65 58.8 31.25 56.4 34.15 56.7 37.9 56.55 38.55 56.05 38.95 55.35 38.9 52 37.5 48.65 38.9 48 38.95 47.5 38.55 47.3 37.9 47.6 34.15 45.25 31.25 45 30.65 45.2 30 Q45.45 29.7 45.75 29.65 L49.3 28.7 51.2 25.5 51.7 25.1 Q52 24.95 52.3 25.1 L52.85 25.5"/>
    <path stroke="none" fill="#EC2037" d="M12.85 25.5 L14.7 28.7 18.25 29.65 Q18.6 29.7 18.85 30 L19 30.65 18.8 31.25 16.4 34.15 16.7 37.9 16.55 38.55 16.05 38.95 15.35 38.9 12 37.5 8.65 38.9 8 38.95 7.5 38.55 7.3 37.9 7.6 34.15 5.25 31.25 5 30.65 5.2 30 Q5.45 29.7 5.75 29.65 L9.3 28.7 11.2 25.5 11.7 25.1 Q12 24.95 12.3 25.1 L12.85 25.5"/>
  </g>
</svg>