<svg width="64" height="64" xmlns="http://www.w3.org/2000/svg" xmlns:xlink="http://www.w3.org/1999/xlink">
  <defs/>
  <g>
    <path stroke="none" fill="#5193EE" d="M64 54 L64 64 0 64 0 54 64 54 M0 10 L0 0 64 0 64 10 0 10"/>
    <path stroke="none" fill="#FCC920" d="M0 10 L64 10 64 16 0 16 0 10 M0 48 L64 48 64 54 0 54 0 48"/>
    <path stroke="none" fill="#EC2037" d="M0 48 L0 16 64 16 64 48 0 48"/>
    <path stroke="none" fill="#EEEEF7" d="M32 20 Q40.55 20 46.6 24.65 50.7 27.85 52 32 50.7 36.15 46.6 39.35 40.55 44 32 44 L32 20"/>
    <path stroke="none" fill="#25252A" d="M32 20 L32 44 31.95 44 Q23.45 44 17.4 39.35 13.3 36.15 12 32 13.3 27.85 17.4 24.65 23.45 20 31.95 20 L32 20"/>
    <path stroke="none" fill="#EEEEF7" d="M23 27 L25 27 Q25.85 27 26.45 27.6 27 28.15 27 29 L27 35 Q27 35.85 26.45 36.45 25.85 37 25 37 L23 37 Q22.15 37 21.6 36.45 21 35.85 21 35 L21 29 Q21 28.15 21.6 27.6 22.15 27 23 27"/>
    <path stroke="none" fill="#25252A" d="M39 27 L41 27 Q41.85 27 42.45 27.6 43 28.15 43 29 L43 35 Q43 35.85 42.45 36.45 41.85 37 41 37 L39 37 Q38.15 37 37.6 36.45 37 35.85 37 35 L37 29 Q37 28.15 37.6 27.6 38.15 27 39 27"/>
  </g>
</svg>