<svg width="64" height="64" xmlns="http://www.w3.org/2000/svg" xmlns:xlink="http://www.w3.org/1999/xlink">
  <defs/>
  <g>
    <path stroke="none" fill="#EC2037" d="M64 19 L0 19 0 0 64 0 64 19"/>
    <path stroke="none" fill="#EEEEF7" d="M64 19 L64 45 0 45 0 19 64 19"/>
    <path stroke="none" fill="#259F6C" d="M0 45 L64 45 64 64 0 64 0 45"/>
    <path stroke="none" fill="#FCC920" d="M32.9 26.8 Q32.55 28 32 28 31.4 28 31 26.8 L30.7 25.25 29.15 24.9 Q28 24.55 28 24 28 23.4 29.15 23 L30.7 22.7 31 21.15 Q31.4 20 32 20 32.55 20 32.9 21.15 L33.25 22.7 34.8 23 Q36 23.4 36 24 36 24.55 34.8 24.9 L33.25 25.25 32.9 26.8"/>
    <path stroke="none" fill="#FCC920" d="M42.9 30.8 Q42.55 32 42 32 41.4 32 41 30.8 L40.7 29.25 39.15 28.9 Q38 28.55 38 28 38 27.4 39.15 27 L40.7 26.7 41 25.15 Q41.4 24 42 24 42.55 24 42.9 25.15 L43.25 26.7 44.8 27 Q46 27.4 46 28 46 28.55 44.8 28.9 L43.25 29.25 42.9 30.8"/>
    <path stroke="none" fill="#FCC920" d="M22.9 30.8 Q22.55 32 22 32 21.4 32 21 30.8 L20.7 29.25 19.15 28.9 Q18 28.55 18 28 18 27.4 19.15 27 L20.7 26.7 21 25.15 Q21.4 24 22 24 22.55 24 22.9 25.15 L23.25 26.7 24.8 27 Q26 27.4 26 28 26 28.55 24.8 28.9 L23.25 29.25 22.9 30.8"/>
    <path stroke="none" fill="#FCC920" d="M36.25 36.75 L39.55 35.1 40.25 35.05 Q40.55 35.1 40.8 35.4 L41 36 41 42 40.8 42.65 40.25 43 39.6 42.9 Q35.95 41.15 32 41.2 28.05 41.15 24.45 42.9 L23.8 43 Q23.45 42.9 23.25 42.65 L23 42 23 36 Q23 35.65 23.25 35.4 23.45 35.1 23.8 35.05 L24.45 35.1 27.8 36.75 Q28.85 35.55 29.6 34 L29 34 Q28.6 34 28.3 33.7 28 33.4 28 33 28 31.35 29.15 30.2 L29.2 30.15 Q30.35 29 32 29 33.65 29 34.8 30.15 36 31.35 36 33 L35.7 33.7 35 34 34.4 34 Q35.15 35.55 36.25 36.75"/>
  </g>
</svg>