<svg width="64" height="64" xmlns="http://www.w3.org/2000/svg" xmlns:xlink="http://www.w3.org/1999/xlink">
  <defs/>
  <g>
    <path stroke="none" fill="#EC2037" d="M0.05 64 L0.05 0 64.05 0 64.05 64 0.05 64"/>
    <path stroke="none" fill="#FCC920" d="M48.45 34.85 Q28.2 49.45 7.9 64 L0.05 64 0.05 0 7.9 0 48.45 29.2 Q50.05 30.35 50.05 32 50.05 33.65 48.45 34.85"/>
    <path stroke="none" fill="#25252A" d="M32.9 34.85 L3.7 64 0 64 0 0 3.7 0 32.9 29.2 Q34.05 30.35 34.05 32 34.05 33.65 32.9 34.85"/>
    <path stroke="none" fill="#EEEEF7" d="M12.9 23.65 L16.25 26.95 20.95 26.95 Q21.45 26.95 21.8 27.2 L22.2 27.95 22.2 28.8 20.15 33.15 21.8 37.75 21.85 38.6 21.25 39.3 20.45 39.45 15.8 38.8 12.15 41.7 Q11.8 42 11.3 41.95 10.85 41.95 10.6 41.65 L10.1 40.9 9.2 36.1 5.35 33.35 Q4.95 33.05 4.85 32.6 4.7 32.15 4.9 31.75 L5.4 31.1 9.5 28.8 10.8 24.2 11.3 23.5 12.05 23.25 Q12.55 23.3 12.9 23.65"/>
  </g>
</svg>