<svg width="64" height="64" xmlns="http://www.w3.org/2000/svg" xmlns:xlink="http://www.w3.org/1999/xlink">
  <defs/>
  <g>
    <path stroke="none" fill="#259F6C" d="M0 64 L0 0 64 0 64 64 0 64"/>
    <path stroke="none" fill="#EC2037" d="M8 64 L8 0 24 0 24 64 8 64"/>
    <path stroke="none" fill="#EEEEF7" d="M29.95 9.15 L29.65 8.35 28.9 8.1 Q28 7.65 28 7 28 6.4 28.9 5.95 L29.65 5.65 29.95 4.9 Q30.4 4 31 4 31.65 4 32.1 4.9 L32.35 5.65 33.15 5.95 Q34 6.4 34 7 34 7.65 33.15 8.1 L32.35 8.35 32.1 9.15 Q31.65 10 31 10 30.4 10 29.95 9.15"/>
    <path stroke="none" fill="#EEEEF7" d="M47.3 8.45 L47.15 8.35 46.75 7.85 Q46.6 7.55 46.7 7.25 L47.1 6.65 47.75 6.5 Q50.3 6.75 52.7 8.15 56.95 10.65 58.4 15.45 59.65 20.3 57.2 24.55 54.75 28.8 50.05 30.1 45.15 31.35 40.9 28.85 38.5 27.45 37 25.35 L36.8 24.7 37.1 24.1 Q37.35 23.85 37.7 23.85 L38.3 23.9 38.4 23.95 Q41.65 25.85 45.25 24.95 48.85 23.95 50.7 20.75 52.55 17.55 51.5 14 L51.55 13.95 Q50.55 10.35 47.3 8.45"/>
    <path stroke="none" fill="#EEEEF7" d="M39.95 9.15 L39.65 8.35 38.9 8.1 Q38 7.65 38 7 38 6.4 38.9 5.95 L39.65 5.65 39.95 4.9 Q40.4 4 41 4 41.65 4 42.1 4.9 L42.35 5.65 43.15 5.95 Q44 6.4 44 7 44 7.65 43.15 8.1 L42.35 8.35 42.1 9.15 Q41.65 10 41 10 40.4 10 39.95 9.15"/>
    <path stroke="none" fill="#EEEEF7" d="M29.95 19.15 L29.65 18.35 28.9 18.1 Q28 17.65 28 17 28 16.4 28.9 15.95 L29.65 15.65 29.95 14.9 Q30.4 14 31 14 31.65 14 32.1 14.9 L32.35 15.65 33.15 15.95 Q34 16.4 34 17 34 17.65 33.15 18.1 L32.35 18.35 32.1 19.15 Q31.65 20 31 20 30.4 20 29.95 19.15"/>
    <path stroke="none" fill="#EEEEF7" d="M39.95 19.15 L39.65 18.35 38.9 18.1 Q38 17.65 38 17 38 16.4 38.9 15.95 L39.65 15.65 39.95 14.9 Q40.4 14 41 14 41.65 14 42.1 14.9 L42.35 15.65 43.15 15.95 Q44 16.4 44 17 44 17.65 43.15 18.1 L42.35 18.35 42.1 19.15 Q41.65 20 41 20 40.4 20 39.95 19.15"/>
    <path stroke="none" fill="#EEEEF7" d="M34.95 14.15 L34.65 13.35 33.9 13.1 Q33 12.65 33 12 33 11.4 33.9 10.95 L34.65 10.65 34.95 9.9 Q35.4 9 36 9 36.65 9 37.1 9.9 L37.35 10.65 38.15 10.95 Q39 11.4 39 12 39 12.65 38.15 13.1 L37.35 13.35 37.1 14.15 Q36.65 15 36 15 35.4 15 34.95 14.15"/>
    <path stroke="none" fill="#C4863B" d="M9.45 5.6 L13.45 9.6 Q14 10.15 14 11 14 11.85 13.45 12.45 L9.45 16.45 Q8.85 17 8 17 L8 5 Q8.85 5 9.45 5.6"/>
    <path stroke="none" fill="#C4863B" d="M22.55 5.6 Q23.15 5 24 5 L24 17 Q23.15 17 22.55 16.45 L18.55 12.45 Q18 11.85 18 11 18 10.15 18.55 9.6 L22.55 5.6"/>
    <path stroke="none" fill="#C4863B" d="M9.45 26.6 L13.45 30.6 Q14 31.15 14 32 14 32.85 13.45 33.45 L9.45 37.45 Q8.85 38 8 38 L8 26 Q8.85 26 9.45 26.6"/>
    <path stroke="none" fill="#C4863B" d="M22.55 26.6 Q23.15 26 24 26 L24 38 Q23.15 38 22.55 37.45 L18.55 33.45 Q18 32.85 18 32 18 31.15 18.55 30.6 L22.55 26.6"/>
    <path stroke="none" fill="#C4863B" d="M9.45 47.6 L13.45 51.6 Q14 52.15 14 53 14 53.85 13.45 54.45 L9.45 58.45 Q8.85 59 8 59 L8 47 Q8.85 47 9.45 47.6"/>
    <path stroke="none" fill="#C4863B" d="M22.55 47.6 Q23.15 47 24 47 L24 59 Q23.15 59 22.55 58.45 L18.55 54.45 Q18 53.85 18 53 18 52.15 18.55 51.6 L22.55 47.6"/>
    <path stroke="none" fill="#259F6C" d="M17.45 17.6 L20.45 20.6 Q21 21.15 21 22 21 22.85 20.45 23.45 L17.45 26.45 Q16.85 27 16 27 15.15 27 14.6 26.45 L11.6 23.45 Q11 22.85 11 22 11 21.15 11.6 20.6 L14.6 17.6 Q15.15 17 16 17 16.85 17 17.45 17.6"/>
    <path stroke="none" fill="#259F6C" d="M17.45 37.6 L20.45 40.6 Q21 41.15 21 42 21 42.85 20.45 43.45 L17.45 46.45 Q16.85 47 16 47 15.15 47 14.6 46.45 L11.6 43.45 Q11 42.85 11 42 11 41.15 11.6 40.6 L14.6 37.6 Q15.15 37 16 37 16.85 37 17.45 37.6"/>
    <path stroke="none" fill="#EEEEF7" d="M17.45 57.6 L20.45 60.6 Q21 61.15 21 62 21 62.85 20.45 63.45 L19.9 64 12.15 64 11.6 63.45 Q11 62.85 11 62 11 61.15 11.6 60.6 L14.6 57.6 Q15.15 57 16 57 16.85 57 17.45 57.6"/>
    <path stroke="none" fill="#EEEEF7" d="M20.45 0.6 Q21 1.15 21 2 21 2.85 20.45 3.45 L17.45 6.45 Q16.85 7 16 7 15.15 7 14.6 6.45 L11.6 3.45 Q11 2.85 11 2 11 1.15 11.6 0.6 L12.2 0 19.85 0 20.45 0.6"/>
  </g>
</svg>