<svg width="64" height="64" xmlns="http://www.w3.org/2000/svg" xmlns:xlink="http://www.w3.org/1999/xlink">
  <defs/>
  <g>
    <path stroke="none" fill="#EC2037" d="M0 64 L0 0 64 0 64 64 0 64"/>
    <path stroke="none" fill="#EEEEF7" d="M50 32 Q50 39.45 44.75 44.75 39.45 50 32 50 24.55 50 19.25 44.75 14 39.45 14 32 14 24.55 19.25 19.25 24.55 14 32 14 39.45 14 44.75 19.25 50 24.55 50 32"/>
    <path stroke="none" fill="#EC2037" d="M36.8 23 Q33 23 30.3 25.65 L30.3 25.7 Q27.65 28.3 27.65 32 27.65 35.7 30.3 38.35 33 41 36.8 41 L36.95 41 Q37.25 41 37.55 41.25 L37.9 41.8 37.85 42.45 37.35 42.9 Q35 44 32.2 44 27.2 44 23.55 40.45 20 36.95 20 32 20 27.05 23.55 23.5 27.2 20 32.2 20 35 20 37.4 21.1 L37.9 21.55 37.95 22.25 37.6 22.8 37 23 36.8 23"/>
    <path stroke="none" fill="#EC2037" d="M37 26.2 L39.2 28.4 42.15 28.35 42.7 28.5 43 29 42.95 29.55 41.7 32.35 42.65 35.3 42.7 35.85 42.4 36.25 41.9 36.4 38.9 36 36.6 37.85 36.1 38 Q35.8 38 35.6 37.8 L35.3 37.3 34.75 34.25 32.35 32.4 32 32 Q31.95 31.7 32.05 31.45 32.1 31.15 32.4 31 L34.95 29.55 35.8 26.55 Q35.85 26.25 36.05 26.15 L36.55 26 37 26.2"/>
  </g>
</svg>