<svg width="64" height="64" xmlns="http://www.w3.org/2000/svg" xmlns:xlink="http://www.w3.org/1999/xlink">
  <defs/>
  <g>
    <path stroke="none" fill="#EC2037" d="M0 0 L64 0 64 64 0 64 0 0"/>
    <path stroke="none" fill="#EEEEF7" d="M0 32 L0 0 32 0 32 32 0 32"/>
    <path stroke="none" fill="#EC2037" d="M13 9 Q13 8.2 13.6 7.6 14.2 7 15 7 L17 7 Q17.85 7 18.45 7.6 L18.55 7.65 Q19 8.25 19 9 L19 13 23 13 Q23.85 13 24.45 13.6 L24.55 13.65 Q25 14.25 25 15 L25 17 24.55 18.4 24.4 18.55 23 19 19 19 19 23 Q19 23.85 18.55 24.4 L18.4 24.55 Q17.85 25 17 25 L15 25 Q14.25 25 13.65 24.55 L13.6 24.45 Q13 23.85 13 23 L13 19 9 19 Q8.25 19 7.65 18.55 L7.6 18.45 Q7 17.85 7 17 L7 15 Q7 14.2 7.6 13.6 8.2 13 9 13 L13 13 13 9"/>
  </g>
</svg>