<svg width="64" height="64" xmlns="http://www.w3.org/2000/svg" xmlns:xlink="http://www.w3.org/1999/xlink">
  <defs/>
  <g>
    <path stroke="none" fill="#EC2037" d="M0 64 L0 0 64 0 64 64 0 64"/>
    <path stroke="none" fill="#EEEEF7" d="M32.8 23 Q29 23 26.3 25.65 L26.3 25.7 Q23.65 28.3 23.65 32 23.65 35.7 26.3 38.35 29 41 32.8 41 L32.95 41 33.55 41.25 33.9 41.8 33.85 42.45 33.35 42.9 Q31 44 28.2 44 23.2 44 19.55 40.45 16 36.95 16 32 16 27.05 19.55 23.5 23.2 20 28.2 20 31 20 33.4 21.1 L33.9 21.55 33.95 22.25 33.6 22.8 33 23 32.8 23"/>
    <path stroke="none" fill="#FFFFFF" d="M41 26.2 L43.2 28.4 46.15 28.35 46.7 28.5 47 29 46.95 29.55 45.7 32.35 46.65 35.3 46.7 35.85 46.4 36.25 45.9 36.4 42.9 36 40.6 37.85 40.1 38 Q39.8 38 39.6 37.8 L39.3 37.3 38.75 34.25 36.35 32.4 Q36.05 32.3 36 32 L36.05 31.45 Q36.1 31.15 36.4 31 L38.95 29.55 39.8 26.55 Q39.85 26.25 40.05 26.15 L40.55 26 Q40.9 26 41 26.2"/>
  </g>
</svg>