<svg width="64" height="64" xmlns="http://www.w3.org/2000/svg" xmlns:xlink="http://www.w3.org/1999/xlink">
  <defs/>
  <g>
    <path stroke="none" fill="#5193EE" d="M0 64 L0 0 64 0 64 64 0 64"/>
    <path stroke="none" fill="#3439CB" d="M32 5.45 L32 11 26.4 11 32 5.45 M32 21 L32 26.6 26.4 21 32 21 M26.6 32 L21 32 21 26.4 26.6 32 M11 32 L5.45 32 11 26.4 11 32 M0 26.6 L0 21 5.6 21 0 26.6 M0 11 L0 5.45 5.6 11 0 11 M5.45 0 L11 0 11 5.6 5.45 0 M21 0 L26.6 0 21 5.6 21 0"/>
    <path stroke="none" fill="#EEEEF7" d="M21 0 L21 5.6 26.6 0 29.45 0 21 8.4 21 11 23.6 11 32 2.6 32 5.45 26.4 11 32 11 32 13 20 13 19.3 12.7 Q19 12.4 19 12 L19 0 21 0 M32 19 L32 21 26.4 21 32 26.6 32 29.45 23.6 21 21 21 21 23.6 29.45 32 26.6 32 21 26.4 21 32 19 32 19 20 Q19 19.6 19.3 19.3 19.6 19 20 19 L32 19 M13 32 L11 32 11 26.4 5.45 32 2.6 32 11 23.6 11 21 8.4 21 0 29.45 0 26.6 5.6 21 0 21 0 19 12 19 Q12.4 19 12.7 19.3 L13 20 13 32 M0 13 L0 11 5.6 11 0 5.45 0 2.6 8.4 11 11 11 11 8.4 2.6 0 5.45 0 11 5.6 11 0 13 0 13 12 12.7 12.7 12 13 0 13"/>
    <path stroke="none" fill="#EC2037" d="M0 13 L12 13 12.7 12.7 13 12 13 0 19 0 19 12 Q19 12.4 19.3 12.7 L20 13 32 13 32 19 20 19 Q19.6 19 19.3 19.3 19 19.6 19 20 L19 32 13 32 13 20 12.7 19.3 Q12.4 19 12 19 L0 19 0 13 M32 29.45 L32 32 29.45 32 21 23.6 21 21 23.6 21 32 29.45 M2.6 32 L0 32 0 29.45 8.4 21 11 21 11 23.6 2.6 32 M0 2.6 L0 0 2.6 0 11 8.4 11 11 8.4 11 0 2.6 M29.45 0 L32 0 32 2.6 23.6 11 21 11 21 8.4 29.45 0"/>
    <path stroke="none" fill="#FCC920" d="M49.45 33.85 Q48.85 35 48 35 47.2 35 46.6 33.85 L46.2 32.8 45.2 32.45 Q44 31.85 44 31 44 30.15 45.2 29.55 L46.25 29.2 46.6 28.15 Q47.2 27 48 27 48.85 27 49.45 28.15 L49.8 29.2 50.85 29.55 Q52 30.15 52 31 52 31.85 50.85 32.45 L49.8 32.8 49.45 33.85 M57.45 29.85 Q56.85 31 56 31 55.2 31 54.6 29.85 L54.2 28.8 53.2 28.45 Q52 27.85 52 27 52 26.15 53.2 25.55 L54.25 25.2 54.6 24.15 Q55.2 23 56 23 56.85 23 57.45 24.15 L57.8 25.2 58.85 25.55 Q60 26.15 60 27 60 27.85 58.85 28.45 L57.8 28.8 57.45 29.85 M57.45 43.85 Q56.85 45 56 45 55.2 45 54.6 43.85 L54.2 42.8 53.2 42.45 Q52 41.85 52 41 52 40.15 53.2 39.55 L54.25 39.2 54.6 38.15 Q55.2 37 56 37 56.85 37 57.45 38.15 L57.8 39.2 58.85 39.55 Q60 40.15 60 41 60 41.85 58.85 42.45 L57.8 42.8 57.45 43.85 M41.45 37.85 Q40.85 39 40 39 39.2 39 38.6 37.85 L38.2 36.8 37.2 36.45 Q36 35.85 36 35 36 34.15 37.2 33.55 L38.25 33.2 38.6 32.15 Q39.2 31 40 31 40.85 31 41.45 32.15 L41.8 33.2 42.85 33.55 Q44 34.15 44 35 44 35.85 42.85 36.45 L41.8 36.8 41.45 37.85 M49.45 47.85 Q48.85 49 48 49 47.2 49 46.6 47.85 L46.2 46.8 45.2 46.45 Q44 45.85 44 45 44 44.15 45.2 43.55 L46.25 43.2 46.6 42.15 Q47.2 41 48 41 48.85 41 49.45 42.15 L49.8 43.2 50.85 43.55 Q52 44.15 52 45 52 45.85 50.85 46.45 L49.8 46.8 49.45 47.85 M33.45 45.85 Q32.85 47 32 47 31.2 47 30.6 45.85 L30.2 44.8 29.2 44.45 Q28 43.85 28 43 28 42.15 29.2 41.55 L30.25 41.2 30.6 40.15 Q31.2 39 32 39 32.85 39 33.45 40.15 L33.8 41.2 34.85 41.55 Q36 42.15 36 43 36 43.85 34.85 44.45 L33.8 44.8 33.45 45.85 M41.45 51.85 Q40.85 53 40 53 39.2 53 38.6 51.85 L38.2 50.8 37.2 50.45 Q36 49.85 36 49 36 48.15 37.2 47.55 L38.25 47.2 38.6 46.15 Q39.2 45 40 45 40.85 45 41.45 46.15 L41.8 47.2 42.85 47.55 Q44 48.15 44 49 44 49.85 42.85 50.45 L41.8 50.8 41.45 51.85 M33.45 55.85 Q32.85 57 32 57 31.2 57 30.6 55.85 L30.2 54.8 29.2 54.45 Q28 53.85 28 53 28 52.15 29.2 51.55 L30.25 51.2 30.6 50.15 Q31.2 49 32 49 32.85 49 33.45 50.15 L33.8 51.2 34.85 51.55 Q36 52.15 36 53 36 53.85 34.85 54.45 L33.8 54.8 33.45 55.85 M25.45 57.85 Q24.85 59 24 59 23.2 59 22.6 57.85 L22.2 56.8 21.2 56.45 Q20 55.85 20 55 20 54.15 21.2 53.55 L22.25 53.2 22.6 52.15 Q23.2 51 24 51 24.85 51 25.45 52.15 L25.8 53.2 26.85 53.55 Q28 54.15 28 55 28 55.85 26.85 56.45 L25.8 56.8 25.45 57.85"/>
  </g>
</svg>