<svg width="64" height="64" xmlns="http://www.w3.org/2000/svg" xmlns:xlink="http://www.w3.org/1999/xlink">
  <defs/>
  <g>
    <path stroke="none" fill="#3439CB" d="M0 32 L0 0 32 0 32 32 0 32"/>
    <path stroke="none" fill="#EC2037" d="M0 32 L32 32 32 0 64 0 64 64 0 64 0 32"/>
    <path stroke="none" fill="#EEEEF7" d="M18.4 23.05 Q17.4 26 16 26 14.65 26 13.65 23.05 L13.4 22.25 12.65 22.65 Q9.9 24.05 8.9 23.1 7.95 22.1 9.35 19.35 L9.75 18.6 8.95 18.35 Q6 17.4 6 16 6 14.6 8.95 13.65 L9.7 13.4 9.3 12.7 Q7.9 9.9 8.9 8.95 9.9 7.95 12.65 9.35 L13.4 9.75 13.65 8.95 Q14.65 6 16 6 17.4 6 18.4 8.95 L18.65 9.7 19.3 9.35 Q22.1 7.95 23.05 8.95 24.05 9.95 22.65 12.7 L22.3 13.4 23.1 13.65 Q26 14.6 26 16 26 17.4 23.1 18.35 L22.25 18.6 22.65 19.35 Q24 22.1 23.05 23.05 22.05 24.05 19.3 22.65 L18.6 22.3 18.4 23.05"/>
  </g>
</svg>