<svg width="64" height="64" xmlns="http://www.w3.org/2000/svg" xmlns:xlink="http://www.w3.org/1999/xlink">
  <defs/>
  <g>
    <path stroke="none" fill="#FCC920" d="M64 43 L64 53 0 53 0 43 64 43 M0 21 L0 11 64 11 64 21 0 21"/>
    <path stroke="none" fill="#25252A" d="M64 32 L64 43 0 43 0 32 64 32 M0 11 L0 0 64 0 64 11 0 11"/>
    <path stroke="none" fill="#EC2037" d="M64 21 L64 32 0 32 0 21 64 21 M64 53 L64 64 0 64 0 53 64 53"/>
    <path stroke="none" fill="#EEEEF7" d="M46 32 Q46 37.8 41.9 41.85 37.8 46 32 46 26.25 46 22.1 41.85 18 37.8 18 32 18 26.25 22.1 22.1 26.25 18 32 18 37.8 18 41.9 22.1 46 26.25 46 32"/>
    <path stroke="none" fill="#EC2037" d="M32.9 28.45 L34.05 28.6 Q38.35 30.15 38.95 33.45 39.15 34.4 38.6 35.3 38 36.15 36.95 36.4 L35.5 36.3 35 36.05 Q34.1 35.45 33.9 34.5 33.5 33.7 32.2 33.2 31.15 32.8 30.7 31.9 30.3 30.9 30.65 30.05 L30.95 29.5 Q31.35 29 32 28.7 L32.05 28.65 32.9 28.45"/>
    <path stroke="none" fill="#25252A" d="M32.9 28.45 L32.05 28.65 32 28.7 Q31.35 29 30.95 29.5 L30.65 30.05 Q30.3 30.9 30.7 31.9 31.15 32.8 32.2 33.2 33.5 33.7 33.9 34.5 34.1 35.45 35 36.05 L35.5 36.3 34.9 36.6 33.95 36.7 33.95 39.35 33.5 40.5 Q32.9 41 32.2 41 31.5 41 30.95 40.5 30.45 40 30.45 39.35 L30.45 36.9 29.6 37.35 28.25 37.5 27.2 36.7 Q26.85 36.15 27.05 35.45 27.3 34.85 27.9 34.5 L29.05 33.85 Q27.6 32.25 27 30.15 L26.2 30.1 Q25.55 29.85 25.2 29.25 24.85 28.7 25.05 28 25.35 27.4 25.95 27.1 L26.95 26.6 26.9 26.25 Q26.9 24.9 27.85 23.95 28.9 23 30.35 23 31.8 23 32.8 23.95 33.85 24.9 33.85 26.25 33.85 27.55 32.9 28.45"/>
  </g>
</svg>