<svg width="64" height="64" xmlns="http://www.w3.org/2000/svg" xmlns:xlink="http://www.w3.org/1999/xlink">
  <defs/>
  <g>
    <path stroke="none" fill="#5193EE" d="M0 0 L64 0 64 64 0 64 0 0"/>
    <path stroke="none" fill="#F7F7FB" d="M53.8 47.55 L53.9 48.2 Q54.05 48.65 53.6 48.95 L52.3 50.55 52 50.7 51.55 50.8 47.5 50.4 Q45.05 52.05 41.85 51.85 41.05 51.6 40.55 51 40.1 50.3 40.15 49.5 40.3 48.55 40.8 48 41.55 47.45 42.25 47.45 43.95 47.7 45.25 46.95 L45.35 43.85 Q45.3 43.35 45.55 43.05 L46.95 41.55 Q47.05 41.35 47.45 41.3 L48 41.25 48.25 41.5 48.85 42 48.35 39.95 Q48.15 39.45 48.4 39.05 L49.45 37.25 49.85 36.85 50.3 36.75 50.85 36.8 51.4 37.2 50.5 35.45 50.45 34.65 50.95 32.85 Q50.9 32.5 51.25 32.35 L51.65 32 52.2 32.05 53.8 32.65 54.3 33.05 55 34.25 56.15 33.55 56.55 33.4 56.95 33.4 58.5 33.95 59.1 34.4 59.2 35.2 58.65 37 58.5 37.35 58.2 37.7 56.15 38.95 55.95 40 57.45 40.95 57.9 41.6 57.85 42.45 56.7 44.4 56.55 44.7 56.1 44.85 53.4 45.65 52.9 45.55 52.45 46.1 53.8 47.55 M10.2 47.55 L11.55 46.1 11.1 45.55 10.6 45.65 7.9 44.85 7.45 44.7 7.3 44.4 6.15 42.45 Q6 42.25 6.1 41.6 6.15 41.3 6.55 40.95 L8.05 40 7.85 38.95 5.8 37.7 5.5 37.35 5.35 37 4.8 35.2 4.9 34.4 Q5.15 34.05 5.5 33.95 L7.05 33.4 7.45 33.4 7.85 33.55 9 34.25 9.7 33.05 Q9.9 32.7 10.2 32.65 L11.8 32.05 12.35 32 12.75 32.35 Q13.1 32.5 13.05 32.85 L13.55 34.65 13.5 35.45 12.6 37.2 13.15 36.8 13.7 36.75 14.15 36.85 14.55 37.25 15.6 39.05 Q15.85 39.45 15.65 39.95 L15.15 42 15.75 41.5 16 41.25 16.55 41.3 Q16.95 41.35 17.05 41.55 L18.45 43.05 18.65 43.85 18.75 46.95 Q20.05 47.7 21.75 47.45 22.45 47.45 23.2 48 23.7 48.55 23.85 49.5 23.9 50.3 23.45 51 22.95 51.6 22.15 51.85 18.95 52.05 16.5 50.4 L12.45 50.8 12 50.7 11.7 50.55 10.4 48.95 Q9.95 48.65 10.1 48.2 L10.2 47.55"/>
    <path stroke="none" fill="#F7F7FB" d="M48 30 Q48 36.65 43.3 41.3 38.6 46 32 46 25.35 46 20.65 41.3 16 36.65 16 30 16 23.4 20.65 18.7 25.35 14 32 14 38.6 14 43.3 18.7 48 23.4 48 30 M32 18 Q27 18 23.5 21.55 20 25.05 20 30 20 35 23.5 38.5 27 42 32 42 36.95 42 40.5 38.5 L40.5 38.45 Q44 34.95 44 30 44 25.05 40.5 21.55 36.95 18 32 18"/>
    <path stroke="none" fill="#F7F7FB" d="M27.05 25.05 Q25.35 26.75 25.1 28.95 L31 28.95 31 23.1 Q28.75 23.35 27.05 25.05 M27.05 35 Q28.75 36.65 31 36.95 L31 30.95 25.05 30.95 Q25.35 33.3 27.05 35 M37 35 Q38.65 33.25 38.95 30.95 L33 30.95 33 36.95 Q35.3 36.65 37 35 M37 25.05 Q35.3 23.35 33 23.05 L33 28.95 38.95 28.95 Q38.65 26.75 37 25.05 M31 17 Q31 16.6 31.3 16.3 31.6 16 32 16 32.4 16 32.7 16.3 L33 17 33 21.05 Q36.1 21.35 38.4 23.65 L38.45 23.65 Q40.65 25.9 40.95 28.95 L44.95 28.95 Q45.35 28.95 45.65 29.25 L45.95 29.95 45.65 30.65 44.95 30.95 40.95 30.95 Q40.65 34.1 38.45 36.4 L38.4 36.45 Q36.1 38.65 33 38.95 L33 42.95 32.7 43.65 32 43.95 Q31.6 43.95 31.3 43.65 31 43.35 31 42.95 L31 38.95 Q27.95 38.65 25.65 36.45 L25.65 36.4 Q23.35 34.1 23.05 30.95 L19 30.95 Q18.6 30.95 18.3 30.65 18 30.35 18 29.95 18 29.55 18.3 29.25 18.6 28.95 19 28.95 L23.05 28.95 Q23.35 25.9 25.65 23.65 27.95 21.35 31 21.05 L31 17"/>
  </g>
</svg>