<svg width="64" height="64" xmlns="http://www.w3.org/2000/svg" xmlns:xlink="http://www.w3.org/1999/xlink">
  <defs/>
  <g>
    <path stroke="none" fill="#EC2037" d="M64 26 L64 39 0 39 0 26 64 26 M64 52 L64 64 0 64 0 52 64 52 M0 13 L0 0 64 0 64 13 0 13"/>
    <path stroke="none" fill="#EEEEF7" d="M0 13 L64 13 64 26 0 26 0 13 M64 39 L64 52 0 52 0 39 64 39"/>
    <path stroke="none" fill="#3439CB" d="M39 0 L39 39 0 39 0 0 39 0"/>
    <path stroke="none" fill="#EEEEF7" d="M10.1 11.15 Q9.65 12 9 12 8.4 12 7.95 11.15 L7.65 10.35 6.9 10.1 Q6 9.65 6 9 6 8.35 6.9 7.9 L7.7 7.65 7.95 6.85 Q8.4 6 9 6 9.65 6 10.1 6.85 L10.35 7.65 11.15 7.9 Q12 8.35 12 9 12 9.65 11.15 10.1 L10.35 10.35 10.1 11.15"/>
    <path stroke="none" fill="#EEEEF7" d="M20.1 11.15 Q19.65 12 19 12 18.4 12 17.95 11.15 L17.65 10.35 16.9 10.1 Q16 9.65 16 9 16 8.35 16.9 7.9 L17.7 7.65 17.95 6.85 Q18.4 6 19 6 19.65 6 20.1 6.85 L20.35 7.65 21.15 7.9 Q22 8.35 22 9 22 9.65 21.15 10.1 L20.35 10.35 20.1 11.15"/>
    <path stroke="none" fill="#EEEEF7" d="M30.1 11.15 Q29.65 12 29 12 28.4 12 27.95 11.15 L27.65 10.35 26.9 10.1 Q26 9.65 26 9 26 8.35 26.9 7.9 L27.7 7.65 27.95 6.85 Q28.4 6 29 6 29.65 6 30.1 6.85 L30.35 7.65 31.15 7.9 Q32 8.35 32 9 32 9.65 31.15 10.1 L30.35 10.35 30.1 11.15"/>
    <path stroke="none" fill="#EEEEF7" d="M15.1 16.15 Q14.65 17 14 17 13.4 17 12.95 16.15 L12.65 15.35 11.9 15.1 Q11 14.65 11 14 11 13.35 11.9 12.9 L12.7 12.65 12.95 11.85 Q13.4 11 14 11 14.65 11 15.1 11.85 L15.35 12.65 16.15 12.9 Q17 13.35 17 14 17 14.65 16.15 15.1 L15.35 15.35 15.1 16.15"/>
    <path stroke="none" fill="#EEEEF7" d="M25.1 16.15 Q24.65 17 24 17 23.4 17 22.95 16.15 L22.65 15.35 21.9 15.1 Q21 14.65 21 14 21 13.35 21.9 12.9 L22.7 12.65 22.95 11.85 Q23.4 11 24 11 24.65 11 25.1 11.85 L25.35 12.65 26.15 12.9 Q27 13.35 27 14 27 14.65 26.15 15.1 L25.35 15.35 25.1 16.15"/>
    <path stroke="none" fill="#EEEEF7" d="M10.1 21.15 Q9.65 22 9 22 8.4 22 7.95 21.15 L7.65 20.35 6.9 20.1 Q6 19.65 6 19 6 18.35 6.9 17.9 L7.7 17.65 7.95 16.85 Q8.4 16 9 16 9.65 16 10.1 16.85 L10.35 17.65 11.15 17.9 Q12 18.35 12 19 12 19.65 11.15 20.1 L10.35 20.35 10.1 21.15"/>
    <path stroke="none" fill="#EEEEF7" d="M20.1 21.15 Q19.65 22 19 22 18.4 22 17.95 21.15 L17.65 20.35 16.9 20.1 Q16 19.65 16 19 16 18.35 16.9 17.9 L17.7 17.65 17.95 16.85 Q18.4 16 19 16 19.65 16 20.1 16.85 L20.35 17.65 21.15 17.9 Q22 18.35 22 19 22 19.65 21.15 20.1 L20.35 20.35 20.1 21.15"/>
    <path stroke="none" fill="#EEEEF7" d="M30.1 21.15 Q29.65 22 29 22 28.4 22 27.95 21.15 L27.65 20.35 26.9 20.1 Q26 19.65 26 19 26 18.35 26.9 17.9 L27.7 17.65 27.95 16.85 Q28.4 16 29 16 29.65 16 30.1 16.85 L30.35 17.65 31.15 17.9 Q32 18.35 32 19 32 19.65 31.15 20.1 L30.35 20.35 30.1 21.15"/>
    <path stroke="none" fill="#EEEEF7" d="M15.1 26.15 Q14.65 27 14 27 13.4 27 12.95 26.15 L12.65 25.35 11.9 25.1 Q11 24.65 11 24 11 23.35 11.9 22.9 L12.7 22.65 12.95 21.85 Q13.4 21 14 21 14.65 21 15.1 21.85 L15.35 22.65 16.15 22.9 Q17 23.35 17 24 17 24.65 16.15 25.1 L15.35 25.35 15.1 26.15"/>
    <path stroke="none" fill="#EEEEF7" d="M25.1 26.15 Q24.65 27 24 27 23.4 27 22.95 26.15 L22.65 25.35 21.9 25.1 Q21 24.65 21 24 21 23.35 21.9 22.9 L22.7 22.65 22.95 21.85 Q23.4 21 24 21 24.65 21 25.1 21.85 L25.35 22.65 26.15 22.9 Q27 23.35 27 24 27 24.65 26.15 25.1 L25.35 25.35 25.1 26.15"/>
    <path stroke="none" fill="#EEEEF7" d="M10.1 31.15 Q9.65 32 9 32 8.4 32 7.95 31.15 L7.65 30.35 6.9 30.1 Q6 29.65 6 29 6 28.35 6.9 27.9 L7.7 27.65 7.95 26.85 Q8.4 26 9 26 9.65 26 10.1 26.85 L10.35 27.65 11.15 27.9 Q12 28.35 12 29 12 29.65 11.15 30.1 L10.35 30.35 10.1 31.15"/>
    <path stroke="none" fill="#EEEEF7" d="M20.1 31.15 Q19.65 32 19 32 18.4 32 17.95 31.15 L17.65 30.35 16.9 30.1 Q16 29.65 16 29 16 28.35 16.9 27.9 L17.7 27.65 17.95 26.85 Q18.4 26 19 26 19.65 26 20.1 26.85 L20.35 27.65 21.15 27.9 Q22 28.35 22 29 22 29.65 21.15 30.1 L20.35 30.35 20.1 31.15"/>
    <path stroke="none" fill="#EEEEF7" d="M30.1 31.15 Q29.65 32 29 32 28.4 32 27.95 31.15 L27.65 30.35 26.9 30.1 Q26 29.65 26 29 26 28.35 26.9 27.9 L27.7 27.65 27.95 26.85 Q28.4 26 29 26 29.65 26 30.1 26.85 L30.35 27.65 31.15 27.9 Q32 28.35 32 29 32 29.65 31.15 30.1 L30.35 30.35 30.1 31.15"/>
  </g>
</svg>