<svg width="64" height="64" xmlns="http://www.w3.org/2000/svg" xmlns:xlink="http://www.w3.org/1999/xlink">
  <defs/>
  <g>
    <path stroke="none" fill="#5193EE" d="M0 20 L0 0 64 0 64 20 0 20"/>
    <path stroke="none" fill="#EC2037" d="M0 20 L64 20 64 25 0 25 0 20 M64 39 L64 44 0 44 0 39 64 39"/>
    <path stroke="none" fill="#EEEEF7" d="M64 39 L0 39 0 25 64 25 64 39"/>
    <path stroke="none" fill="#259F6C" d="M64 44 L64 64 0 64 0 44 64 44"/>
    <path stroke="none" fill="#EEEEF7" d="M11.35 4.55 L11.85 5.05 11.9 5.25 11.95 5.95 11.6 6.65 Q11.3 7 10.85 7 L10.75 7 Q9.85 7 9.2 7.75 L9.05 7.9 Q8.3 8.75 8.3 10 8.3 11.25 9.05 12.2 9.75 13 10.75 13 L10.8 13 Q11.2 12.95 11.6 13.4 L11.9 13.95 11.95 14.7 11.85 15 11.25 15.5 9.15 16 Q7 16 5.45 14.25 4 12.5 4 10 4 7.5 5.45 5.8 7 4 9.15 4 10.35 4 11.35 4.55"/>
    <path stroke="none" fill="#EEEEF7" d="M19.1 8.15 Q18.65 9 18 9 17.4 9 16.95 8.15 L16.65 7.35 15.9 7.1 Q15 6.65 15 6 15 5.35 15.9 4.9 L16.7 4.65 16.95 3.85 Q17.4 3 18 3 18.65 3 19.1 3.85 L19.35 4.65 20.15 4.9 Q21 5.35 21 6 21 6.65 20.15 7.1 L19.35 7.35 19.1 8.15"/>
    <path stroke="none" fill="#EEEEF7" d="M19.1 16.15 Q18.65 17 18 17 17.4 17 16.95 16.15 L16.65 15.35 15.9 15.1 Q15 14.65 15 14 15 13.35 15.9 12.9 L16.7 12.65 16.95 11.85 Q17.4 11 18 11 18.65 11 19.1 11.85 L19.35 12.65 20.15 12.9 Q21 13.35 21 14 21 14.65 20.15 15.1 L19.35 15.35 19.1 16.15"/>
    <path stroke="none" fill="#EEEEF7" d="M27.1 8.15 Q26.65 9 26 9 25.4 9 24.95 8.15 L24.65 7.35 23.9 7.1 Q23 6.65 23 6 23 5.35 23.9 4.9 L24.7 4.65 24.95 3.85 Q25.4 3 26 3 26.65 3 27.1 3.85 L27.35 4.65 28.15 4.9 Q29 5.35 29 6 29 6.65 28.15 7.1 L27.35 7.35 27.1 8.15"/>
    <path stroke="none" fill="#EEEEF7" d="M27.1 16.15 Q26.65 17 26 17 25.4 17 24.95 16.15 L24.65 15.35 23.9 15.1 Q23 14.65 23 14 23 13.35 23.9 12.9 L24.7 12.65 24.95 11.85 Q25.4 11 26 11 26.65 11 27.1 11.85 L27.35 12.65 28.15 12.9 Q29 13.35 29 14 29 14.65 28.15 15.1 L27.35 15.35 27.1 16.15"/>
  </g>
</svg>