<svg width="64" height="64" xmlns="http://www.w3.org/2000/svg" xmlns:xlink="http://www.w3.org/1999/xlink">
  <defs/>
  <g>
    <path stroke="none" fill="#FCC920" d="M32 64 L0 64 0 0 32 0 32 64"/>
    <path stroke="none" fill="#EEEEF7" d="M32 64 L32 0 64 0 64 64 32 64"/>
    <path stroke="none" fill="#C4863B" d="M38 22 L38 14 Q38 13.15 38.6 12.6 39.15 12 40 12 40.85 12 41.45 12.6 L44 15.15 46.6 12.6 Q47.15 12 48 12 48.85 12 49.45 12.6 L52 15.15 54.6 12.6 Q55.15 12 56 12 56.85 12 57.45 12.6 58 13.15 58 14 L58 22 Q58 22.85 57.45 23.45 56.85 24 55.35 24.55 48 26.95 40.25 24.35 39.15 24 38.6 23.45 38 22.85 38 22"/>
    <path stroke="none" fill="#9899AD" d="M53.45 43.7 Q52.85 44.3 52.85 45.1 L52.8 45.15 Q52.9 45.9 53.5 46.5 54.1 47.1 54.85 47.05 L54.9 47.05 Q55.7 47.1 56.3 46.5 56.9 45.95 56.9 45.15 L56.85 45.1 Q56.9 44.3 56.35 43.75 55.75 43.15 54.85 43.15 L54.85 43.2 Q54.1 43.1 53.45 43.7 M39.55 35.75 L36.7 33.05 36.65 33.1 36 33.35 35.25 33.05 Q35.05 32.8 35 32.4 35 31.95 35.3 31.65 L38.9 28.2 Q39.15 27.95 39.6 28 L40.3 28.25 45.9 33.7 52.25 39.8 Q53.5 39.2 54.85 39.25 L54.9 39.25 Q57.4 39.2 59.2 40.95 60.95 42.65 61 45.15 61 47.55 59.2 49.25 57.45 51 54.95 51 52.4 50.95 50.65 49.25 48.85 47.5 48.85 45.1 L48.8 45.1 Q48.85 43.7 49.4 42.55 L42.45 35.85 41 37.2 Q40.7 37.5 40.3 37.5 L39.6 37.2 Q39.3 36.9 39.3 36.5 39.3 36.1 39.55 35.85 L39.55 35.75"/>
    <path stroke="none" fill="#C4863B" d="M55.45 35.75 L55.45 35.85 55.7 36.5 55.4 37.2 54.7 37.5 Q54.3 37.5 54 37.2 L52.55 35.85 48.35 39.95 45.6 42.55 Q46.15 43.7 46.2 45.1 L46.15 45.1 Q46.15 47.5 44.35 49.25 42.6 50.95 40.05 51 37.55 51 35.8 49.25 34 47.55 34 45.15 34.05 42.65 35.8 40.95 37.6 39.2 40.1 39.25 L40.15 39.25 Q41.5 39.2 42.75 39.8 L45.9 36.8 54.7 28.25 Q55 28 55.4 28 L56.1 28.2 59.7 31.65 60 32.4 59.75 33.05 59 33.35 58.35 33.1 58.3 33.05 55.45 35.75 M41.55 43.7 Q40.9 43.1 40.15 43.2 L40.15 43.15 Q39.25 43.15 38.65 43.75 38.1 44.3 38.15 45.1 L38.1 45.15 Q38.1 45.95 38.7 46.5 39.3 47.1 40.1 47.05 L40.15 47.05 Q40.9 47.1 41.5 46.5 42.1 45.9 42.2 45.15 L42.15 45.1 Q42.15 44.3 41.55 43.7"/>
  </g>
</svg>