<svg width="64" height="64" xmlns="http://www.w3.org/2000/svg" xmlns:xlink="http://www.w3.org/1999/xlink">
  <defs/>
  <g>
    <path stroke="none" fill="#259F6C" d="M46 0 L64 0 64 64 46 64 46 0"/>
    <path stroke="none" fill="#392D8C" d="M18 64 L0 64 0 0 18 0 18 64"/>
    <path stroke="none" fill="#FCC920" d="M18 64 L18 0 46 0 46 64 18 64"/>
    <path stroke="none" fill="#259F6C" d="M32.6 34.15 Q33.15 34.35 33.55 35 L33.6 35 36.7 40.7 36.7 40.75 37 41.95 36.7 43.3 33.6 49 33.55 49.05 32.65 49.9 32.6 49.9 Q31.95 50.15 31.4 49.9 L30.45 49.05 30.45 49 27.35 43.3 Q27 42.7 27 41.95 27 41.3 27.35 40.75 L27.35 40.7 30.45 35 31.35 34.15 31.4 34.15 Q32.05 33.85 32.6 34.15"/>
    <path stroke="none" fill="#259F6C" d="M25.6 22.15 Q26.15 22.35 26.55 23 L26.6 23 29.7 28.7 29.7 28.75 30 29.95 29.7 31.3 26.6 37 26.55 37.05 25.65 37.9 25.6 37.9 Q24.95 38.15 24.4 37.9 L23.45 37.05 23.45 37 20.35 31.3 Q20 30.7 20 29.95 20 29.3 20.35 28.75 L20.35 28.7 23.45 23 Q23.85 22.35 24.35 22.15 L24.4 22.15 Q25.05 21.85 25.6 22.15"/>
    <path stroke="none" fill="#259F6C" d="M39.6 22.15 L40.55 23 40.6 23 43.7 28.7 43.7 28.75 44 29.95 43.7 31.3 40.6 37 40.55 37.05 39.65 37.9 39.6 37.9 Q38.95 38.15 38.4 37.9 L37.45 37.05 37.45 37 34.35 31.3 Q34 30.7 34 29.95 34 29.3 34.35 28.75 L34.35 28.7 37.45 23 Q37.85 22.35 38.35 22.15 L38.4 22.15 Q39.05 21.85 39.6 22.15"/>
  </g>
</svg>