<svg width="64" height="64" xmlns="http://www.w3.org/2000/svg" xmlns:xlink="http://www.w3.org/1999/xlink">
  <defs/>
  <g>
    <path stroke="none" fill="#FCC920" d="M0 21 L0 0 64 0 64 21 0 21"/>
    <path stroke="none" fill="#3439CB" d="M0 21 L64 21 64 43 0 43 0 21"/>
    <path stroke="none" fill="#EC2037" d="M64 43 L64 64 0 64 0 43 64 43"/>
    <path stroke="none" fill="#EEEEF7" d="M27.45 31.85 Q26.85 33 26 33 25.2 33 24.6 31.85 L24.2 30.8 23.2 30.45 Q22 29.85 22 29 22 28.15 23.2 27.55 L24.25 27.2 24.6 26.15 Q25.2 25 26 25 26.85 25 27.45 26.15 L27.8 27.2 28.85 27.55 Q30 28.15 30 29 30 29.85 28.85 30.45 L27.8 30.8 27.45 31.85"/>
    <path stroke="none" fill="#EEEEF7" d="M39.45 31.85 Q38.85 33 38 33 37.2 33 36.6 31.85 L36.2 30.8 35.2 30.45 Q34 29.85 34 29 34 28.15 35.2 27.55 L36.25 27.2 36.6 26.15 Q37.2 25 38 25 38.85 25 39.45 26.15 L39.8 27.2 40.85 27.55 Q42 28.15 42 29 42 29.85 40.85 30.45 L39.8 30.8 39.45 31.85"/>
    <path stroke="none" fill="#EEEEF7" d="M48.45 37.85 Q47.85 39 47 39 46.2 39 45.6 37.85 L45.2 36.8 44.2 36.45 Q43 35.85 43 35 43 34.15 44.2 33.55 L45.25 33.2 45.6 32.15 Q46.2 31 47 31 47.85 31 48.45 32.15 L48.8 33.2 49.85 33.55 Q51 34.15 51 35 51 35.85 49.85 36.45 L48.8 36.8 48.45 37.85"/>
    <path stroke="none" fill="#EEEEF7" d="M18.45 37.85 Q17.85 39 17 39 16.2 39 15.6 37.85 L15.2 36.8 14.2 36.45 Q13 35.85 13 35 13 34.15 14.2 33.55 L15.25 33.2 15.6 32.15 Q16.2 31 17 31 17.85 31 18.45 32.15 L18.8 33.2 19.85 33.55 Q21 34.15 21 35 21 35.85 19.85 36.45 L18.8 36.8 18.45 37.85"/>
  </g>
</svg>