<svg width="64" height="64" xmlns="http://www.w3.org/2000/svg" xmlns:xlink="http://www.w3.org/1999/xlink">
  <defs/>
  <g>
    <path stroke="none" fill="#EC2037" d="M0 0 L64 0 64 64 0 64 0 0"/>
    <path stroke="none" fill="#3439CB" d="M0 38 L0 0 38 0 38 38 0 38"/>
    <path stroke="none" fill="#EEEEF7" d="M20.45 9.85 Q19.85 11 19 11 18.2 11 17.6 9.85 L17.2 8.8 16.2 8.45 Q15 7.85 15 7 15 6.15 16.2 5.55 L17.25 5.2 17.6 4.15 Q18.2 3 19 3 19.85 3 20.45 4.15 L20.8 5.2 21.85 5.55 Q23 6.15 23 7 23 7.85 21.85 8.45 L20.8 8.8 20.45 9.85 M12.45 17.85 Q11.85 19 11 19 10.2 19 9.6 17.85 L9.2 16.8 8.2 16.45 Q7 15.85 7 15 7 14.15 8.2 13.55 L9.25 13.2 9.6 12.15 Q10.2 11 11 11 11.85 11 12.45 12.15 L12.8 13.2 13.85 13.55 Q15 14.15 15 15 15 15.85 13.85 16.45 L12.8 16.8 12.45 17.85 M28.45 17.85 Q27.85 19 27 19 26.2 19 25.6 17.85 L25.2 16.8 24.2 16.45 Q23 15.85 23 15 23 14.15 24.2 13.55 L25.25 13.2 25.6 12.15 Q26.2 11 27 11 27.85 11 28.45 12.15 L28.8 13.2 29.85 13.55 Q31 14.15 31 15 31 15.85 29.85 16.45 L28.8 16.8 28.45 17.85 M23.1 23.95 Q22.65 24.8 22 24.8 21.4 24.8 20.95 23.95 L20.65 23.15 19.9 22.9 Q19 22.45 19 21.8 19 21.15 19.9 20.7 L20.7 20.45 20.95 19.65 Q21.4 18.8 22 18.8 22.65 18.8 23.1 19.65 L23.35 20.45 24.15 20.7 Q25 21.15 25 21.8 25 22.45 24.15 22.9 L23.35 23.15 23.1 23.95 M20.45 32.85 Q19.85 34 19 34 18.2 34 17.6 32.85 L17.2 31.8 16.2 31.45 Q15 30.85 15 30 15 29.15 16.2 28.55 L17.25 28.2 17.6 27.15 Q18.2 26 19 26 19.85 26 20.45 27.15 L20.8 28.2 21.85 28.55 Q23 29.15 23 30 23 30.85 21.85 31.45 L20.8 31.8 20.45 32.85"/>
  </g>
</svg>