<svg width="64" height="64" xmlns="http://www.w3.org/2000/svg" xmlns:xlink="http://www.w3.org/1999/xlink">
  <defs/>
  <g>
    <path stroke="none" fill="#259F6C" d="M0 64 L0 0 64 0 64 64 0 64"/>
    <path stroke="none" fill="#25252A" d="M54 64 L44 64 44 24 54 24 54 64"/>
    <path stroke="none" fill="#EC2037" d="M44 64 L34 64 34 24 44 24 44 64"/>
    <path stroke="none" fill="#FCC920" d="M54 24 L64 24 64 64 54 64 54 24"/>
    <path stroke="none" fill="#C4863B" d="M60.5 9.9 L57.05 13.25 Q56.55 13.7 55.85 13.7 L53.15 13.7 50.25 16.55 Q49.7 17 49 17 48.25 17 47.75 16.55 L44.8 13.7 42.1 13.7 Q41.4 13.7 40.95 13.25 L37.5 9.9 Q37 9.4 37 8.65 37 7.95 37.5 7.5 37.95 7 38.7 7 L45.55 7 Q46.3 7 46.8 7.5 L49 9.65 51.2 7.5 Q51.65 7 52.4 7 L59.25 7 Q60 7 60.5 7.5 61 7.95 61 8.65 61 9.4 60.5 9.9"/>
  </g>
</svg>